<?xml version="1.0" standalone="no"?>
<!DOCTYPE svg PUBLIC "-//W3C//DTD SVG 1.1//EN" "http://www.w3.org/Graphics/SVG/1.1/DTD/svg11.dtd" >
<svg xmlns="http://www.w3.org/2000/svg" xmlns:xlink="http://www.w3.org/1999/xlink" version="1.1">
<metadata></metadata>
<defs>
<font id="braydon_scriptregular" horiz-adv-x="1024" >
<font-face units-per-em="2048" ascent="1638" descent="-410" />
<missing-glyph horiz-adv-x="500" />
<glyph horiz-adv-x="0" />
<glyph unicode="&#xd;" />
<glyph horiz-adv-x="0" />
<glyph horiz-adv-x="0" />
<glyph unicode=" " />
<glyph unicode="!" horiz-adv-x="679" d="M385 1673q25 -4 55.5 -31.5t56 -66.5t44 -81t18.5 -75q0 -18 -11 -48t-29.5 -65.5t-44 -74.5t-56.5 -76q-29 -35 -84 -107.5t-124 -162.5t-142.5 -188.5t-138 -185.5t-112.5 -153.5t-65 -91.5q-29 -43 -59.5 -95t-55 -100t-41 -85t-16.5 -49q0 -16 -14.5 -22.5t-36 -6.5 t-44 8t-36.5 25q-133 131 131 581q47 80 112.5 176.5t137.5 193.5t144.5 189.5t136.5 163.5q47 53 89 108.5t73.5 105.5t51 92t23.5 71q4 35 11.5 45t25.5 6zM-102 807q-6 -6 -8.5 -11t-0.5 -5q4 0 32 33.5t65 80.5q35 47 65.5 86t34.5 47q14 18 8 19q-4 0 -31.5 -35 t-62.5 -82q-37 -47 -67.5 -86t-34.5 -47zM-131 764q-10 -8 -17.5 -14.5t-7.5 -10.5q0 -20 31 21q12 16 11 17t-17 -13zM-70 702q14 16 13.5 17.5t-17.5 -10.5q-41 -31 -20 -31q4 0 10 7t14 17zM84 905q16 23 17 30t-9 -3q-8 -6 -18.5 -18.5t-17.5 -24.5t-11 -20.5t0 -8.5 q2 0 13.5 13.5t25.5 31.5zM141 983q12 16 11.5 17t-17.5 -13q-10 -8 -17 -14t-7 -10q-1 -21 30 20zM49 924q139 193 208 302t58 120q-2 2 -14 -14.5t-26.5 -39t-25.5 -43t-11 -26.5q0 -14 -19 -4q-16 10 -8 -2q6 -6 2 -21.5t-12 -31t-17.5 -26t-15.5 -5.5q-4 4 -13.5 -1.5 t-17.5 -15.5q-16 -23 -2 -12q25 14 11.5 -9.5t-72.5 -105.5q-37 -49 -81 -112.5t-83 -121t-65.5 -99.5t-26.5 -46t3 -2t12 13.5t26.5 36t46.5 65.5q23 31 63.5 89.5t79.5 111.5zM-580 -250q29 -25 32 -35t-11 -32q-10 -14 -20.5 -34t-18.5 -36q-18 -35 -30.5 -37t-49.5 27 q-31 25 -35 52.5t19 80.5q34 82 114 14z" />
<glyph unicode="&#x22;" horiz-adv-x="362" d="M-256 1479q51 -68 -35 -248q-66 -131 -118 -178t-78 2q-12 27 6 43q20 18 49 65t53.5 102.5t42 108.5t17.5 84q0 39 20 46.5t43 -25.5zM-168 1538l43 -45q51 -53 55 -102.5t-36 -135.5q-45 -94 -83 -136t-67 -23q-16 12 -31 41q-10 20 -7 36.5t26 55.5q33 55 56.5 120.5 t33.5 127.5z" />
<glyph unicode="#" horiz-adv-x="870" d="M760 1001q78 -35 106.5 -68.5t28.5 -86.5q0 -47 -10.5 -58.5t-32.5 11.5q-10 8 -35.5 18t-57.5 19.5t-67 16.5t-65 9l-58 4l-63 -121q-29 -49 -44.5 -86.5t-10.5 -42.5q4 -4 23.5 -11t43.5 -13q182 -41 209 -115q14 -43 6 -68.5t-33 -15.5q-14 6 -53 13.5t-84 15.5 t-88 13t-65 5q-23 0 -34 -1t-19.5 -8t-15.5 -23.5t-17 -45.5q-12 -31 -21.5 -57t-9.5 -33q0 -16 -16.5 -12t-38.5 27q-16 16 -22.5 37.5t-6.5 60.5v70h-90h-90l-27 -60q-27 -57 -45 -99t-31.5 -75t-21.5 -58.5t-15 -47.5q-8 -27 -17 -46.5t-13 -19.5t-16.5 10.5t-22.5 26.5 q-31 37 -28 88t40 162q16 51 29.5 89t13.5 40t-9 3t-20 1q-12 0 -30.5 10t-34.5 25q-20 20 -26.5 38.5t-4.5 49.5q4 29 9 39t18 6q12 -4 37.5 -5t52.5 -1t49.5 1t28.5 5q6 2 25.5 41t42 86t40 88t17.5 49q0 14 -29 14q-51 0 -88 45.5t-37 108.5q0 33 12.5 47t22.5 -4 q4 -6 40 -10t83 -4l114 2l39 57q20 33 49 69t56.5 66.5t50.5 51t31 20.5t21.5 -14.5t23.5 -34.5q16 -35 15 -53.5t-17 -63.5q-16 -43 -24.5 -66.5t-8.5 -34t6 -12.5t21 -2q20 0 35.5 13.5t37.5 46.5q39 59 76 98t53 39q12 0 24.5 -9t24 -22.5t18.5 -30t7 -30.5t-8 -41 t-21 -49l-28 -56zM39 651q12 20 30.5 55t42 75t48 83t47.5 84q47 78 76.5 135.5t25.5 57.5q-2 0 -20.5 -24.5t-44 -65.5t-57 -92.5t-63.5 -103.5t-59.5 -100t-46.5 -83q-29 -55 -55 -112.5t-45.5 -108t-31 -90t-11.5 -58.5q0 -35 53 103q23 59 55.5 129.5t55.5 115.5z M336 762q23 47 38 83t13 38t-16.5 4t-34.5 4q-16 2 -27.5 0t-24 -12.5t-27.5 -33t-42 -61.5q-31 -47 -53.5 -82.5t-22.5 -42.5q0 -8 20.5 -12t51.5 -4h70zM311 440q6 29 -4 21q-14 -8 -14 -29q0 -23 6 -20t12 28zM530 866q25 45 40.5 78t13.5 37q-2 2 -12.5 -13.5t-34 -56.5 t-62.5 -111.5t-96 -178.5q-23 -45 -40 -81t-17 -44q0 -10 22.5 25.5t52.5 94.5q14 29 33 63t37 67.5t34.5 65t28.5 54.5z" />
<glyph unicode="$" horiz-adv-x="907" d="M657 1260q63 -82 63.5 -149t-65.5 -128q-23 -23 -48 -41t-42 -24q-27 -10 -36 -6.5t-19 26.5t-3 37t50 53q27 23 50.5 51.5t31.5 46.5q12 29 10 41.5t-18 28.5q-23 20 -39.5 27.5t-38 -11t-55 -67.5t-90.5 -137q-31 -47 -56.5 -89t-46 -75t-32 -54.5t-11.5 -23.5 q0 -8 9.5 -26.5t23.5 -37.5q94 -125 101 -290.5t-77 -333.5q-18 -37 -54 -84t-80 -91t-89 -80t-80 -52q-49 -23 -124.5 -30t-153.5 3q-14 4 -30.5 -14.5t-43.5 -65.5q-18 -31 -54 -101.5t-74 -147.5t-68.5 -140t-36.5 -82q-16 -47 -49 -8q-8 10 9 64.5t66 181.5q18 45 37 92 t36 87t30.5 69.5t19.5 44.5l35 69l-53 51q-70 68 -96.5 152t-2.5 156q14 45 58.5 92t102 86t117.5 61.5t107 18.5l64 -4l49 92q23 37 49.5 85t42.5 79l41 73l-67 76q-113 123 -100.5 243t147.5 210q63 43 138 64.5t179 31.5l109 8l-47 -82q-16 -27 -27.5 -43t-23 -26.5 t-26 -15.5t-34.5 -11q-117 -31 -211 -133q-55 -61 -59 -90t37 -66q20 -16 35.5 -27.5t19.5 -13.5q2 0 29.5 40t62.5 97q35 55 62.5 96.5t43 62t16.5 18t-18 -32.5q-6 -10 -21 -36t-36.5 -62.5t-47.5 -79.5t-52 -89q-45 -74 -91 -153.5t-91.5 -158.5t-83 -151.5t-66.5 -128 t-44 -90t-11 -38.5q2 -2 20.5 27.5t42.5 74.5q23 45 56.5 107.5t58.5 107.5q12 23 33.5 60.5t48 85t57.5 98.5t60 100t57.5 96t53 87t41.5 69t24 41q14 25 33.5 57.5t33.5 55.5q16 23 38 61.5t38 73.5q20 41 52 92t63.5 96t59.5 77t40 34q20 6 33 -33q8 -33 -13.5 -82 t-80.5 -137l-56 -80zM109 1122q14 16 13 17.5t-18 -11.5q-25 -18 -24 -24q0 -17 29 18zM29 1137q-23 -41 -19 -48.5t27 23.5q10 14 27.5 36.5t29.5 39.5q12 16 40 39.5t56 40.5q53 35 48 40t-62 -30q-49 -29 -89 -67.5t-58 -73.5zM-365 -76q12 0 22.5 5t25 25.5t37 62.5 t59.5 116q43 88 68.5 148.5t17.5 60.5q-12 0 -35 -9t-49.5 -23.5t-53 -32t-46.5 -33.5q-125 -113 -125 -228q0 -55 16 -73.5t63 -18.5zM-199 100q18 18 11 27q-8 6 -19 -18q-10 -25 8 -9zM176 721q-14 -29 -6 -29q6 0 20 29q14 27 9 27q-9 0 -23 -27zM84 559 q-14 -29 -14 -31t16 17q10 12 22.5 32.5t20.5 38.5q16 29 15 31t-17 -18q-10 -10 -21.5 -31t-21.5 -39zM45 487q-10 -27 8 -8q6 6 9.5 13.5t-1.5 11.5q-6 6 -16 -17zM-180 -49q4 0 21.5 8t39.5 18q29 14 75 55.5t92 88.5t84 95t52 79q49 104 58.5 196.5t-23.5 133.5 q-10 14 -19.5 22t-11.5 4q-8 -8 -38.5 -63.5t-72.5 -133t-88 -166.5t-85 -164t-62.5 -124t-21.5 -49zM301 295q-8 6 -18 -19t8 -8q18 19 10 27zM297 424q-4 2 -7 -1t-9.5 -17.5t-18.5 -45t-33 -84.5q-20 -55 -52 -111t-73 -109.5t-89 -100.5t-97 -84q-16 -12 -24.5 -21.5 t-2.5 -9.5q8 0 38 17.5t65 44.5t60.5 44t25.5 13t-17.5 -22.5t-42.5 -40.5l-59 -60l70 49q29 20 58.5 44t41.5 38t39 55t52.5 85.5t46 82t20.5 46.5q0 6 -6.5 4t-14.5 -9.5t-15 -16.5t-7 -15q0 -8 -8.5 -22.5t-20.5 -29.5q-29 -39 -14 -8q33 70 48 111t30 92q10 31 14 54.5 t2 27.5zM252 815q31 49 49 81t27.5 48.5t9.5 22.5t-4 6t-16.5 -15.5t-24.5 -37.5q-10 -23 -27.5 -52.5t-32.5 -52.5q-12 -23 -19 -38t-3 -15t15.5 15t25.5 38zM483 1202q14 23 19.5 36t-0.5 7t-32 -46t-53.5 -85t-49 -83t-21.5 -42t13.5 14.5t33 50t43.5 70.5t47 78zM174 92 q16 14 17.5 13t-13.5 -17q-29 -39 -28 -20q-1 6 24 24z" />
<glyph unicode="%" horiz-adv-x="776" d="M303 274q0 57 22.5 112.5t55.5 91.5t66.5 44t56.5 -26q8 -14 3 -28.5t-24 -41.5q-31 -45 -34 -111q-2 -55 -15.5 -94t-32 -57.5t-39 -14t-38.5 38.5q-8 16 -14.5 42t-6.5 44zM47 918q-23 14 -39 42.5t-22 64.5t-3 75t17 74q8 23 27.5 48t43 47.5t46 40t41.5 21.5 q35 8 61 -18q27 -25 31 -59.5t-17 -36.5q-12 0 -20 -24t-18 -77q-12 -78 -26.5 -116.5t-43.5 -71.5q-18 -23 -34.5 -24.5t-43.5 14.5zM643 1401q10 6 21.5 -2t21.5 -25.5t16.5 -41t6.5 -48.5q0 -18 -3.5 -36.5t-11.5 -41t-22.5 -51.5t-34.5 -68q-31 -59 -74 -128.5 t-91 -142.5t-99 -144.5t-101 -134.5q-39 -49 -75.5 -101.5t-53.5 -77.5q-16 -25 -30.5 -40t-20.5 -11q-4 4 -7 1t1 -11t-3 -22.5t-17 -26.5q-12 -12 -20.5 -24.5t-8.5 -18.5q0 -14 -10 -19q-2 -2 -20.5 -30.5t-45.5 -71.5t-56.5 -94t-56 -97.5t-45 -81t-22.5 -44.5 q-10 -25 -29.5 -24t-42.5 26q-12 14 -16 31.5t3 47t26.5 73.5t54.5 112q106 213 191 372.5t157 282.5t134.5 216t125.5 173q33 41 80 101.5t82 105.5t62.5 79t33.5 38zM131 522q12 20 22.5 39t10.5 25t-13.5 -9.5t-29.5 -41.5q-14 -23 -42 -72t-59.5 -108.5t-66.5 -123 t-62.5 -117t-45 -89t-17.5 -39.5t20.5 29.5t54.5 95t79 145.5t94 178q10 16 25.5 43t29.5 45zM272 762q37 70 38 82t-36 -49q-70 -117 -87 -151t8 -5q12 16 34.5 52t42.5 71zM344 887q12 14 20.5 27.5t8.5 21.5q0 12 -12.5 -4.5t-30.5 -50.5q-10 -16 -6 -15t20 21zM444 1063 l-22 -29q-10 -10 -20.5 -26.5t-16.5 -28.5l-14 -29l22 29q23 29 37 55z" />
<glyph unicode="&#x26;" horiz-adv-x="1034" d="M-403 78q0 31 2 53.5t6 44t13 43t22 49.5q18 39 45.5 84t48.5 72q20 25 51 51.5t63.5 50t64.5 40t54 22.5q16 4 28.5 10t16.5 10q2 4 -9 36t-30 71q-14 31 -23 54.5t-13.5 46t-6.5 47t-2 61.5q0 68 6.5 103.5t26.5 78.5q27 55 86 118.5t135 123t160 107.5t162 75 q166 55 283.5 6t162.5 -197q16 -57 11 -107t-35 -110q-20 -41 -54 -82t-71 -72.5t-69 -49t-50 -11.5q-27 10 -18.5 38t47.5 52q39 27 73.5 74t59 98.5t34 98.5t-3.5 75q-10 23 -25 29t-65 6q-76 0 -164 -39t-171.5 -101t-154.5 -144t-114 -170q-16 -35 -26.5 -62.5 t-16.5 -56.5t-8 -60.5t0 -70.5q2 -23 11.5 -35t37.5 -25q39 -16 65.5 -46.5t26.5 -59.5q0 -20 -55 -33q-47 -8 -100.5 -38.5t-103.5 -77t-92 -102.5t-69 -118q-14 -31 -26 -71.5t-21.5 -80.5t-12.5 -74t1 -52q10 -53 72.5 -60.5t169.5 27.5q53 16 88 39.5t86 75.5 q74 74 118 153.5t44 139.5q0 37 -5.5 44t-27.5 -1q-12 -4 -63.5 -29t-110.5 -57q-84 -45 -118 -58.5t-46 -3.5q-31 27 -26 63.5t40 76.5t96.5 80t141.5 71q106 41 202.5 71.5t173 48t132 20.5t78.5 -9t43 -44t20 -54q0 -6 -20.5 -10.5t-49.5 -4.5q-35 0 -94 -13t-131 -38 l-153 -51l10 -57q6 -23 9 -67t3 -81q-2 -88 -40 -163.5t-130 -166.5q-55 -57 -117.5 -96t-125 -58.5t-122 -18.5t-108.5 24q-43 20 -81 56t-64.5 78t-40 85t-4.5 78q14 55 25 94t25.5 72t32 64.5t41.5 70.5q16 23 26.5 44t12.5 30q4 23 21.5 40t30.5 9q12 -6 4 8 q-4 8 0 21.5t14 27.5t0 3t-39 -40q-35 -37 -71.5 -95t-66.5 -121.5t-49.5 -122t-19.5 -95.5q-2 -23 -4 -22.5t-12 16.5q-6 10 -10 46t-4 77zM289 350q25 10 16 19q-8 6 -24 -11q-10 -10 -9 -11t17 3zM346 375q8 4 28.5 9t41.5 9q23 4 39 10.5t20 12.5q10 18 -12 6 q-10 -4 -33.5 -10t-46.5 -13q-23 -6 -40 -13t-17 -11q0 -8 20 0zM-10 881q0 -12 9 -23.5t19 -11.5q4 0 14.5 23.5t20.5 58.5q10 33 30.5 73.5t48.5 81.5t58.5 78t61.5 66q23 18 58.5 47t69.5 55.5t60.5 45t30.5 18.5q6 0 23.5 9t36 21.5t31.5 22.5t11 12q-6 4 -31.5 -7 t-61.5 -32.5t-78 -50.5t-80 -59q-94 -74 -166 -161t-105 -165q-14 -31 -23.5 -45t-9.5 -4t9.5 34.5t21.5 49.5q31 61 79 123.5t108.5 120t129 107.5t138.5 85q29 14 43 24.5t6 10.5q-20 0 -64.5 -22.5t-97.5 -59.5t-109.5 -82t-99.5 -90q-92 -94 -136 -178t-34 -146 q8 -61 -6 -37q-12 21 -16 7z" />
<glyph unicode="'" horiz-adv-x="262" d="M-186 1130q-59 -61 -88 -69t-54 31q-16 25 -13 34t34 35q29 25 65.5 77t68.5 111.5t54.5 114t22.5 82.5q0 29 14 27t41 -37q25 -31 27 -76t-17.5 -99t-58.5 -114t-96 -117z" />
<glyph unicode="(" horiz-adv-x="661" d="M1092 2071q33 -4 44 -14.5t-0.5 -35t-48 -66.5t-102.5 -110q-84 -84 -139 -147.5t-100.5 -126t-86.5 -134t-92 -175.5q-49 -100 -89 -185.5t-70.5 -162t-56 -148.5t-46.5 -145q-33 -111 -53.5 -244t-28.5 -258t-2 -226.5t29 -150.5q10 -27 16 -48.5t2 -25.5 q-14 -16 -51 -7t-67 36q-55 47 -88 126t-50 206q-20 154 -8 332t51 356t101.5 342t142.5 291q16 27 61.5 78t105.5 115.5t131 135t137.5 134t123.5 114.5t92 78q55 41 85 55.5t57 10.5zM188 657q0 18 -20 -28q-18 -51 -18 -65.5t20 28.5q8 18 13 36.5t5 28.5zM356 1112 q23 55 38.5 96t13.5 43q-4 4 -16.5 -18.5t-31 -65.5t-42 -105.5t-50.5 -135.5q-27 -74 -42 -120t-23 -71.5t-10.5 -36t2.5 -10.5q4 0 19 43t36 103q10 31 24.5 67.5t28.5 74.5t27.5 72.5t25.5 63.5zM432 1384q29 47 14.5 49.5t-47.5 -44.5q-27 -37 -59.5 -110t-68 -165 t-71.5 -197.5t-66 -209t-52.5 -197.5t-30.5 -164q-4 -29 12.5 26.5t42.5 159.5q14 51 31 112t34 118t34.5 108.5t30.5 85.5q47 129 100 243.5t96 184.5z" />
<glyph unicode=")" horiz-adv-x="747" d="M653 1255q-6 -27 -14 -63.5t-17.5 -76.5t-19.5 -82t-18 -77q-92 -408 -296 -735t-517 -577q-55 -45 -94 -72t-66 -37t-44.5 -7t-31.5 19q-6 6 -4 16.5t13.5 29t35 48t60.5 74.5q86 102 174 230.5t165.5 258.5t137 250.5t88.5 211.5q4 12 16 43.5t28.5 74.5t36 94.5 t40.5 104.5q51 129 84.5 230.5t56 191.5t34 175t15.5 181l10 201l41 6q20 2 45 -10t47.5 -34.5t41 -52.5t26.5 -61q30 -115 -74 -555zM342 498q12 23 11 25.5t-17 -11.5q-10 -10 -18.5 -19.5t-8.5 -15.5q0 -16 9.5 -11t23.5 32zM410 741q29 59 46 103.5t13 48.5 q-12 8 -18 -21q-4 -10 -24.5 -55t-43.5 -96t-38 -87t-11 -36t25.5 42t50.5 101zM172 406q76 158 143.5 309t116.5 274t76 204t20 97q-2 6 -17 -32.5t-38 -100.5q-20 -63 -62 -167.5t-92.5 -221.5t-102.5 -229.5t-93 -192.5q-31 -61 -49.5 -97t-24.5 -51.5t-2 -12.5t16 20 q6 6 17.5 24.5t26 46t32 61.5t33.5 69z" />
<glyph unicode="*" horiz-adv-x="448" d="M-53 1532q66 -23 64.5 -42.5t-72.5 -35.5q-31 -6 -54.5 -13t-27.5 -11t4 -39t22 -82l35 -115l-33 -12q-41 -16 -87 8t-74 76q-14 23 -25.5 39t-15.5 16t-30 -29.5t-56.5 -69.5t-58 -79t-36.5 -56q-6 -12 -13 -21t-11 -9q-14 4 -35 8q-31 10 -21.5 49t60.5 115 q27 41 44 69.5t15 30.5q-4 4 -19.5 -5t-37.5 -24q-84 -57 -141 -16q-18 14 -15.5 22.5t37.5 32.5q20 16 61.5 40t79.5 40q39 18 67 31.5t28 17.5t-9.5 18.5t-19.5 35.5q-33 51 -45 102t4 70q12 14 42 18t63.5 -2t65.5 -21.5t50 -37.5q12 -14 24.5 -10t49.5 38q23 20 36 30.5 t24.5 15t23.5 1t31 -11.5q74 -27 -13 -112l-49 -48zM-223 1276q45 -72 37.5 -45.5t-64.5 137.5q-61 123 -99 187.5t-46 56.5q-2 -2 16.5 -43t46 -94.5t58.5 -109.5t51 -89z" />
<glyph unicode="+" horiz-adv-x="1171" d="M803 678q82 -18 137 -33.5t90 -31t52.5 -33t27.5 -37.5q16 -39 13 -65.5t-23 -16.5q-4 4 -42 11t-93.5 15.5t-120 17.5t-125 16t-106.5 12.5t-64 5.5q-4 0 -37 -50.5t-79 -125t-98 -163.5t-96 -167t-74 -133.5t-30 -63.5q0 -106 -86 -39q-82 63 -65.5 198.5t133.5 375.5 l71 147l-45 4q-16 2 -57 -1t-80 -11q-82 -14 -113.5 -7t-48.5 44q-23 47 -15.5 77.5t44.5 59.5q57 43 129 63.5t197 26.5l151 10l72 105q31 43 64.5 92t52.5 76q78 106 125 177t72.5 119t31.5 77.5t2 58.5q-6 37 -3 47t19 10q23 0 53.5 -29.5t57.5 -72.5t45.5 -92t18.5 -86 t-10.5 -76t-40 -96.5t-83 -139.5t-137.5 -206l-24 -37zM283 377q16 33 49 86t75 117.5t88 134t90 135t84 122t68 93.5q29 37 53.5 73t30.5 48q6 16 2 12t-20 -22q-12 -18 -35 -44t-43 -45q-18 -18 -30.5 -31.5t-8.5 -13.5q6 0 -18 -28q-41 -39 -34 -21.5t58 88.5 q72 98 100.5 148.5t26.5 73.5q0 29 -16 -17q-4 -10 -21.5 -36.5t-43 -65.5t-58.5 -87t-70 -98q-102 -143 -190 -276t-154.5 -244.5t-109.5 -196.5t-54 -132q-10 -39 1.5 -27t39.5 76q16 35 30.5 60.5t21.5 29.5q4 4 9 10t5 10q0 18 8 32.5t16 14.5q4 0 3.5 -14t-11.5 -35 q-27 -61 -10 -41.5t68 111.5z" />
<glyph unicode="," horiz-adv-x="335" d="M-399 -223q-35 20 -41 46.5t16 51.5q12 14 34.5 52t46.5 84t43 91t30 76q16 47 30.5 54.5t49.5 -19.5q102 -84 28 -209q-27 -47 -57.5 -91t-60 -78t-52 -53.5t-35.5 -19.5q-7 1 -32 15zM-264 -90q6 18 -6 12q-14 -8 -15 -22q0 -14 6.5 -11t14.5 21zM-240 94 q-8 -2 -24.5 -22.5t-33.5 -45t-29.5 -48t-12.5 -33.5q0 -4 11.5 9t24.5 32.5t25.5 40t16.5 30.5q8 27 20 27q4 0 -2 -18.5t-20 -40.5q-31 -53 -32 -64.5t24 -13.5q29 0 45 37q23 47 22.5 51t-24.5 -33q-37 -55 -36 -36.5t38 89.5q18 35 29.5 61.5t7.5 30.5q-6 6 -17 -20 q-4 -10 -13.5 -20.5t-19.5 -12.5z" />
<glyph unicode="-" horiz-adv-x="462" d="M-489 569q-25 25 -18 69t42 73q27 23 62.5 38t90 25t134.5 15.5t196 9.5q100 2 169 -3t110 -21.5t59.5 -44.5t18.5 -71q0 -29 -6.5 -32.5t-38.5 6.5q-31 8 -84 9t-120 -4t-143.5 -16.5t-154.5 -27.5q-84 -16 -140.5 -26.5t-92 -13.5t-56 1t-28.5 14zM-209 731 q-10 -4 -5 -6t21 -2q39 0 25 6q-6 4 -18.5 4t-22.5 -2z" />
<glyph unicode="." horiz-adv-x="362" d="M-389 -137q-31 37 -24 83t61 136q25 45 43 71.5t33.5 37t30 6.5t34.5 -19q16 -12 32.5 -30.5t26.5 -34.5q14 -25 14.5 -37.5t-16.5 -34.5q-18 -33 -46.5 -71t-56.5 -69.5t-49.5 -54t-29.5 -22.5q-10 0 -25.5 11.5t-27.5 27.5z" />
<glyph unicode="/" horiz-adv-x="405" d="M651 1636q8 -43 1 -95t-42 -139t-101.5 -219t-174.5 -335q-123 -229 -230.5 -446.5t-186.5 -393.5t-122 -293.5t-37 -148.5q6 -29 1 -35t-31 -6q-16 2 -37 7t-37 13q-35 20 -53.5 64.5t-24.5 126.5q-4 57 6 127.5t40 163t77 208t117 263.5q20 43 59 122.5t88 180 t105.5 213t109.5 219t100.5 200t79.5 156.5q39 76 56.5 124t21.5 89q4 61 21.5 69.5t66.5 -26.5q18 -12 38 -35.5t37 -53.5t31.5 -60.5t20.5 -59.5zM33 504q14 0 14 14t-6 14q-8 0 -14 -14q-10 -14 6 -14zM-74 352q2 0 14.5 27t32 71t46 103t57.5 127q70 158 116 261 t76.5 176t53 128t47.5 117q31 78 41 110.5t4 23.5t-29 -57t-57 -130q-8 -23 -17.5 -43.5t-22 -50t-31.5 -72.5t-46 -107q-104 -238 -164.5 -378t-90.5 -211.5t-35 -88t5 -6.5zM82 629q20 -31 20 10q0 18 -14 12q-12 -8 -6 -22zM141 731q20 25 9 25q-16 0 -27 -25 q-10 -23 -14.5 -42t4.5 -13q6 6 6 20q0 4 6 14.5t16 20.5zM246 969q16 6 2 14q-6 4 -17.5 -9t-21.5 -40q-10 -25 -21.5 -48.5t-15.5 -33.5q-8 -14 -4 -26.5t14 -12.5q2 0 11.5 18.5t21.5 45.5q10 27 17.5 49t3.5 26q-8 13 10 17zM252 1006q4 -6 10 -3t17.5 23.5t28 59 t40.5 100.5q23 51 38 101t17 71q4 29 2 33t-8 -13q-10 -25 -21 -54.5t-16 -39.5q0 -4 -2 -9t-4 -9q-2 -2 -6 -17q-2 -4 -13 -31.5t-28 -62.5q-16 -35 -27.5 -66.5t-13.5 -41.5q0 -25 -12 -25q-14 0 -2 -16z" />
<glyph unicode="0" horiz-adv-x="866" d="M8 360q-6 27 -8 47.5t0 41t7 44t16 58.5q39 141 116.5 279.5t169.5 246t187.5 169t167.5 48.5q23 -4 51 -17t47 -30l43 -39l-21 -153q-12 -84 -27.5 -150.5t-39 -130t-58 -128t-86.5 -142.5q-133 -203 -243.5 -276.5t-214.5 -26.5q-49 23 -72 56t-35 103zM158 479 q8 8 0 27q-6 14 -8 -8q0 -12 2 -17.5t6 -1.5zM616 1038q-47 -43 -95 -105.5t-92 -133t-81 -146t-61 -145.5q-61 -186 -49 -221t104 80q47 59 91 127.5t84 142.5t73 148.5t55 146.5q37 117 31.5 137t-60.5 -31zM451 999q51 66 53 77t-45 -42q-59 -66 -125 -165t-115 -199 q-61 -129 -53 -128t76 128q16 31 33.5 61.5t34 59t29.5 52t23 36.5q18 29 44.5 63t44.5 57zM113 539q-4 -18 17.5 13.5t57.5 104.5q16 33 35 67t35 64.5t29.5 55t21.5 37.5q18 29 44 65.5t51.5 70.5t46 59.5t26.5 31.5q16 10 0 10q-6 0 -28.5 -21.5t-49.5 -49.5 q-25 -31 -51 -60t-37 -39q-12 -10 -16 -18t0 -8t-5 -14.5t-26 -37.5q-23 -29 -48.5 -73.5t-47 -93t-37.5 -92t-18 -72.5z" />
<glyph unicode="1" horiz-adv-x="788" d="M74 266q14 10 2 27q-8 16 4 10q6 -4 14 4t17 25q10 27 10 28.5t-17 -18.5q-27 -33 -16.5 -3t68.5 153q29 63 62.5 130.5t67 131t65.5 118t57 89.5q41 59 37.5 65t-50.5 -31q-61 -47 -117.5 -80.5t-78.5 -33.5q-10 0 -25.5 5t-26.5 13q-16 12 -11 21.5t52 35.5 q33 18 81 54.5t101.5 79.5t106.5 90t96 88q31 29 50.5 46t35 26.5t28.5 12.5t30 3q53 0 80.5 -26.5t17.5 -74.5q-4 -18 -20.5 -59t-40 -89t-51 -99.5t-54.5 -92.5q-31 -47 -50 -79.5t-41.5 -71.5t-53.5 -94.5t-82 -149.5q-49 -86 -98.5 -174t-91.5 -159.5t-69.5 -119 t-29.5 -51.5q-4 -4 -18.5 -8t-31.5 -7t-33.5 -5t-24.5 0q-25 4 -25 27q0 14 10 52t22.5 80t25 74.5t16.5 36.5zM524 922q-6 10 -12 10t-16 -17q-8 -10 -12.5 -21t-0.5 -15q8 -12 -8 -13q-16 0 -8 -12t-14 -20q-20 -8 -13 -23q6 -14 -4 -14q-6 0 -19.5 -17.5t-27.5 -40 t-27.5 -46t-15.5 -36.5q-2 -8 -8 -19l-12 -22q-8 -10 -13.5 -20t-3.5 -14q0 -14 -12 -21q-8 -6 -20.5 -24.5t-22.5 -39t-15.5 -34.5t1.5 -12q8 2 22 20t29 43q12 25 20 42t4 17t2.5 8.5t18.5 20.5q12 10 18 22.5t2 16.5q-8 14 6 18q8 2 29 33t44.5 68t42 72.5t22.5 52.5 q4 16 10 24.5t12 3.5q12 -9 2 9zM489 1014q-14 -10 -14 -23q0 -16 6 -12t15 20q5 21 -7 15zM459 950q-6 -6 -21.5 -28.5t-34 -52t-38 -62.5t-34 -59.5t-21.5 -43t-3 -12.5q6 4 18.5 22.5t26.5 41.5q12 23 24.5 39t16.5 16q12 0 13 27q0 12 8 28.5t20 28.5q10 10 16.5 18.5 t2.5 8.5t-1 7t11 17q12 16 12 17t-16 -13zM297 670q-6 0 -20.5 -18.5t-29 -42t-25.5 -46t-11 -31.5q0 -4 6 2.5t14.5 16.5t14.5 21.5t6 17.5q0 12 16 2q14 -10 6 6q-10 16 7 16q18 0 8 11q-8 8 6 26q14 19 2 19zM223 432q-14 0 -14 -20q0 -23 14 -15q14 10 15 23 q-1 12 -15 12zM168 461q-12 -23 -18.5 -39t-4.5 -16q4 0 14.5 16t22.5 39q10 23 17.5 39t3.5 16t-13.5 -16t-21.5 -39z" />
<glyph unicode="2" horiz-adv-x="960" d="M-272 -35q-10 10 -5 26.5t28.5 43t65.5 65.5t109 97q33 27 71 58.5t75 64t70.5 61.5t58.5 51q49 43 107.5 105.5t116.5 131t107.5 134t79.5 115.5q18 33 37 71.5t33 73.5t20.5 60.5t-0.5 31.5q-6 6 -26.5 -4t-48 -29.5t-56 -44t-51.5 -49.5t-44 -55.5t-38.5 -61 t-29 -58.5t-11.5 -46q-2 -12 1 -32.5t8 -37.5q8 -27 2.5 -33t-33.5 -6q-45 0 -74 36t-31 89q0 47 24.5 104.5t65.5 114t94.5 104.5t108.5 77q72 37 145.5 37t132 -30t95.5 -83t37 -125q0 -70 -38 -149.5t-118 -172t-202.5 -200t-290.5 -234.5l-152 -112h53 q53 -2 156.5 -21.5t230.5 -54.5q219 -57 219 -92q0 -16 -70.5 -12.5t-244.5 26.5q-195 27 -330 23.5t-241 -41.5q-41 -14 -76 -25.5t-43 -15.5q-10 -4 -24.5 -4t-26.5 2q-14 4 -27.5 10t-19.5 16zM188 246q-27 -23 -36 -34t4 -5q14 8 27.5 17t23.5 16q113 104 193.5 184 t140 149.5t103.5 136t85 142.5q16 31 31.5 65.5t25 64.5t13.5 51.5t0 25.5t-8.5 -6.5t-8.5 -26.5q-6 -29 -24.5 -70t-43 -87t-55 -95t-61.5 -92q-31 -41 -81 -98.5t-106.5 -117.5t-115 -118.5t-107.5 -101.5z" />
<glyph unicode="3" horiz-adv-x="1110" d="M145 61q-147 57 -146 141.5t151 180.5q39 25 65.5 33t69.5 4q27 0 32 -14.5t-18 -14.5q-12 0 -34.5 -13t-47 -32.5t-45 -41t-29.5 -38.5q-23 -41 -22.5 -75.5t22.5 -51.5q10 -8 35 -12t55.5 -3t62.5 6t54 15q47 18 87 54.5t70 83.5t48 102t20 113q2 45 -1 72.5t-17 45 t-39.5 25.5t-66.5 12q-29 2 -59 10.5t-52.5 18.5t-36.5 22.5t-14 22.5q0 4 28.5 12.5t69.5 16.5q193 35 342 196q57 61 95 129t38 109q0 20 -9 23.5t-52 -1.5q-29 -4 -67 -17t-77 -32.5t-75.5 -43t-67.5 -48.5q-51 -43 -78.5 -48t-62.5 24q-23 18 -25 28t10 41 q18 45 78 96.5t131 83.5q117 53 234 34t205 -107q51 -49 60 -106.5t-19.5 -116t-94 -117t-164.5 -109.5q-53 -27 -92 -47t-43 -25q-2 -2 6.5 -10t22.5 -18q51 -35 85 -81t51.5 -97.5t15 -105.5t-24.5 -103q-14 -29 -39 -59.5t-55.5 -58.5t-66.5 -50.5t-73 -36.5 q-41 -16 -100 -25.5t-122.5 -12.5t-120 1t-87.5 16zM848 942q-14 -8 -6 -20q10 -12 22 -7q10 10 4 23q-4 4 -10 6t-10 -2zM756 844q-45 -43 -48 -49.5t25 10.5q20 10 43 27.5t33 29.5q23 23 27 32t-5.5 6t-29.5 -17t-45 -39zM616 285q-35 -66 -14 -49q10 10 25.5 30.5 t25.5 42.5q12 23 19.5 49.5t7.5 42.5q-2 29 -3 29t-9 -35q-4 -18 -20 -49.5t-32 -60.5z" />
<glyph unicode="4" horiz-adv-x="894" d="M391 98q-20 -35 -33.5 -46t-42.5 -11q-18 0 -33.5 2t-19.5 6t1 23.5t16 44.5q6 12 14 35.5t19.5 54.5t22.5 65.5t21 69.5t23.5 72t26 71.5t23.5 64.5t20 48q16 37 23 56.5t-3 25.5t-42 -1t-93 -22q-113 -29 -178.5 -28.5t-110.5 28.5q-18 10 -31.5 23.5t-13.5 19.5 q0 8 12.5 28t54.5 69t122.5 138t220.5 241q61 68 100 106.5t65.5 58t46 22.5t44.5 -1t49 -18.5t42.5 -32t29 -37t8.5 -35.5l-7 -35l37 29q23 16 40.5 20t41.5 -2q18 -4 39 -15t38 -26.5t27.5 -31t10.5 -27.5q0 -20 -34 -88t-95.5 -173.5t-149.5 -243.5t-196 -302 q-25 -39 -50.5 -77t-46 -71.5t-37 -59.5t-22.5 -38zM244 860l71 66q29 29 51.5 46t26.5 13q8 -8 8 14q0 4 -1 7.5t-1 7.5v6q-2 0 -24.5 -22.5t-52.5 -57.5zM518 758l39 80q16 33 45 84t53 92q35 53 40 69.5t-13 -0.5q-12 -12 -48 -43.5t-73 -64.5t-101.5 -83t-119.5 -89 q-53 -39 -92 -67.5t-39 -33.5q0 -6 63.5 3.5t151.5 29.5z" />
<glyph unicode="5" horiz-adv-x="1089" d="M266 793q0 121 156 329q61 84 53 111q-6 16 8.5 20t79.5 7h153.5t126 -3.5t90.5 -6.5t48 -9q23 -10 37 -31.5t4 -31.5q-4 -4 -34 -9.5t-72 -9.5t-85 -8t-69 -4q-23 0 -36 -2t-22.5 -8.5t-17.5 -19.5t-20 -36q-14 -27 -42 -71.5t-55 -83.5q-41 -61 -46 -74.5t18 -7.5 q100 23 167.5 13.5t139.5 -56.5q59 -39 84.5 -86t25.5 -113q0 -74 -32.5 -137.5t-114.5 -147.5q-72 -76 -169 -130t-198 -74q-37 -8 -64.5 -11.5t-52 -2.5t-51 7.5t-63.5 18.5q-117 37 -174 92t-31 105q10 18 30.5 22t42 -2t37 -22.5t15.5 -36.5q0 -18 13.5 -35t34 -28 t46 -16t52.5 -1q63 8 129.5 49t126 101.5t105.5 134t65 147.5q8 29 15 57.5t9 38.5q16 57 -201 -20q-63 -23 -99 -34t-56.5 -13t-33.5 5t-32 23q-27 23 -34 40.5t-7 60.5z" />
<glyph unicode="6" horiz-adv-x="958" d="M31 203q-31 49 -31 131t29.5 182t87 216t139.5 233q147 217 296.5 300t281.5 23q59 -27 84.5 -59.5t25.5 -75.5q0 -51 -23.5 -73.5t-62.5 -8.5q-25 8 -32 21.5t-11 50.5q-4 59 -22 59q-12 0 -43 -26.5t-68 -65.5t-75 -86t-64 -86q-33 -49 -50.5 -76.5t-20.5 -43t6 -25 t30 -19.5q20 -10 45 -26.5t41 -32.5q25 -23 31 -45.5t6 -85.5q0 -96 -31 -175t-98 -151q-80 -88 -166 -128t-160 -24q-47 12 -86 38t-59 59zM223 559q4 0 11.5 13.5t13.5 33.5t7 33.5t-3 9.5q-6 -4 -12.5 -18.5t-11.5 -29.5t-7 -28.5t2 -13.5zM348 604q-88 -168 -108.5 -262 t18.5 -143q16 -23 41 -14.5t72 53.5q25 23 54.5 60.5t45.5 68.5q14 25 22.5 42t12.5 37.5t5 46t1 62.5q0 41 -1 65.5t-5 40t-13.5 25.5t-23.5 27l-41 43zM346 930q-70 -104 -61 -105q4 0 16 16.5t29 39.5q14 23 25.5 42t11.5 23t-6.5 -1t-14.5 -15zM274 723q-10 10 -2 -6 q10 -16 16.5 -16.5t22.5 22.5q12 16 12.5 17t-14.5 -9q-10 -8 -20.5 -10t-14.5 2zM168 582q-23 -86 -24 -96.5t16 24.5q8 16 20.5 51t22.5 64q10 31 21.5 52t17.5 21q14 0 4 15q-6 14 8 37q8 8 10 16t-2 12t-16.5 -17.5t-27.5 -53t-29.5 -66t-20.5 -59.5z" />
<glyph unicode="7" horiz-adv-x="727" d="M164 641q-57 -2 -84 11.5t-4 33.5q6 6 38.5 12.5t73.5 10.5l99 8l39 63q8 12 24.5 36t37 52.5t43 59t44.5 61.5q45 59 77 102.5t32 45.5t-47.5 2h-112.5q-55 0 -89 1t-55.5 5t-36 11t-34.5 22q-74 49 -55.5 65.5t118.5 -10.5q31 -8 51.5 -12t41 -4t47 5t69.5 13 q51 10 105.5 26.5t83.5 26.5q29 12 56.5 18.5t43.5 2.5q18 -4 36.5 -15.5t34 -25t26 -27.5t10.5 -27q0 -41 -56.5 -134t-183.5 -259q-35 -47 -74 -100t-76.5 -105.5t-70.5 -99.5t-54 -80q-88 -135 -144 -215t-94 -119t-62.5 -45t-49.5 11q-16 10 -10 57t30.5 115.5 t64.5 154.5t93 174l43 74zM387 616q27 35 39 57.5t6 18.5q-8 -4 -22.5 -21.5t-30.5 -39.5q-14 -23 -30.5 -46.5t-26.5 -39.5q-10 -14 -13.5 -21.5t2.5 -3.5t28.5 32.5t47.5 63.5zM430 766q-41 -49 -83 -105.5t-79 -107.5t-64.5 -94t-39.5 -66q-29 -53 -23 -56t37 50 q14 23 46 69t65 89t61.5 83t36.5 52t44 60t77 102q160 207 141 207q-4 0 -27.5 -30t-54.5 -73q-16 -20 -34.5 -44.5t-37 -49.5t-36 -47.5t-29.5 -38.5z" />
<glyph unicode="8" horiz-adv-x="768" d="M68 584q27 53 62.5 102t72.5 89t73.5 67.5t69.5 38.5l49 16l-26 43q-31 51 -28 113.5t38 109.5q45 57 107.5 94t115.5 33q55 -2 104.5 -29.5t83 -68.5t47 -90t-2.5 -94q-6 -16 -27 -51t-47.5 -74t-54 -77t-46.5 -61q-18 -20 -20 -33.5t8 -41.5q16 -47 15.5 -97.5 t-16 -99.5t-45.5 -94t-71 -82q-121 -104 -226 -139t-189 6q-66 31 -91.5 75t-23.5 126q0 31 3 52t10 44.5t19.5 51.5t35.5 71zM98 514q-12 -35 5.5 -23.5t35.5 50.5q10 23 27.5 54.5t34.5 53.5q43 66 50 80t-5 6q-6 -4 -28.5 -33.5t-47.5 -67.5t-46.5 -73t-25.5 -47z M475 1061q-16 -47 -1 -96.5t52 -71.5q18 -10 37 -18.5t27 -8.5t22.5 21.5t30.5 52.5q18 41 25.5 78t7.5 84q0 61 -4 73.5t-29 12.5q-16 0 -43 -13.5t-52.5 -33t-46 -42t-26.5 -38.5zM530 678q-12 33 -19 49t-20.5 11t-38 -32.5t-69.5 -82.5q-51 -63 -86 -114.5t-53.5 -94.5 t-23.5 -82t1 -76q10 -47 37 -45t102 55q150 106 181 258q6 25 8 42.5t1 33.5t-6.5 34.5t-13.5 43.5zM322 709q53 61 59 79.5t-41 -28.5q-35 -33 -72 -82t-67.5 -103.5t-52 -105.5t-25.5 -88q-4 -39 -2 -36t22 54q10 31 32 76t40 80q16 35 48 80t59 74z" />
<glyph unicode="9" horiz-adv-x="831" d="M176 145q-137 37 -168 107q-27 70 37 70q33 0 55 -43q18 -35 58.5 -59.5t79.5 -24.5q47 0 112.5 83.5t163.5 272.5l88 168l-51 -39q-59 -45 -118.5 -64.5t-114 -15.5t-99.5 33t-72 80q-33 59 -22.5 141t53.5 165t113.5 155.5t157.5 115.5q123 61 234.5 61.5t203.5 -61.5 q49 -35 65 -18q8 8 26.5 12t38 2t40 -9t35.5 -20q41 -33 35.5 -83t-58.5 -154q-47 -92 -107.5 -188.5t-126 -189.5t-133 -177t-130 -150.5t-116 -110.5t-89.5 -57q-29 -10 -50.5 -15t-41 -5t-43 4t-56.5 14zM627 514q18 16 10 25q-8 8 -19 -19q-4 -14 -2.5 -15t11.5 9z M874 944q-4 2 -28.5 -40t-59.5 -103t-67.5 -118.5t-46.5 -80.5l-33 -51l39 45q16 18 51 75.5t70 119.5q33 61 55 106t20 47zM307 993q6 20 23 17q14 -4 14 8q-4 20 0 31.5t14 5.5q12 -6 7 16q-8 23 6 14q6 -4 19 9.5t30 38.5q14 23 26.5 37t16.5 10t6 -2t2 8t15.5 20.5 t37.5 30.5q43 29 40 34t-50 -20q-25 -12 -57.5 -42.5t-66.5 -71.5t-66.5 -86t-53.5 -86q-20 -37 -35.5 -74t-24.5 -63.5t-11 -42t8 -9.5q12 6 12 23q0 12 12.5 41.5t26.5 58.5t27.5 50.5t17.5 15.5q12 -18 19 6q10 25 -7 14q-14 -8 -8 8zM336 938q2 2 14 20.5t29 40.5l39 56 l-43 -47q-18 -20 -30.5 -39t-12.5 -25q0 -14 4 -6zM430 686q37 18 84 56t94 86.5t92 100.5t78 100t50.5 86t13.5 59q-10 45 -29.5 48t-79.5 -32q-59 -35 -127.5 -101.5t-126 -142.5t-95.5 -147.5t-38 -114.5q0 -27 15.5 -27t68.5 29z" />
<glyph unicode=":" horiz-adv-x="575" d="M199 444q12 -2 28.5 -16t29.5 -34.5t22.5 -43t9.5 -41.5q0 -35 -33 -87t-82 -95q-23 -18 -39 -38.5t-20 -33.5q-10 -25 -21.5 -24.5t-46.5 26.5q-37 27 -45 90q-6 43 11.5 97.5t47 100.5t67.5 74.5t71 24.5zM461 997q43 -49 30.5 -110.5t-77.5 -124.5 q-25 -25 -50.5 -54.5t-45 -58t-32 -53.5t-12.5 -39q0 -33 -23.5 -23.5t-39.5 50.5q-10 25 -14 52.5t0 49.5q4 25 22.5 70t42 93t48 89t38.5 55q29 27 59.5 28t53.5 -24z" />
<glyph unicode=";" horiz-adv-x="681" d="M233 375q-12 80 56 6q55 -59 62 -140t-38 -153q-14 -23 -45.5 -52.5t-68.5 -56t-71 -45t-52 -18.5q-16 0 -31.5 5t-19.5 13q-51 63 8 99q39 23 76.5 66.5t67.5 94t46 99.5t10 82zM575 887q6 -39 -20.5 -91.5t-91.5 -138.5q-23 -27 -37 -49t-14 -30q0 -29 -22.5 -16 t-33.5 50q-8 25 -10 66t1 85t10.5 83t19.5 61q20 39 51 70t49 31q10 0 25.5 -12.5t31 -31t26.5 -39t15 -38.5z" />
<glyph unicode="&#x3c;" horiz-adv-x="727" d="M354 387q-72 8 -114.5 15.5t-72.5 17.5t-51.5 26.5t-45.5 40.5q-37 37 -57.5 92.5t-10.5 96.5q4 20 79 58t189 81q102 37 174 73t136 79q35 23 64.5 39t37.5 16q10 0 22.5 -12.5t21.5 -30.5t15.5 -39.5t6.5 -42.5q0 -37 -35 -79t-93.5 -82t-135 -73.5t-160.5 -54.5 q-145 -37 -35 -51q14 -2 60 -11t101.5 -20.5t109.5 -22.5t85 -20q10 -2 23.5 -14t25 -27.5t18.5 -33t7 -29.5q0 -8 -28.5 -11t-78 -2t-116 6t-142.5 15zM311 686q39 23 71 43.5t47 32.5t11 12t-37 -18q-72 -41 -114.5 -64.5t-64 -38t-23.5 -18.5t8 -4q4 0 33.5 16t68.5 39z M485 793q25 8 17 16q-6 6 -25 -8q-19 -18 8 -8zM309 745q-51 -31 -82.5 -50t-47 -30.5t-18.5 -15.5t5 -4q4 0 35.5 17.5t72.5 42.5q113 68 180.5 111.5t67.5 47.5q0 2 -10 -1t-34.5 -17.5t-66 -39t-102.5 -61.5z" />
<glyph unicode="&#x3e;" horiz-adv-x="831" d="M727 860q27 -16 46.5 -54t28.5 -80t5 -80t-25 -52q-33 -25 -63.5 -46.5t-68.5 -43t-84 -45t-109 -51.5q-39 -18 -81 -38t-82 -38.5t-73 -33.5t-53 -26q-80 -39 -110.5 -45t-45.5 15q-6 8 -9 26.5t-3 40.5q0 12 1 21.5t8 19.5t25.5 24.5t56.5 39t97.5 61.5t149.5 92 q41 27 78 50.5t64.5 42t44 30.5t16.5 15q0 4 -7.5 10t-17.5 10q-16 6 -46 23.5t-63.5 40t-65.5 46t-52 42.5q-29 27 -49.5 58.5t-28.5 60t-3 48t28 19.5q8 0 43.5 -12.5t78.5 -30.5q20 -8 49 -19.5t60 -23.5t59.5 -24.5t53.5 -22.5q47 -20 90 -40t57 -30zM190 344 q0 -4 27 15.5t61.5 45t69.5 53t51 42.5q23 18 13 18q-4 0 -40 -25.5t-76 -58.5t-73 -60.5t-33 -29.5zM463 481q12 12 1 7t-31.5 -19t-46.5 -32.5t-42 -33.5q-29 -25 -23.5 -22.5t52.5 33.5q31 23 57.5 42t32.5 25zM492 561q12 18 -19 0q-12 -6 -23.5 -15t-15.5 -16 q-8 -14 21 0q10 6 21.5 15.5t15.5 15.5zM498 856q72 -70 93 -83t-30 40q-16 18 -46 43t-52 43q-25 18 -15.5 6t50.5 -49z" />
<glyph unicode="?" horiz-adv-x="831" d="M168 12q16 -8 32.5 -23.5t22.5 -29.5q10 -20 4 -38.5t-39 -61.5q-23 -29 -43 -62t-30 -53q-45 -82 -95 -14q-12 16 -17 30.5t-3 30.5t12.5 41t28.5 64q25 49 40 76.5t28.5 40t27 11t31.5 -11.5zM1137 1106q0 -70 -16.5 -129t-59.5 -119.5t-118 -129.5t-189 -157 q-55 -43 -112.5 -92t-111 -99t-99.5 -97t-79 -84q-18 -23 -29.5 -34t-21.5 -14.5t-21.5 2t-27.5 15.5q-12 10 -21.5 20.5t-9.5 18.5q0 16 21.5 60t53.5 96.5t69.5 106.5t72.5 91q6 6 36 39t65 74q104 117 170.5 196.5t106.5 140t59.5 109.5t29.5 105q4 29 6 50t-2 25 q-6 6 -27.5 7.5t-48 -1.5t-55 -11.5t-51.5 -20.5q-55 -29 -103.5 -72t-85 -94t-60 -108.5t-29.5 -112.5q-6 -68 -18.5 -76t-41.5 39q-12 23 -12 45.5t10 77.5q43 209 205 370q63 63 114.5 98.5t97.5 40.5t91 -17.5t98 -71.5q74 -68 109 -136.5t35 -150.5zM969 924l-37 -33 q-35 -33 -45 -19q-10 16 12 25q23 8 23 33q0 27 18 41q8 8 18.5 29.5t18.5 47t11 48t-1 32.5q-4 8 -6 2t-2 -22q-2 -16 -6 -26.5t-8 -10.5t-17.5 -17.5t-25.5 -41.5q-31 -59 -94.5 -140t-145.5 -167q-37 -39 -72 -75t-45 -50l-28 -35l30 26q12 10 25.5 15.5t19.5 1.5 q16 -8 13 8q-4 18 12 18q8 0 17.5 6.5t17.5 14.5q25 25 -2 8q-23 -14 -8 6q10 14 20 8q4 -4 13.5 1.5t17.5 15.5q12 16 12 18t-12 -6q-18 -10 -11 4q12 18 21 10q4 -4 23.5 11.5t42 39t44 47t29.5 40.5q12 25 23 12q4 -6 -12.5 -32.5t-43.5 -57.5l-65 -74l70 72 q29 31 59.5 65.5t42.5 53.5zM991 958q6 10 9.5 19.5t-1.5 9.5q-4 0 -10 -9t-12 -20q-14 -29 -8 -28q8 -1 22 28z" />
<glyph unicode="@" horiz-adv-x="1409" d="M1282 848q12 -33 19.5 -73t10.5 -81t-1 -81t-13 -74q-14 -57 -47.5 -119t-78 -118t-96.5 -101t-105 -72q-88 -43 -170 -28.5t-131 81.5q-12 16 -23.5 41t-15.5 41q-8 53 -16.5 57.5t-43.5 -24.5q-45 -37 -70.5 -56.5t-43 -28.5t-32.5 -10t-40 1q-59 4 -106.5 34.5 t-69.5 77.5q-10 20 -14.5 50t-2 62t9.5 62.5t19 55.5q31 59 86 111.5t121 86.5q27 12 46.5 20.5t37.5 13.5t37.5 7t46.5 4t45 1t35.5 -4t35 -8t40.5 -13l71 -31l35 29q14 10 28.5 19.5t20.5 9.5q23 0 53.5 -20.5t36.5 -39.5q4 -12 3 -29.5t-12 -48t-32.5 -80t-56.5 -124.5 q-35 -74 -55.5 -119t-29.5 -75t-10 -47.5t3 -33.5q6 -25 24.5 -27t73.5 17q39 12 79 44t75 77t62.5 100t45.5 117q10 35 15.5 82t4.5 95t-7 93t-19 76q-43 117 -153.5 181.5t-262.5 64.5q-59 0 -107 -9.5t-96 -32t-97.5 -61.5t-110.5 -96q-55 -55 -96 -105.5t-71 -103.5 t-48.5 -111.5t-30.5 -130.5q-23 -127 -13.5 -221t52.5 -180q14 -31 27.5 -52.5t29 -37.5t35 -28.5t47.5 -26.5q20 -10 35.5 -15.5t32 -8.5t38 -4t52.5 -1q33 0 53.5 1t37.5 6t34.5 12.5t42.5 19.5q39 18 66.5 26.5t39 5.5t4 -15.5t-37.5 -33.5q-76 -51 -179.5 -65t-195.5 12 q-39 10 -66.5 20.5t-52.5 24t-47.5 31.5t-50.5 43q-57 53 -98.5 128t-57.5 155q-6 31 -7 81t2 103t8 103.5t15 82.5q14 53 32 96.5t42.5 83t57 78.5t79.5 86q63 63 118.5 106.5t110 71t111 41t123.5 17.5q109 6 217.5 -17.5t199.5 -70.5t159.5 -112.5t97.5 -141.5zM188 793 q29 41 44.5 61t19.5 28.5t1 6.5t-9 -8t-24.5 -30t-37 -49.5t-32 -46t-11.5 -20.5q4 0 17.5 16.5t31.5 41.5zM272 1004q16 16 24.5 26t4.5 10t-18.5 -13t-33 -33.5t-36.5 -43t-31 -43.5q-20 -31 -46.5 -80t-51.5 -99t-42 -92t-19 -56q-4 -29 2 -11q2 10 21.5 53.5t47.5 96.5 q53 106 96 175t82 110zM866 569q0 4 -8 -8t-18.5 -28.5t-18.5 -33t-8 -20.5t8 6.5t19 30.5q10 18 18 33.5t8 19.5zM307 485q16 23 46 59t55 62q25 25 48 44.5t29 21.5q14 6 9 14q-4 4 -29 -16.5t-56.5 -51t-62.5 -65.5t-45 -57q-35 -53 -32 -59.5t38 48.5zM449 571 q-12 -10 -25.5 -24.5t-17.5 -24.5q-8 -16 -3 -12t43 51l33 37zM659 489q8 16 25.5 48t34.5 55q23 35 28 52.5t-2 27.5q-10 23 -29.5 18.5t-60.5 -37.5q-37 -29 -74.5 -67.5t-71.5 -81.5t-60.5 -89t-40.5 -85q-25 -63 -20 -70.5t52 16.5q23 12 57.5 40t67.5 60t59.5 63.5 t34.5 49.5zM725 326q0 -10 6 0t14 32q10 23 28 68t34 86t32.5 77t24.5 46q14 27 10 31t-16 -16.5t-28.5 -54.5t-35 -76t-34 -81t-25.5 -69.5t-10 -42.5z" />
<glyph unicode="A" horiz-adv-x="1685" d="M100 440q-25 -12 -35 -12t-24 14q-29 31 -16.5 62t61.5 60.5t130 54t190 40.5l114 19l123 153q55 68 130 151t153 163t151.5 148.5t126.5 111.5q109 86 198 133t181 68q-59 12 -112.5 20t-94.5 12q-51 2 -119.5 -8t-141.5 -30.5t-142.5 -46t-120.5 -50.5 q-53 -27 -114.5 -76t-120 -107t-106.5 -117.5t-73 -108.5q-51 -106 -59 -185.5t22 -154.5q10 -29 -13 -25t-60 35q-39 33 -63.5 81t-34 106.5t-4.5 121t28 121.5q16 43 45 92t68 99.5t84 97.5t92 88q45 41 80.5 68.5t40.5 27.5q4 0 22.5 11.5t40.5 21.5q147 57 285.5 80.5 t262.5 20.5t231.5 -27.5t194.5 -58.5t149.5 -75t95.5 -75q2 -4 4 -5t4 -6q27 -29 37 -52t-5.5 -61t-60.5 -104.5t-129 -181.5q-74 -102 -130 -184t-100 -160t-82 -157t-77 -171q-18 -41 -29.5 -70.5t-18.5 -57t-12.5 -58.5t-11.5 -72q-6 -45 -3 -86t15.5 -71.5t32 -48 t43.5 -17.5q23 -2 22 -5t-28 -26q-25 -20 -58.5 -24t-68.5 6t-69.5 34.5t-61.5 61.5q-10 12 -15 24.5t-8 30t-3 42v63.5q0 43 3 76.5t12 73.5t25.5 95.5t45.5 139.5q2 10 0 15t-21.5 7t-61.5 1t-118 -3l-207 -8l-229 -239q-139 -145 -251 -242.5t-207 -155t-177 -75 t-162 -3.5q-106 18 -164 82q-16 16 -22.5 41t-6.5 70q0 72 18.5 99.5t67.5 27.5q29 0 38.5 -5t9.5 -26q0 -14 8 -38.5t20.5 -49t26.5 -47t26 -35.5q18 -16 30.5 -16t49.5 20q37 18 89.5 59.5t110.5 97.5t119.5 123.5t119.5 139.5q29 37 48 64.5t17 31.5q-4 2 -42 -7 t-87 -24.5t-96.5 -32t-65.5 -26.5zM803 1620q16 8 14 16.5t-18 12.5q-59 -10 -112.5 -36t-99.5 -60.5t-85 -75.5t-70 -82q-74 -98 -127 -215q0 -33 40 30.5t138 198.5q49 68 101.5 107.5t98.5 61t79 30t41 12.5zM987 1724q10 -2 16.5 0t2.5 7q-6 10 -27 2q-21 -9 8 -9z M1219 1696q16 2 16 3t-16 5q-8 4 -17.5 11t-13.5 14q-8 16 -21 4q-4 -6 -1 -12.5t11.5 -11.5t20 -9t21.5 -4zM195 170q10 10 15 18.5t3 8.5q-4 0 -13.5 -8.5t-19.5 -18.5q-25 -29 -18 -29q8 0 33 29zM838 838q16 20 24 33.5t0 9.5q-6 -2 -46 -51.5t-91 -114.5 q-51 -66 -95 -122t-57 -69q-12 -12 -37.5 -40.5t-50.5 -57.5q-23 -29 -57.5 -65.5t-56.5 -61.5q-25 -25 -41.5 -45.5t-16.5 -24.5t20.5 14.5t54.5 52.5t77 82t90 101q18 23 38.5 46.5t39 45t33 40t22.5 30.5q35 51 71 98.5t79 98.5zM891 909q10 8 25.5 25.5t27.5 34.5 q33 47 21.5 38.5t-52.5 -59.5q-20 -25 -26 -36t4 -3zM1339 584q6 18 -6 12q-14 -8 -14 -23q0 -14 6 -10.5t14 21.5zM1491 868q14 27 15 32t-11 -11t-37.5 -60.5t-50.5 -91.5t-41 -84t-12 -37t19.5 31t37.5 72q23 41 45.5 85t34.5 64zM1599 1044q14 27 14.5 31t-9 -7 t-24.5 -35.5t-34 -57.5q-20 -35 -21 -40t17 17q10 16 27.5 42.5t29.5 49.5zM1655 1128q8 8 9 14.5t-5 6.5q-14 0 -23 -21q-8 -23 -4 -22q9 -1 23 22zM1415 1214q-16 -14 -46 -43.5t-69.5 -67.5t-85 -82t-88.5 -87l-217 -213l144 -8q59 -4 103 -8.5t48 -8.5q23 -23 48.5 -1 t60.5 93q10 20 33.5 60.5t55.5 92.5t69.5 110.5t74.5 115.5t70 107.5t57.5 89.5t37.5 61.5t11 22.5q-2 2 -37.5 -22.5t-85 -61.5t-100.5 -79t-84 -71zM1006 1051q-25 -29 -19 -29q8 0 33 29q10 10 15 19t3 9q-4 0 -13 -9zM872 961q-16 -20 -17 -23.5t15.5 13t54.5 56.5 t101 105q55 57 88 94t25 31q-8 -4 -43 -38t-77 -78t-83 -88.5t-64 -71.5zM737 793q-39 -55 -16.5 -34t88.5 105q23 29 25 35t-15 -8q-14 -12 -38 -40.5t-44 -57.5zM604 621q-53 -63 -117.5 -138t-124.5 -141q-86 -90 -108.5 -116.5t-5.5 -12.5q12 8 61 59.5t109 116.5 q51 55 101 112.5t89 105.5t61.5 78t16.5 30q-4 0 -27.5 -27.5t-54.5 -66.5z" />
<glyph unicode="B" horiz-adv-x="1366" d="M240 766q-39 33 -63.5 81t-34 106.5t-4.5 121t28 121.5q16 43 45 92t67.5 99.5t84 97.5t92.5 88t81.5 68.5t38.5 27.5t22.5 9.5t41.5 23.5q59 37 135 63.5t156 40t154.5 12.5t134.5 -18q82 -25 148.5 -71t113.5 -109.5t72.5 -139t25.5 -157.5q0 -80 -25.5 -149.5 t-84 -139t-153.5 -142.5t-233 -159q-41 -27 -70.5 -45t-31.5 -18q-2 -2 13.5 -19.5t37.5 -42.5q25 -25 47.5 -57.5t40 -68.5t29.5 -72.5t18 -69.5q12 -86 -29.5 -171t-129.5 -153q-96 -76 -218 -129t-246 -80.5t-240 -26.5t-200 36q-35 14 -72.5 37.5t-56.5 44.5 q-31 35 -56 92t-38.5 110.5t-10.5 91t28 33.5q14 -4 19 -19.5t5 -62.5q2 -106 57.5 -172.5t150.5 -90t224 -3t279 89.5q74 35 138.5 85t110.5 108.5t73.5 122t27.5 125.5v45t-5 26t-15.5 16.5t-30.5 16.5q-23 10 -68 20.5t-88 14.5l-104 6l-64 -68q-68 -76 -125 -148.5 t-100 -133t-66.5 -105.5t-23.5 -67q0 -63 -72 -25q-23 12 -39 45t-23 74t-4 87t17 87q10 29 44 86t82 131t107.5 159t124.5 171q51 68 84 110.5t54.5 73.5t36 54.5t32.5 52.5q29 49 56.5 101t50 97t37 77t14.5 40q0 27 24.5 19.5t55.5 -35t60.5 -67.5t39.5 -77 q25 -90 -12 -193.5t-145 -244.5q-39 -51 -67 -88t-28 -41t30 13.5t75 47t100 66.5t105 74q164 121 249.5 240.5t85.5 230.5q0 96 -65.5 142t-216.5 56q-102 8 -210 -15.5t-212 -74.5q-51 -27 -113.5 -76t-121 -107t-106.5 -117.5t-73 -108.5q-51 -106 -59 -185.5t22 -154.5 q10 -29 -13 -25t-60 35zM713 913q12 16 19 29.5t3 13.5t-14 -13t-23 -30q-12 -16 -19 -28.5t-3 -12.5t14.5 12.5t22.5 28.5zM770 993q12 16 11 17.5t-17 -11.5q-10 -8 -17.5 -15t-7.5 -9q0 -19 31 18zM811 1073q0 -16 29 19q14 16 13 17t-17 -11q-25 -19 -25 -25zM1026 229 q8 -14 -18 -14q-29 0 -52 -43q-8 -16 -27.5 -44t-37.5 -50l-45 -51l41 24q16 10 38.5 27.5t35.5 32.5q14 14 21 28.5t3 18.5q-12 16 2 12q10 -6 14 6q2 6 9.5 14.5t17.5 16.5q25 16 6 29q-14 7 -8 -7zM1081 1735q-10 -10 9.5 -23.5t42.5 -13.5q14 2 14 3t-14 5 q-10 4 -18.5 11t-12.5 14q-11 14 -21 4zM891 1735q-20 -8 8 -9q12 -2 17.5 0.5t1.5 6.5q-7 10 -27 2zM182 1044q0 -10 9.5 7.5t23.5 54.5q14 35 36.5 79t39.5 68q25 37 66.5 80t93 86t105.5 83t108 71q61 35 126.5 59.5t129 36.5t117 10t89.5 -18q20 -10 36 -15.5t20 -0.5 q4 4 -15.5 16t-50.5 27q-41 18 -62.5 24t-35.5 -2q-23 -12 -29 2q-4 12 -48 2t-108.5 -37.5t-140.5 -67.5t-145 -85q-47 -31 -94 -72t-89 -88t-77 -96t-58 -97q-20 -41 -34.5 -79t-12.5 -48z" />
<glyph unicode="C" horiz-adv-x="958" d="M-96 113q-12 29 -19.5 50t-11.5 45.5t-4 56.5v81q2 96 20.5 190.5t58.5 191.5t100.5 201.5t146.5 221.5q178 248 335.5 395.5t315.5 218.5q29 12 51.5 20.5t44 11.5t47 4t60.5 -1q37 -2 60.5 -5t41.5 -8t33.5 -15.5t34.5 -24.5q125 -94 124 -221q0 -70 -32.5 -149 t-86 -154.5t-121 -142t-137 -112.5t-135 -64.5t-114.5 1.5q-16 6 -34.5 19.5t-33 28t-24 28.5t-9.5 25q0 8 12.5 13t28.5 5q35 2 84.5 29.5t101.5 74t102 104.5t89 122q49 80 81 150.5t32 101.5q0 29 -38 19.5t-151 -69.5q-90 -47 -185 -121.5t-184 -166.5t-167 -198.5 t-133 -213.5q-43 -84 -77 -184.5t-54.5 -202.5t-25.5 -196.5t7 -161.5q8 -49 15.5 -77t19.5 -41t31.5 -15.5t50.5 2.5q41 6 105.5 37.5t134 78.5t136 102.5t109.5 106.5q25 31 47.5 40t22.5 -13q0 -10 -28.5 -42t-71.5 -73t-94.5 -85t-96.5 -77q-141 -104 -242.5 -130.5 t-197.5 12.5q-66 27 -106.5 66.5t-69.5 109.5zM451 1241q12 18 11 19.5t-18 -13.5q-25 -20 -24 -28q0 -10 8.5 -4t22.5 26zM-29 563q-31 -117 -25.5 -122t40.5 106q16 55 36.5 114.5t32.5 88.5q16 39 30.5 68.5t27 55t27 49t30.5 50.5t42 66.5t44 70.5q18 29 36.5 49.5 t24.5 16.5q18 -8 11 12q-2 8 3 19.5t13 21.5t17.5 16t15.5 4q8 -4 8 15q0 20 21 20q18 0 22 25q2 12 18.5 33.5t43 49t61.5 57.5t72 58q147 111 147 133q0 4 -9 -1t-24 -17q-12 -12 -50 -42t-79 -60q-20 -14 -45.5 -37t-53.5 -48.5t-55.5 -53t-47.5 -52.5q-49 -55 -76 -86 t-41.5 -49t-23.5 -32.5t-21 -35.5q-10 -20 -40 -68t-61 -100q-66 -109 -105.5 -201t-66.5 -194z" />
<glyph unicode="D" horiz-adv-x="1513" d="M92 1034q-2 49 7.5 85t35.5 93q18 39 46 84t56.5 85t52 67t34.5 27q6 0 0.5 -11.5t-19.5 -27.5t-4 -9t37 33q29 25 48.5 44.5t19.5 23.5t-10.5 -4t-24.5 -23q-16 -14 -26.5 -18t-10.5 2t22.5 27.5t54 47t65.5 50t54 35.5q14 6 31 16t25 16q18 14 54 30.5t81 31t94 26 t90 17.5q121 14 214 0.5t165 -60.5t125 -129t94 -202q14 -45 20.5 -97.5t6.5 -148.5q0 -59 -1 -97t-7 -72t-18.5 -73t-33.5 -100q-49 -143 -105 -246.5t-138 -204.5q-63 -78 -121.5 -134t-124.5 -102t-145.5 -85t-186.5 -82q-53 -20 -87 -31.5t-64.5 -19t-62.5 -9.5t-79 -4 q-63 -4 -127.5 0t-105.5 15q-98 20 -154.5 52t-81.5 79q-23 47 -17.5 61t38.5 -8q10 -8 32.5 -15.5t43.5 -11.5q31 -6 37 -4t-3 19q-4 10 -8 44t-2 70q0 35 6 68t21.5 70.5t42 89t69.5 123.5q12 20 38 58t53.5 76t51 67.5t32.5 35.5q4 4 18 22.5t31 41.5q16 23 30.5 41 t16.5 22q4 4 23.5 27.5t41.5 56.5q12 14 32 39t42.5 52.5t47 57t46.5 56.5q39 45 77 95t66.5 92t44 71t11.5 33t-27.5 -2t-54.5 -17q-121 -37 -224.5 -109.5t-176 -161.5t-105.5 -186.5t-14 -185.5q10 -41 8 -50t-20 -9q-25 0 -50.5 24.5t-46 63.5t-34 88t-13.5 98zM166 408 q6 12 16.5 21t20.5 9q18 0 10 25q-8 20 6 14q6 -4 19.5 3t27.5 24q14 16 18.5 23.5t-5.5 2.5q-8 -4 -6.5 -1t12.5 14q25 20 41 12q6 -4 5 1t-9 15q-18 25 -5 17q12 -8 17.5 4t1.5 35q-2 6 0 7t6 -3q10 -10 33 8q12 10 11 4t-15 -29l-25 -43l29 35q10 14 18 28.5t6 18.5 q0 12 27 29q53 33 39 53q-8 12 6 8q8 -2 29.5 16.5t43 43t37 48t13.5 32.5q-8 20 6 10q6 -4 15.5 4t18.5 19.5t14 23.5t1 18q-8 8 8 21q16 8 7 -8q-12 -20 -9.5 -20.5t15 14t32 39t39.5 53.5q25 37 35 57.5t0 9.5q-18 -16 -19 -14t9 25q8 14 17.5 21t13.5 3q10 -6 14 6.5 t0 32.5q0 14 16 37q23 27 -6 2q-23 -16 -23.5 -10t19.5 47q10 16 15.5 35.5t5.5 31.5t-9.5 -1t-23.5 -44q-39 -82 -113 -187t-196 -257q-31 -37 -65 -78t-64.5 -79t-56 -69.5l-42.5 -52.5q-31 -39 -66.5 -87t-64 -92t-48 -75.5t-19.5 -39.5q0 -4 11 8t26.5 32.5t32 45.5 t26.5 43zM1370 918q-2 8 -18.5 -20t-40.5 -73q-29 -55 -63 -107t-78 -108.5t-103 -120t-135 -139.5q-68 -70 -103.5 -108.5t-15.5 -26.5q18 14 67.5 58t98.5 96q45 45 99.5 105.5t100.5 116.5t76.5 99t30.5 53q0 14 10 19q6 2 18.5 24.5t25 49t21.5 50.5t9 32zM1315 1442 q-16 29 -88 44t-193 15h-127l49 -69q47 -70 62.5 -125.5t3.5 -112.5q-6 -29 -15.5 -51.5t-33 -55t-66.5 -84t-116 -137.5q-129 -150 -239 -282.5t-188.5 -237t-123.5 -173.5t-45 -89q0 -10 28.5 -8t75.5 14q63 18 139 57t152 90.5t147.5 113t128.5 126.5q109 123 189 234.5 t135 216t88 205t45 202.5q4 37 2 66t-10 41zM1090 1702q-27 8 -27 -6q0 -12 27 -13q29 0 28 7q1 4 -28 12zM311 1348q-10 0 -36.5 -34t-52 -75t-42 -79t-10.5 -44q4 -4 14.5 12.5t22.5 40.5q31 59 58.5 94t27.5 15t20 8q20 25 21 10q0 -6 -7.5 -15t-15.5 -17.5t-17 -13.5 t-11 -1q-4 4 -10.5 -7t-14.5 -32q-20 -45 -4 -36q18 8 -6 -11q-18 -16 -26.5 -50t-18.5 -122l-8 -69l26 90q10 39 27.5 87t34.5 77q27 51 72.5 107t103 110.5t124 103.5t132 87t129 63.5t114.5 31.5q68 8 84.5 22.5t-49.5 8.5q-23 -4 -40 -2t-17 6t11 8t28 4q37 2 12 9 q-25 6 -78 -7.5t-117.5 -39t-131 -62.5t-121.5 -76q-109 -78 -164.5 -131t-46.5 -73q6 -16 25.5 -3t76.5 70q197 190 361 250q41 16 64.5 22.5t16.5 2.5q-4 -6 -26.5 -16.5t-48.5 -20.5q-70 -29 -166 -94.5t-189 -151.5q-45 -41 -76.5 -68.5t-31.5 -23.5q0 8 -21 -6 q-18 -16 -20 -5t16 29q16 17 2 17z" />
<glyph unicode="E" horiz-adv-x="1323" d="M23 -113q-47 -6 -64.5 -1t-46.5 38q-18 18 -30.5 41t-12.5 39q0 25 21.5 52.5t56.5 54t77 46t85 27.5q18 4 27 8.5t15.5 13.5t10.5 25.5t10 47.5q14 74 49 157.5t88 165.5l49 78h-41q-33 0 -45 18.5t-12 63.5q0 33 49 70.5t125 64.5q29 10 55.5 21.5t34.5 19.5 q10 8 35 42t54.5 82t63.5 102.5t61.5 104.5t48 89t24.5 55q2 10 2 16.5t-11 9.5t-36 3h-68q-57 0 -99 6t-72.5 19.5t-53 36t-41.5 57.5q-37 70 -29.5 87t66.5 11q29 -4 69 1t74 15q80 25 195 44.5t229.5 31.5t214 14t150.5 -10q70 -14 136.5 -50t118.5 -83t84 -99.5 t32 -101.5q0 -31 -11.5 -29.5t-46.5 35.5q-20 20 -48 33t-71 19q-20 2 -66 4t-103.5 3t-120 1t-115.5 -2t-88 -4t-37 -6q-4 -2 3 -21.5t19 -46.5q29 -63 19 -122.5t-70 -147.5q-25 -39 -42 -67t-15 -30q10 0 25 2q12 2 27.5 4.5t33.5 6.5q35 6 99.5 9t123.5 -1q45 -2 74 -4 t46 -7.5t26.5 -11.5t17.5 -18q10 -12 17.5 -30.5t7.5 -28.5q0 -18 -15.5 -23.5t-79.5 -5.5q-41 0 -96 -6t-118.5 -16.5t-130 -24t-128.5 -29.5l-114 -31l-129 -147q-53 -61 -105.5 -122.5t-96.5 -116t-79 -98.5t-51 -69l-29 -43h297q111 0 172.5 -1t96 -4t55 -12t49.5 -24 q66 -35 95.5 -72.5t39.5 -97.5l8 -55l-33 27q-27 20 -48 31.5t-51 16.5t-72 5t-109 -4q-78 -4 -148.5 -11.5t-138 -18.5t-136.5 -28.5t-144 -39.5q-61 -16 -123.5 -33t-91.5 -21zM831 98q-10 -4 -7 -6t16 -2q25 0 18 8q-4 4 -11.5 4t-15.5 -4zM903 1184q12 25 19.5 41 t3.5 16t-14.5 -16.5t-20.5 -40.5q-12 -25 -19.5 -42.5t-3.5 -17.5t14.5 17.5t20.5 42.5zM1417 1700q-23 -2 -21.5 -4t25.5 -10q14 -4 25.5 -8.5t13.5 -4.5q4 -4 -4 13q-4 6 -15.5 10t-23.5 4zM1333 1696q-6 -4 -1 -6t20 -2q14 0 19 2t-3 6q-17 8 -35 0zM1266 1696 q-10 -4 -7 -6t15 -2q10 -2 16 0t2 6q-8 8 -26 2zM1165 1681q-6 -4 -1 -6t20 -2q14 0 19 2t-3 6q-17 8 -35 0zM1034 1681q-16 -4 -5 -5t42 -1q70 0 39 6q-16 4 -38 4t-38 -4zM758 1579q29 4 70.5 7t70.5 3t49.5 3t16.5 7q-6 12 28.5 18.5t141.5 10.5q334 8 385 -24 q14 -8 14 0q0 4 -15.5 13t-37.5 19q-16 6 -36 11.5t-49.5 7.5t-73.5 2h-110q-90 -2 -156.5 -5t-72.5 -7q-10 -6 -4 10q12 18 -29 6q-37 -6 -45 -23q-4 -12 -16 -12q-14 0 -6 14q8 16 -15 17q-10 0 -13 -5t1 -12q8 -16 -41 -10q-23 4 -35 2t-8 -8q6 -10 -20 -14 q-12 0 -25.5 -2t-17.5 -4q-6 -2 -19.5 -3.5t-25.5 -3.5q-23 -2 -24 -4t19 -12q10 -4 40 -5t59 3zM621 862q-14 -18 -7 -18q4 0 35 43t72 102q20 31 40.5 62.5t39 61.5t33 54.5t20.5 38.5q16 29 29.5 54.5t17.5 31.5q6 6 11.5 31t9.5 51q6 41 5 47t-12 -16q-18 -47 -55 -122 t-80 -154.5t-85.5 -152.5t-73.5 -114zM555 762q-18 -29 -29.5 -48.5t-7.5 -19.5t18.5 19.5t30.5 48.5q18 29 29.5 47t7.5 18t-18.5 -18t-30.5 -47zM106 49q-31 -18 -6 -10q10 4 53.5 15.5t92.5 23.5q35 8 68.5 14t72.5 10t86 6.5t113 2.5q174 0 179 10t-169 14 q-72 2 -145.5 -4t-139 -17.5t-119 -28t-86.5 -36.5z" />
<glyph unicode="F" horiz-adv-x="1003" d="M371 1087q0 4 27.5 45.5t66.5 98.5q45 63 73.5 104t44 65.5t20.5 36t3 13.5t-23.5 -1t-50.5 -7t-86 -8t-110 -4q-74 0 -112 6t-72 22q-47 23 -80 59.5t-45 84.5q-6 27 0 31.5t47 4.5q29 0 74 6.5t99 16.5t110.5 23.5t109.5 29.5q104 31 229 50.5t245 25.5t219.5 -3 t152.5 -34t107.5 -72t97.5 -104t70.5 -116.5t27.5 -104.5q0 -35 -10.5 -50.5t-22.5 -13.5t-25.5 21.5t-19.5 54.5q-14 74 -119.5 116t-279.5 42q-55 0 -119 -4t-118 -10.5t-90 -14.5t-36 -14q0 -4 8.5 -21.5t20.5 -36.5q92 -152 -113 -419q-23 -29 -38 -51.5t-13 -24.5 q2 0 34 -3t79 -7q125 -10 182 -28t80 -56q31 -51 25.5 -65.5t-52.5 -4.5q-23 4 -69 6t-104 2t-119.5 -3t-112.5 -7l-88 -8l-76 -103q-63 -86 -129 -193.5t-120 -210t-88 -185t-34 -117.5q0 -66 -65 -41q-43 16 -61.5 61t-18.5 137q0 37 2 65t8 53.5t16.5 54t26.5 69.5 q10 27 24.5 58.5t28 63.5t27.5 61.5t24 52.5q23 43 36.5 74.5t8.5 29.5q-4 0 -32.5 -5t-65.5 -15q-33 -6 -52 -10.5t-30.5 -3.5t-18.5 7.5t-16 16.5q-51 61 19 125q16 14 49 31.5t72 32t75.5 23.5t59.5 9q49 0 77.5 20.5t69.5 79.5q25 35 41.5 60.5t16.5 29.5zM770 1667 q12 4 14 8t-8 4q-8 0 -22.5 -4t-26.5 -8q-25 -12 -6 -12q8 0 22.5 4t26.5 8zM573 1692q-14 -6 -9 -6t30 4q23 4 44 10t34 10q31 14 -21 4q-20 -4 -43 -10t-35 -12zM461 1667q-27 -12 -6.5 -12t55.5 12q23 6 24 8t-16 2q-12 2 -28.5 -2t-28.5 -8zM315 1624q-27 -16 21 -4 q16 4 30.5 7t16.5 7q6 4 -2 5t-20.5 -1t-26 -6t-19.5 -8zM293 1542q25 0 18 6q-6 10 -26 2q-10 -4 -7 -6t15 -2zM209 1575q10 -8 20.5 -11t33 0t65.5 14t121 32q168 47 261 72.5t132 33.5t33.5 3t-35.5 -19q-16 -8 -20.5 -11t5.5 1q18 6 70.5 9t110 4t105.5 -1t58 -8 q41 -23 43 -9.5t-38 37.5q-31 20 -61 27.5t-81 7.5q-35 0 -58.5 4t-19.5 8q10 12 -18 3q-10 -4 -26.5 -7.5t-26.5 -3.5q-29 4 -45 -12q-18 -16 -41 -8q-10 4 -14.5 3t-0.5 -5q2 -4 -28.5 -15.5t-77.5 -26t-105.5 -30.5t-113 -29.5t-96.5 -22.5t-56 -9q-18 0 -29.5 -4.5 t-7.5 -10.5t-6 -7t-33 3q-33 6 -35.5 5t15.5 -17zM666 1640q14 0 19 2.5t-3 6.5q-18 4 -35 0q-8 -4 -2.5 -6.5t21.5 -2.5zM365 1554q20 0 20 15q0 4 -6 6t-14 -2q-23 -8 -23 -12q0 -7 23 -7zM455 1583q20 12 7 12t-42 -12t-6 -12q8 -2 19.5 2t21.5 10zM602 1626q31 14 -20 4 q-23 -4 -45.5 -10t-32.5 -12q-14 -6 -9 -6t29 4q20 4 43 10t35 10zM655 1317q-4 -6 -26.5 -40t-56 -83t-75.5 -107.5t-83 -113.5q-47 -61 -90 -123t-77 -110t-52.5 -78.5t-14.5 -30.5t23.5 26.5t48.5 63.5q27 39 49.5 67.5t30.5 32.5q6 4 8 3t-5 -13t-24.5 -37.5 t-48.5 -68.5q-27 -37 -45 -69t-20 -40q0 -20 -13 -29q-4 -4 -7 -11t-3 -13t14.5 9t32.5 44t50 73t57 79q25 33 46 54t25 17q12 -8 23 10q10 16 -8 5q-18 -8 -13 10q8 18 25 14q18 -4 10 8q-4 6 5.5 23.5t22.5 36t27.5 33t20.5 12.5q12 -4 6 10q-4 8 -1 18.5t9 17.5t15.5 11 t15.5 0t7 -2t-3 8t12.5 38t40 71t47 72.5t33.5 39.5q12 8 13 29q0 10 -17.5 -5t-42.5 -46q-72 -88 -97.5 -115.5t-12.5 -1.5q6 10 16 24.5t20 22.5q20 14 21 31q0 6 10 22.5t25 32.5q16 16 25.5 36t9.5 30q-1 25 -9 2z" />
<glyph unicode="G" horiz-adv-x="1153" d="M1147 1599q104 -104 89 -238t-151 -278q-68 -72 -105.5 -92t-59.5 2q-10 10 -16.5 19.5t-6.5 13.5t20.5 35t49.5 67q25 35 50 82t45.5 93.5t33 86.5t12.5 64q0 31 -23.5 33t-101.5 -21q-35 -10 -81 -34.5t-96 -58.5t-99.5 -72.5t-88.5 -77.5q-61 -61 -125.5 -143.5 t-123 -173.5t-109.5 -184t-84 -179q-37 -94 -51 -189.5t-4 -165.5q4 -20 7 -31.5t9 -17.5t16.5 -7t28.5 -1q23 0 56.5 10.5t73.5 28.5t83 42t82 52q20 16 36.5 30.5t31 32t27 38t26.5 49.5q18 41 41 83t35 62t20 36.5t4 20.5q-2 2 -35.5 -5t-79.5 -18t-95.5 -25.5 t-81.5 -24.5q-12 -4 -25.5 5t-23 24.5t-13.5 32t4 28.5q23 35 81 57.5t165 38.5q98 14 180 12t140.5 -17t91 -43t32.5 -67q0 -12 -7 -13t-30 7q-39 14 -60 13.5t-5 -17.5q16 -16 19 -39.5t-8 -64.5t-39.5 -102.5t-73.5 -149.5q-78 -152 -143.5 -262.5t-125 -186t-114 -120 t-105.5 -58.5q-33 -10 -73 -15t-78.5 -5t-73.5 4t-55 14q-16 6 -37 22.5t-39.5 36t-30.5 37t-12 27.5q0 18 25.5 11t50.5 -34q59 -66 182 -8q33 14 60.5 37t53 54.5t50 77.5t53.5 112q31 70 47 110.5t19.5 59t-6 17.5t-29.5 -13q-123 -82 -216.5 -99.5t-170.5 27.5 q-61 35 -107.5 110t-69 169t-20.5 195.5t33 191.5q20 57 47.5 116.5t53.5 105.5t46.5 72.5t28.5 18.5q10 -10 6 2q-6 20 35 78.5t106.5 130.5t143 145.5t147.5 122.5q184 133 351 145.5t280 -98.5zM39 442q6 10 0 29q-6 12 -8 -10q0 -27 8 -19zM57 510q6 8 10.5 20.5 t4.5 20.5q0 14 -2 14t-13 -14q-4 -8 -8 -20.5t-4 -20.5q0 -14 2 -14t10 14zM813 578q0 -6 -18.5 -50.5t-44.5 -99.5q-14 -29 -33 -67.5t-38.5 -80.5t-40 -84t-36.5 -77q-16 -37 -35.5 -76t-37 -76t-33 -67.5t-25.5 -51.5q-45 -86 -46 -99t40 44q16 25 28.5 43.5t12.5 22.5 t30.5 68.5t71.5 152.5q94 197 145.5 302t71 152.5t17.5 53.5t-15 6q-14 0 -14 -16zM639 309q-31 -68 -52.5 -116t-17.5 -48t29 49.5t59 118.5q35 70 54.5 119t15.5 49q-12 0 -12 -4t-21.5 -53t-54.5 -115zM541 111q-8 -12 -14.5 -24.5t-6.5 -16.5q0 -6 6 -2t15 14 q20 25 20 41q0 13 -20 -12zM512 20q4 14 -6 -2t-27 -53q-18 -37 -30.5 -65.5t-12.5 -32.5q0 -6 11.5 12.5t23.5 45t24.5 54t16.5 41.5zM596 1434l-14.5 -14.5t-6.5 -8.5q0 -6 21 2q23 8 22 23q1 12 -22 -2zM510 1356q-33 -29 -42 -39t1 -10q2 0 15.5 13t29.5 32l41 45z M432 1280q-35 -29 -18 -29q6 0 24 25q12 16 11 17t-17 -13zM688 1417q111 72 118 83t-95 -48q-135 -78 -242 -183.5t-205 -252.5q-43 -66 -68.5 -107t-41 -71.5t-24.5 -58t-19 -66.5q-10 -35 -18.5 -68t-12.5 -45q-4 -16 12 14q8 16 22.5 53.5t24.5 71.5q14 47 47 110.5 t76 131.5t92 132.5t97 111.5q45 47 112.5 101t124.5 91z" />
<glyph unicode="H" horiz-adv-x="1728" d="M1503 532q-31 -68 -49 -116.5t-28.5 -92.5t-14.5 -91.5t-4 -110.5q0 -119 13.5 -162t54.5 -43q29 0 30.5 -3t-18.5 -17q-61 -49 -189 22q-37 20 -62.5 36.5t-43.5 34t-32.5 39t-29.5 50.5q-29 59 -37 144t9 157q8 41 26.5 89t45.5 103q-10 -2 -30 -3t-44 -5 q-33 -4 -67 -8t-60 -6q-70 -8 -133 -23l-138 -184q-61 -84 -103 -145.5t-67.5 -106.5t-36 -79t-10.5 -60q0 -23 -3 -38t-7 -15q-4 2 -31.5 18t-62.5 39q-78 53 -105.5 86t-19.5 68q4 20 15.5 53t25.5 66.5t30.5 66.5t28.5 53q10 18 16.5 30.5t10.5 20.5q-25 -8 -55.5 -18 t-60 -21.5t-54.5 -23.5t-39 -25q-16 49 -12 92q4 37 25.5 76t82.5 62q20 10 43 18t52 14q37 12 70.5 22.5t60.5 16.5q12 10 24 31t35 57q12 20 41 64.5t66.5 102t81.5 125t90 134.5q80 119 132 199t84.5 129t46 72.5t17.5 34.5q-66 37 -194 45q-102 6 -210 -16.5t-212 -76.5 q-53 -27 -114.5 -74.5t-120 -106t-106.5 -118t-73 -108.5q-51 -106 -59.5 -185t22.5 -155q10 -29 -13.5 -25t-60.5 35q-39 33 -63.5 81t-34.5 105.5t-4 120t29 121.5q16 43 44.5 93.5t67.5 100.5t83 97t91 88t83 67.5t40 26.5t22.5 10.5t41.5 24.5q59 37 135 63.5t154.5 40 t153.5 12.5t134 -18q117 -37 205 -114q59 -33 100 -107q12 -20 18.5 -36.5t10.5 -38t4 -53v-81.5q0 -47 -1 -79.5t-6 -59.5t-12 -53.5t-20 -59.5q-29 -76 -93 -179t-155 -218l-45 -59l289 35q88 156 212 330.5t263 332.5q33 37 55.5 64.5t18.5 31.5q10 12 21 27 q8 12 17 29.5t15 40.5q35 -16 61.5 -42t49.5 -71q23 -43 26 -87t-15.5 -96.5t-59.5 -119t-109 -154.5q-72 -94 -118 -156.5t-77.5 -111.5t-54 -93.5t-47.5 -99.5zM813 1743q-10 -10 9.5 -23.5t41.5 -11.5q25 0 0 8q-20 8 -30 23q-9 16 -21 4zM625 1745q-12 -8 8 -10 q27 0 18 8q-8 8 -26 2zM915 1655q4 4 -15 15t-50 28q-41 18 -62.5 23t-35.5 -1q-25 -16 -29 2q-4 12 -48 2t-108.5 -37.5t-140.5 -67.5t-145 -85q-47 -31 -94.5 -72t-89.5 -88t-77.5 -96t-58.5 -96q-18 -41 -32.5 -79t-14.5 -48t10 7t25 54q14 35 36.5 79t39.5 67 q25 37 66.5 80.5t91.5 87t105.5 83t108.5 70.5q61 35 127 59.5t129.5 37t116.5 10.5t90 -21q20 -10 35.5 -14t19.5 0zM881 1008q-119 -176 -196 -293t-120 -184.5t-55 -92t0 -16.5q8 4 21.5 22.5t23.5 40.5q10 23 53 88.5t92 137.5q432 629 412 649q-4 4 -16.5 -15.5 t-28.5 -48.5q-8 -14 -26.5 -43.5t-44 -68.5t-55 -85t-60.5 -91zM848 702q4 -4 15 9.5t22 36.5q10 23 31.5 55.5t41.5 56.5q47 61 39 84q-10 20 0 14q6 -6 22.5 11.5t34 42t30 48t8.5 30.5q-4 8 -2 9t8 -3q25 -16 18 43q-2 6 3 14t11 12q14 8 7 -8q-12 -18 4 -8t12 27 q-4 6 0 24.5t12 38.5q23 59 12.5 50t-49.5 -81q-10 -18 -29.5 -51t-46 -74t-57 -87t-61.5 -91t-60.5 -89t-54 -81t-43 -63.5t-24.5 -38.5q-14 -23 -27.5 -44.5t-17.5 -25.5q-16 -23 -55.5 -82t-80.5 -126.5t-74.5 -126t-39.5 -74.5q-16 -41 -4 -28t47 77q88 152 102 133 q4 -4 4 1t-4 15q-12 29 8 15q18 -8 11 4q-10 14 12 22q10 4 14 12.5t0 16.5q-8 23 2 18q12 -4 13 9q2 12 24 26q10 6 34.5 38t50.5 70t45.5 70.5t19.5 42.5q0 14 12 6zM1468 643q16 35 25.5 59.5t5.5 24.5t-16.5 -24.5t-28.5 -59.5t-25.5 -59.5t-5.5 -24.5t16.5 24.5 t28.5 59.5zM1415 629q10 16 16.5 32.5t6.5 20.5q0 6 -6.5 0t-13.5 -17.5t-15 -25.5t-12 -27q-10 -29 -1 -23.5t25 40.5zM1499 797q23 18 23 32q0 16 -15 2q-6 -6 -17 -25.5t-23.5 -41t-20.5 -39.5t-8 -23q0 -6 6 0.5t14 17.5t14.5 24.5t6.5 19.5t6 16.5t14 16.5zM1540 786 q6 23 4 24t-16 -19q-16 -23 -19.5 -38.5t11.5 -4.5q4 4 10 15t10 23zM1522 866q0 -16 8 -11t20 30q12 23 11.5 24.5t-17.5 -12.5q-22 -19 -22 -31zM1618 924q18 33 26.5 49t-2.5 6q-8 -10 -25.5 -37t-32.5 -53.5t-23.5 -45t0.5 -9.5q6 4 23.5 30.5t33.5 59.5zM1573 944 q-4 -8 -5 -14t1 -6t8 6l14 14q16 20 2 21q-14 -1 -20 -21zM1280 629q-4 0 6 24.5t30.5 65.5t50.5 96t65 117q37 66 88 135.5t112 140.5q41 47 44 52.5t-27 -19.5q-31 -25 -65 -63.5t-68.5 -86t-69.5 -103.5t-66 -114q-16 -29 -36.5 -69.5t-36.5 -69.5q-18 -35 -41 -84 t-44.5 -95t-36 -81t-14.5 -39q2 -4 14.5 19.5t31.5 62.5q18 37 35.5 66.5t23.5 33.5q14 11 4 11zM1360 524q20 25 20 41q0 14 -5 7t-21 -40q-10 -25 -10 -26.5t16 18.5zM1401 498q10 10 16 22t6 19q0 4 -6 0t-14 -15q-20 -25 -21 -41q-2 -4 4.5 0.5t14.5 14.5z" />
<glyph unicode="I" horiz-adv-x="1087" d="M1272 1524q18 -55 18 -119q0 -57 -14 -113.5t-51 -129t-101.5 -168t-165.5 -232.5q-55 -76 -120.5 -172t-128 -191.5t-112.5 -175.5t-73 -121q-82 -152 -122 -215t-52 -63q-2 0 -22.5 19.5t-48.5 45.5q-29 27 -46.5 49.5t-20.5 51t10.5 70.5t47 110t89 167t137.5 243 q29 51 44 78.5t33.5 57t47 74t81.5 125.5q20 33 43 68t42.5 65.5t34 55t22.5 37.5q16 27 54 87t77 122q41 59 73.5 116.5t41.5 75.5l10 27q-66 29 -180 37q-102 6 -210 -16.5t-212 -76.5q-53 -27 -114.5 -74.5t-120 -106t-106.5 -118t-73 -108.5q-51 -106 -59.5 -185 t22.5 -155q10 -29 -13.5 -25t-60.5 35q-39 33 -63.5 81t-34.5 105.5t-4 120t29 121.5q16 43 44.5 93.5t67.5 100.5t83 97t91 88t83 67.5t40 26.5t22.5 10.5t41.5 24.5q59 37 135 63.5t154.5 40t153.5 12.5t134 -18q109 -33 193 -104q74 -53 112 -139q4 -10 9.5 -20.5 t9.5 -20.5zM813 1743q-10 -10 9.5 -23.5t41.5 -11.5q25 0 0 8q-20 8 -30 23q-9 16 -21 4zM625 1745q-12 -8 8 -10q27 0 18 8q-8 8 -26 2zM915 1655q4 4 -15 15t-50 28q-41 18 -62.5 23t-35.5 -1q-25 -16 -29 2q-4 12 -48 2t-108.5 -37.5t-140.5 -67.5t-145 -85 q-47 -31 -94.5 -72t-89.5 -88t-77.5 -96t-58.5 -96q-18 -41 -32.5 -79t-14.5 -48t10 7t25 54q14 35 36.5 79t39.5 67q25 37 66.5 80.5t91.5 87t105.5 83t108.5 70.5q61 35 127 59.5t129.5 37t116.5 10.5t90 -21q20 -10 35.5 -14t19.5 0zM760 786q14 16 13 17.5t-17 -12.5 q-25 -18 -25 -23q0 -17 29 18zM788 827q16 18 9 27q-6 6 -17 -18q-6 -16 -4 -17.5t12 8.5zM983 1133l-35 -43q-25 -29 -33 -45.5t3 -16.5q4 0 13 14.5t21 36.5z" />
<glyph unicode="J" horiz-adv-x="1323" d="M1307 1618q78 -72 93 -207t-36 -307q-18 -63 -60 -156.5t-93.5 -191t-104.5 -183.5t-94 -135q-10 -10 -39 -47t-64 -78q-49 -61 -118.5 -138t-140 -149.5t-132 -132t-96.5 -86.5q-127 -96 -223.5 -128.5t-155.5 -0.5q-18 10 -42 30t-44 41.5t-33.5 41t-13.5 29.5 q-49 51 -39 123.5t76.5 172t187.5 228.5t291 293q100 98 181 149.5t142.5 67.5t105.5 7t75 -30q29 55 61.5 121t62 127.5t54.5 113.5t37 85q14 37 28.5 75t25.5 71.5t18.5 56t7.5 28.5q0 2 2 9q0 4 1 9t3 13q-66 53 -225 66q-104 6 -212 -16.5t-210 -76.5 q-53 -27 -115.5 -74.5t-121 -106t-106.5 -118t-73 -108.5q-51 -106 -59.5 -185t22.5 -155q12 -29 -12.5 -25t-61.5 35q-39 33 -63.5 81t-33.5 105.5t-4 120t28 121.5q16 43 45.5 93.5t67.5 100.5t83 97t92 88t83 67.5t40 26.5t21.5 10.5t40.5 24.5q59 37 135 63.5t155.5 40 t154.5 12.5t134 -18q86 -27 155 -75.5t116 -116.5zM899 1743q-10 -10 9.5 -23.5t41.5 -11.5q25 0 0 8q-18 6 -30 23q-11 14 -21 4zM711 1745q-14 -8 8 -10q27 0 18 8q-12 8 -26 2zM1001 1655q4 4 -16 15t-51 28q-72 35 -96 22q-25 -14 -31 2q-4 12 -48 2t-108.5 -37.5 t-140.5 -67.5t-145 -85q-47 -31 -94.5 -72t-89.5 -88t-76.5 -96t-57.5 -96q-20 -41 -33.5 -79t-13.5 -48t10 7t25 54q14 35 35.5 79t38.5 67q25 37 66.5 80.5t92.5 87t105.5 83t107.5 70.5q61 35 128 59.5t129.5 37t116.5 10.5t89 -21q20 -10 36.5 -14t20.5 0zM90 -193 q43 33 103.5 90.5t130 131t142.5 158.5t142.5 172t132 172t109.5 159q12 20 30.5 53t41.5 76q-33 12 -82 7t-119 -41.5t-163 -113.5t-212 -212q-133 -150 -210 -258.5t-112.5 -184t-41 -122t4 -72t23.5 -34.5l13 -9q12 -4 26 3t41 25zM930 487q14 29 8 29t-20 -29 q-6 -10 -9.5 -19t0.5 -9t9.5 9t11.5 19zM1139 852q12 25 12 26t-16 -18q-10 -12 -16.5 -24.5t-6.5 -16.5q0 -14 5.5 -7t21.5 40zM1118 870q23 41 47.5 97.5t44 108.5t30.5 91t7 43q-2 2 -10 -17t-18 -50q-18 -57 -61.5 -146.5t-101 -194t-125 -218t-137 -221t-137 -202.5 t-122.5 -163q-66 -78 -73 -89t38 34q31 31 68.5 72.5t60.5 70.5t41 46.5t22 12.5q4 -4 13.5 1.5t17.5 15.5q12 16 11 17t-17 -11q-29 -23 -18.5 -1.5t73.5 122.5q63 98 86 126.5t12 -1.5q-10 -25 -3 -24t22 30q18 31 2 20q-20 -12 -12 10.5t53 96.5q25 43 45 66.5t27 19.5 q14 -10 6 6q-10 14 0 34.5t24 18.5q4 0 14.5 9.5t20.5 23.5q10 16 11 22.5t-7 0.5q-20 -12 -12 10t57 112z" />
<glyph unicode="K" horiz-adv-x="1705" d="M2181 1520q35 -51 32 -75t-42 -15q-39 8 -118 -18t-204 -89q-70 -35 -156.5 -83t-173.5 -100.5t-165 -102.5t-127 -87l-107 -80l70 -26q29 -10 61.5 -31.5t48.5 -42.5q35 -39 52.5 -86t17.5 -115.5t-16.5 -168t-48.5 -240.5q-23 -92 -35.5 -155.5t-17.5 -103.5t-3 -63.5 t11 -36.5q27 -45 215 140q82 80 108.5 98t26.5 -4q0 -10 -35 -48t-81 -82t-91 -82t-68 -50q-31 -16 -52 -22.5t-39.5 -4.5t-38 14.5t-44.5 34.5q-37 33 -59.5 61.5t-35.5 64.5t-17.5 83t-4.5 117q0 33 1.5 69.5t3.5 70.5t4 63.5t4 48.5q6 41 9 91t4 99t0 93t-5 73 q-6 27 -22.5 30t-39 -11.5t-51 -41t-55.5 -57.5q-68 -76 -145 -188q-37 -55 -73 -109.5t-65.5 -101.5t-53 -85t-36.5 -63q-82 -152 -122 -215t-52 -63q-2 0 -22.5 19.5t-48.5 45.5q-29 27 -46.5 49.5t-20.5 51t10.5 70.5t47 110t89 167t137.5 243q29 51 44 78.5t33.5 57 t47 74t81.5 125.5q20 33 43 68t42.5 65.5t34 55t22.5 37.5q16 27 54 87t77 122q41 59 73.5 116.5t41.5 75.5l10 27q-66 29 -180 37q-102 6 -210 -16.5t-212 -76.5q-53 -27 -114.5 -74.5t-120 -106t-106.5 -118t-73 -108.5q-51 -106 -59.5 -185t22.5 -155q10 -29 -13.5 -25 t-60.5 35q-39 33 -63.5 81t-34.5 105.5t-4 120t29 121.5q16 43 44.5 93.5t67.5 100.5t83 97t91 88t83 67.5t40 26.5t22.5 10.5t41.5 24.5q59 37 135 63.5t154.5 40t153.5 12.5t134 -18q109 -33 193 -104q74 -53 112 -139q4 -10 9.5 -20.5t9.5 -20.5l-2 -2q18 -55 18 -119 q0 -57 -14 -112.5t-51 -127.5l182 156q6 4 27.5 18.5t44.5 32.5q66 51 133 96t130.5 79t118 54.5t91.5 24.5q66 6 130 -23.5t99 -82.5zM813 1743q-10 -10 9.5 -23.5t41.5 -11.5q25 0 0 8q-20 8 -30 23q-9 16 -21 4zM625 1745q-12 -8 8 -10q27 0 18 8q-8 8 -26 2zM915 1655 q4 4 -15 15t-50 28q-41 18 -62.5 23t-35.5 -1q-25 -16 -29 2q-4 12 -48 2t-108.5 -37.5t-140.5 -67.5t-145 -85q-47 -31 -94.5 -72t-89.5 -88t-77.5 -96t-58.5 -96q-18 -41 -32.5 -79t-14.5 -48t10 7t25 54q14 35 36.5 79t39.5 67q25 37 66.5 80.5t91.5 87t105.5 83 t108.5 70.5q61 35 127 59.5t129.5 37t116.5 10.5t90 -21q20 -10 35.5 -14t19.5 0zM760 786q14 16 13 17.5t-17 -12.5q-25 -18 -25 -23q0 -17 29 18zM788 827q16 18 9 27q-6 6 -17 -18q-6 -16 -4 -17.5t12 8.5zM983 1133l-35 -43q-25 -29 -33 -45.5t3 -16.5q4 0 13 14.5 t21 36.5zM1186 614q-6 12 -6 -18q0 -31 6 -18q8 18 0 36zM1124 420q0 -10 -5 -50t-11 -85q-6 -51 -10 -100.5t-4 -86.5t3 -55t9 -8q2 4 10 8q-4 18 0 51q4 23 6 72l4 98q4 51 6.5 86t6.5 33q4 0 4 -48t-4 -114q-4 -78 -7.5 -118t-5.5 -56q2 -2 4.5 -2t6.5 -2q6 -4 9 -4t-1 6 q-4 4 0 53t12 113q20 168 25.5 255t-6.5 87q-4 0 -8.5 15.5t-4.5 37.5q0 61 -9 39t-13 -94q-4 -63 -2 -69.5t16 24.5q20 39 21 16q2 -10 -5.5 -24.5t-17.5 -24.5q-25 -24 -29 -53zM1288 1167q0 -2 15.5 7.5t43 26t64.5 40t78 51.5q41 27 83 54.5t80 50t67.5 40t45.5 25.5 q31 16 66 30.5t51 18.5t25.5 8.5t5.5 8.5q-8 8 -62.5 -12.5t-126 -58.5t-149.5 -85t-133 -90q-20 -16 -49 -35.5t-52 -36.5q-23 -14 -38 -26.5t-15 -16.5zM1366 1169q6 12 -14 7q-16 -8 -20.5 -14.5t11.5 -6.5q15 0 23 14zM1790 1432q68 39 66.5 45t-68.5 -29 q-20 -10 -56 -31.5t-79 -48.5t-88 -55.5t-83 -53t-62.5 -42t-26.5 -21.5q-4 -6 15 4t50 31q31 23 79 51.5t85 50.5q35 23 84 52t84 47zM1896 1479q10 -2 16.5 0t2.5 6q-6 10 -27 2q-10 -4 -7 -6t15 -2z" />
<glyph unicode="L" horiz-adv-x="1409" d="M817 940q8 12 14.5 20.5t10.5 4.5t-2 -12.5t-17 -18.5q-18 -16 -19 -16.5t13 22.5zM1149 203q78 -23 128 -84.5t50 -132.5q0 -43 -11 -46t-40 31q-16 16 -40 27.5t-67 18t-109.5 8.5t-166.5 2q-78 0 -125 -1t-88 -6.5t-87 -16.5t-118 -30q-94 -23 -172 -50t-119 -50 q-37 -20 -66.5 -34.5t-33.5 -14.5q-6 0 -18.5 12t-24.5 31q-41 59 -53.5 99t4.5 77q18 43 66 79t145 73q0 10 4 27.5t14 41.5q14 39 32.5 77t44.5 82t59.5 98t82.5 128q16 23 29.5 44.5t28.5 41.5q33 49 66.5 95.5t75.5 102.5t98.5 129t135.5 175q117 150 164 216.5t41 70.5 l6 12q4 6 8.5 13t8.5 18q-61 29 -182 39q-102 6 -210 -16.5t-212 -76.5q-53 -27 -114.5 -74.5t-120 -106t-106.5 -118t-73 -108.5q-51 -106 -59.5 -185t22.5 -155q10 -29 -13.5 -25t-60.5 35q-39 33 -63.5 81t-34.5 105.5t-4 120t29 121.5q16 43 44.5 93.5t67.5 100.5t83 97 t91 88t83 67.5t40 26.5t22.5 10.5t41.5 24.5q59 37 135 63.5t154.5 40t153.5 12.5t134 -18q121 -37 201 -112q10 -6 19.5 -15.5l23.5 -23.5q41 -41 68 -105q8 -20 12 -28l-2 -2q23 -70 14 -131q-6 -61 -27.5 -118.5t-66.5 -131.5t-121 -171.5t-192 -236.5q-35 -43 -72 -88 t-72 -86t-63.5 -76.5t-44.5 -56.5q-35 -45 -71 -88t-52 -61q-4 -4 -7 -8.5t-8 -8.5l140 10q10 -6 39.5 -8t85.5 -4q41 -2 95 -7t109.5 -13.5t105.5 -18.5t85 -18zM813 1743q-10 -10 9.5 -23.5t41.5 -11.5q25 0 0 8q-20 8 -30 23q-9 16 -21 4zM625 1745q-12 -8 8 -10 q27 0 18 8q-8 8 -26 2zM915 1655q4 4 -15 15t-50 28q-41 18 -62.5 23t-35.5 -1q-25 -16 -29 2q-4 12 -48 2t-108.5 -37.5t-140.5 -67.5t-145 -85q-47 -31 -94.5 -72t-89.5 -88t-77.5 -96t-58.5 -96q-18 -41 -32.5 -79t-14.5 -48t10 7t25 54q14 35 36.5 79t39.5 67 q25 37 66.5 80.5t91.5 87t105.5 83t108.5 70.5q61 35 127 59.5t129.5 37t116.5 10.5t90 -21q20 -10 35.5 -14t19.5 0zM492 199q-18 4 -35 0q-8 -4 -3 -6.5t21 -2.5q14 0 19.5 2.5t-2.5 6.5zM537 508q18 16 10 24t-17 -18q-11 -29 7 -6zM606 608q8 16 6 20.5t-18 2.5 q-25 -4 -19 -29q2 -23 -12 -14q-18 12 -8 -4q18 -31 51 24zM969 1163q0 4 -18.5 -19.5t-47.5 -60.5q-41 -55 -68.5 -94t-43 -63.5t-20.5 -38t-3 -17.5q6 -10 -10 -6q-8 2 -13.5 -4t-5.5 -16q4 -27 -8 -19q-4 2 -15 -8t-23.5 -25.5t-23 -32t-12.5 -26.5q-4 -20 -39 -49 q-33 -33 -14 -33q23 0 53 31q25 23 32 40t-15 5q-16 -10 -6 6q10 14 18 10q4 -2 20.5 13.5t37 41t43 57.5t41 60.5t28.5 49t8 24.5q-4 8 -4 10t4 -2q6 -6 18.5 5.5t25 29t19.5 35.5t5 29q-4 10 -3 13t7 -1q10 -6 30.5 11.5t39.5 47.5q8 14 6 14.5t-19 -12.5q-24 -18 -24 -6z M461 541q-49 -76 -71.5 -116t-16.5 -40q2 0 21.5 27.5t43.5 66.5q12 18 41 60.5t66 96.5t81 116.5t89 126.5q43 63 83 120.5t70.5 101.5t49 72.5t20.5 32.5q4 12 -1 9t-22.5 -26.5t-51.5 -69.5t-89 -122q-25 -35 -46 -63.5t-38.5 -50t-29 -33.5t-13.5 -10q-12 8 -8 -19 q0 -10 -4 -16t-12 -4q-16 4 -11 -10q6 -14 -6 -15q-14 0 -10 -16q0 -16 -14 -15q-18 4 -11 -16q4 -8 -1 -19.5t-15 -19.5t-19.5 -18t-11.5 -19q-2 -8 -20 -40.5t-43 -71.5zM328 147q27 10 6 11q-8 0 -22.5 -3t-26.5 -8q-25 -12 -6 -12q10 0 23.5 3t25.5 9zM453 152 q29 8 41 14t2 6q-12 0 -43 -8t-62 -19q-66 -23 -42 -20.5t104 27.5zM610 195q0 20 -45 20q-29 -2 -29.5 -4t23.5 -6q23 -4 25 -6t-19 -11q-18 -8 -17 -10t25 -2q37 -4 37 19zM678 207l41 10l43 10l-47 2q-18 0 -31.5 -3t-13.5 -9q0 -14 -25 -18q-10 -4 5.5 -5t47.5 -1 q43 0 49.5 2t-22.5 6zM913 217q27 0 19 8t-27 0q-15 -6 8 -8z" />
<glyph unicode="M" horiz-adv-x="2347" d="M2134 532q-31 -68 -49.5 -116.5t-28.5 -92.5t-14 -91.5t-4 -110.5q0 -119 13 -162t54 -43q29 0 31 -3t-18 -17q-61 -49 -189 22q-37 20 -62.5 36.5t-44 34t-32.5 39t-29 50.5q-29 59 -37 144t9 157q18 80 74.5 197.5t140.5 251t188.5 274.5t214.5 268q23 25 39 46.5 t27 33.5q-18 -8 -56.5 -43t-88.5 -85t-107.5 -111.5t-113.5 -123t-105.5 -118t-81.5 -97.5q-80 -96 -163 -204.5t-161 -213t-144.5 -198.5t-111.5 -164q-23 -35 -44 -61.5t-32 -26.5q-10 0 -32.5 14.5t-48 35t-50 44t-37.5 43.5q-33 47 -44 106.5t5 106.5q8 27 29 69 t46.5 88t52 90t49.5 75q16 20 30.5 41.5t20.5 32.5q37 66 94 156.5t114.5 177.5t105.5 158t69 95q18 23 13 32t-28 -11q-8 -8 -52 -45t-99 -84q-51 -43 -94 -80t-90.5 -80t-104.5 -96t-137 -129q-57 -55 -94 -90t-63.5 -61.5t-47 -51.5t-47.5 -55q-25 -29 -67 -88.5 t-86 -123t-79.5 -116.5t-43.5 -72q-8 -16 -30 -50l-44 -68q-33 -49 -51.5 -77t-28.5 -44.5t-14.5 -25.5t-6.5 -17q-8 -27 -25.5 -24t-58.5 34q-51 39 -83.5 76t-32.5 57q0 8 14 35t35 55q10 14 35.5 52t61.5 91.5t80 118t89 129.5q47 70 85 127.5t71 104.5q59 88 100 148.5 t70.5 101.5t50 69.5t41.5 55.5q31 41 74 101t85 121.5t76.5 114t49.5 76.5q-35 25 -87.5 38t-127.5 20q-102 6 -210 -16.5t-212 -76.5q-53 -27 -114.5 -74.5t-120 -106t-106.5 -118t-73 -108.5q-51 -106 -59.5 -185t22.5 -155q10 -29 -13.5 -25t-60.5 35q-39 33 -63.5 81 t-34.5 105.5t-4 120t29 121.5q16 43 44.5 93.5t67.5 100.5t83 97t91 88t83 67.5t40 26.5t22.5 10.5t41.5 24.5q59 37 135 63.5t154.5 40t153.5 12.5t134 -18q135 -41 221 -133q18 -16 42 -42.5t46.5 -57.5t39 -63.5t20.5 -59.5q8 -61 -3 -122.5t-26 -94.5q-16 -37 -19 -50 t28.5 10.5t108.5 90t218 189.5q66 57 117 96t57 39q14 0 33.5 -10.5t38 -25.5t35 -33.5t22.5 -37.5q18 -41 14 -89t-35.5 -117.5t-93 -168t-159.5 -237.5q-125 -180 -137.5 -210t98.5 105q147 184 280.5 325.5t240 238t181 149.5t105.5 62q20 6 30.5 9t16.5 2t12 -6t19 -18 q29 -16 48 -39.5t40 -60.5q23 -43 25.5 -87t-16 -96.5t-59 -119t-108.5 -154.5q-72 -94 -118 -156.5t-77.5 -111.5t-54 -93.5t-47.5 -99.5zM813 1743q-10 -10 9.5 -23.5t41.5 -11.5q25 0 0 8q-20 8 -30 23q-9 16 -21 4zM625 1745q-12 -8 8 -10q27 0 18 8q-8 8 -26 2z M915 1655q4 4 -15 15t-50 28q-41 18 -62.5 23t-35.5 -1q-25 -16 -29 2q-4 12 -48 2t-108.5 -37.5t-140.5 -67.5t-145 -85q-47 -31 -94.5 -72t-89.5 -88t-77.5 -96t-58.5 -96q-18 -41 -32.5 -79t-14.5 -48t10 7t25 54q14 35 36.5 79t39.5 67q25 37 66.5 80.5t91.5 87 t105.5 83t108.5 70.5q61 35 127 59.5t129.5 37t116.5 10.5t90 -21q20 -10 35.5 -14t19.5 0zM678 631q14 16 13 17t-17 -13q-39 -29 -21 -29q7 0 25 25zM762 741q14 16 13 17.5t-17 -10.5q-41 -31 -21 -31q4 0 10.5 7t14.5 17zM825 834q23 23 19 30q-8 4 -27 -24 q-12 -23 -11 -23.5t19 17.5zM907 944q16 16 26.5 28.5t6.5 16.5t-14.5 -7t-24.5 -30l-33 -45zM1006 1083q20 29 30.5 47.5t3.5 14.5q-6 -4 -22.5 -25.5t-33.5 -45t-29.5 -43t-8.5 -19.5t20.5 21t39.5 50zM1006 1153q41 59 64.5 95t35.5 54.5t14 24.5t0 6q-4 0 -45 -57 t-98 -139q-29 -41 -66 -92.5t-75.5 -104.5t-75.5 -104.5t-66 -92.5q-31 -41 -61.5 -83t-59 -81.5t-52 -72.5t-36.5 -51q-27 -39 -50 -73t-29 -42q-6 -10 -1 -6t19 20q16 16 48 59.5t65 88.5q33 47 59.5 85t34.5 46q10 12 35.5 47t59.5 82t74 101.5t77.5 107.5t71.5 101 t57 81zM1458 899q4 4 12.5 17.5t16.5 29.5q10 16 24.5 38t28.5 36q12 14 21.5 25.5t9.5 15.5q2 25 78 153q88 147 69 148q-2 0 -5 -5t-15 -24.5t-37 -60.5t-68 -113q-12 -25 -34.5 -60.5t-48 -77.5t-54.5 -86t-53 -85q-90 -139 -171 -267t-134 -218q-14 -23 -21.5 -38.5 t-3.5 -15.5q2 0 17.5 21.5t33.5 52.5q20 31 55 85t64 101q31 47 72 109.5t69 107.5q29 43 49.5 75t24.5 36zM2099 643q16 35 25.5 59.5t5.5 24.5t-16.5 -24.5t-28.5 -59.5t-25.5 -59.5t-5.5 -24.5t16.5 24.5t28.5 59.5zM2046 629q10 16 16 32.5t6 20.5q0 6 -6 0t-13 -17.5 t-15.5 -25.5t-12.5 -27q-10 -29 -0.5 -23.5t25.5 40.5zM2130 797q23 18 22 32q0 16 -14 2q-6 -6 -17.5 -25.5t-23.5 -41t-20.5 -39.5t-8.5 -23q0 -6 6.5 0.5t14.5 17.5t14 24.5t6 19.5t6.5 16.5t14.5 16.5zM2171 786q6 23 4 24t-16 -19q-16 -23 -19.5 -38.5t10.5 -4.5 q4 4 10.5 15t10.5 23zM2152 866q0 -16 8.5 -11t20.5 30q12 23 11 24.5t-17 -12.5q-23 -19 -23 -31zM2249 924q18 33 26.5 49t-2.5 6q-8 -10 -25.5 -37t-32.5 -53.5t-23.5 -45t-0.5 -9.5q6 4 24 30.5t34 59.5zM2204 944q-4 -8 -5 -14t1 -6t8 6l14 14q16 20 2 21 q-14 -1 -20 -21zM1911 629q-4 0 6 24.5t30.5 65.5t50.5 96t64 117q37 66 88.5 135.5t112.5 140.5q41 47 44 52.5t-28 -19.5t-64.5 -63.5t-68.5 -86t-69.5 -103.5t-65.5 -114q-16 -29 -36.5 -69.5t-37.5 -69.5q-18 -35 -40.5 -84t-44 -95t-36 -81t-14.5 -39q2 -4 14.5 19.5 t30.5 62.5q18 37 36 66.5t24 33.5q14 11 4 11zM1991 524q20 25 20 41q0 14 -5 7t-21 -40q-10 -25 -10 -26.5t16 18.5zM2032 498q10 10 16 22t6 19q0 4 -6 0t-14 -15q-20 -25 -21 -41q-2 -4 4.5 0.5t14.5 14.5z" />
<glyph unicode="N" horiz-adv-x="1792" d="M-27 764q-39 33 -63.5 81t-34.5 106.5t-4 121t29 121.5q16 43 44.5 92t67.5 99.5t83 97.5t91 88t83 68.5t40 27.5t22.5 9.5t41.5 23.5q59 37 135 63.5t154.5 40t153.5 12.5t134 -18q98 -29 175 -89t124 -144q29 -41 41.5 -92.5t3.5 -104.5q-35 -217 -209 -453 q-25 -35 -45 -63.5t-24 -38.5q-4 -6 30.5 25.5t82 77t96.5 92.5t75 73q4 4 33 29t66 59q18 16 44.5 41t57.5 52.5t61.5 56.5t57.5 53q68 63 114 101t76.5 58.5t51 25t39.5 -2.5q39 -16 65.5 -42.5t50.5 -73.5q23 -43 26 -86t-15.5 -96.5t-59.5 -120t-108 -154.5 q-72 -94 -118 -156.5t-78 -111.5t-54.5 -92t-46.5 -101q-31 -68 -49.5 -117t-28.5 -93t-13.5 -91t-3.5 -108q-2 -121 11.5 -163t54.5 -44q29 0 31 -2t-19 -19q-63 -47 -188 23q-37 20 -62.5 36.5t-44 34t-33 39t-28.5 50.5q-29 59 -37 144t8 159q18 80 74.5 196.5 t140.5 250.5t188.5 274.5t215.5 267.5q33 37 55.5 64.5t17.5 31.5q-6 6 -52 -26.5t-114.5 -87t-147.5 -123t-148 -134.5q-25 -23 -70 -68.5t-101.5 -106t-120 -130t-125 -137.5t-114.5 -128t-90 -103q-31 -35 -69.5 -91.5t-76.5 -119t-73 -124t-55 -106.5q-16 -39 -33 -65.5 t-23 -26.5t-27.5 14.5t-47.5 34.5q-55 43 -83 81t-28 84t28.5 109.5t84.5 159.5q51 90 116.5 193.5t129 201t119.5 178.5t93 126q57 70 112.5 144.5t99.5 140t74 114.5t36 70q-66 53 -227 65q-102 6 -210 -16.5t-212 -73.5q-53 -27 -114.5 -76t-120 -107t-106.5 -117.5 t-73 -108.5q-51 -106 -59.5 -185.5t22.5 -154.5q10 -29 -13.5 -25t-60.5 35zM1419 512q20 25 21 41q0 14 -5 7t-22 -40q-10 -25 -10 -25.5t16 17.5zM1460 485q10 12 16.5 23.5t6.5 17.5t-6.5 1t-14.5 -15q-20 -25 -20 -41q0 -4 5 0t13 14zM1450 600q-10 -29 -1 -23.5 t26 39.5q10 18 16 34t6 20q0 6 -6 0t-13.5 -17.5t-15.5 -26t-12 -26.5zM1528 633q16 35 25.5 59.5t5.5 24.5t-16.5 -24.5t-29.5 -59.5q-16 -35 -25 -59.5t-5 -24.5t16.5 24.5t28.5 59.5zM1561 786q8 6 14 16.5t6 16.5t-4 7t-8 -7q-6 -6 -18.5 -25.5t-25 -41t-20.5 -40 t-8 -22.5q0 -6 6 0t14.5 17.5t14.5 24.5t6 20q0 16 23 34zM1599 774q6 23 4.5 24t-16.5 -18q-16 -23 -19 -38t11 -7q4 4 10 15.5t10 23.5zM1581 854q0 -16 8 -10t21 28q12 23 11 25t-17 -12q-23 -19 -23 -31zM1679 911q16 33 24.5 49.5t-1.5 8.5q-8 -10 -25.5 -37t-33 -54.5 t-23.5 -46t0 -10.5q6 6 23.5 32.5t35.5 57.5zM1632 932q-4 -8 -5 -14.5t1 -6.5t8 6.5t15 14.5q18 23 2 22q-13 1 -21 -22zM1692 1196q41 47 44 52t-28 -19q-31 -25 -64.5 -64t-68.5 -86t-70 -103t-65 -114q-16 -29 -37 -69.5t-37 -69.5q-18 -35 -40.5 -84t-44 -95t-36 -81 t-14.5 -39q2 -4 15.5 20.5t29.5 61.5q18 39 35.5 68.5t23.5 33.5t7 7t-3 3t6.5 24t31 65t50 96t64.5 117q39 66 89.5 136t111.5 140zM754 709q47 68 97 140.5t91 133.5t66.5 102t23.5 43t-15 -13t-34.5 -41.5t-49.5 -63.5t-61 -80q-63 -86 -112 -151.5t-58 -76.5 q-14 -16 -14 -12t11.5 21.5t28.5 45t40 56.5q45 61 90 128t80 121t54.5 90t15.5 38q-14 4 -7 20q4 6 3.5 7.5t-5.5 -3.5q-6 -4 -9 -14t-3 -20q0 -23 -20 -19q-16 4 -11 -10q8 -10 -19.5 -56t-92.5 -139q-25 -33 -58.5 -79t-56.5 -76q-23 -33 -64.5 -92.5t-78.5 -110.5 q-37 -53 -72 -103.5t-45 -68.5q-12 -18 -23.5 -31.5t-15.5 -13.5q-10 0 -10 -21q0 -20 -19 -38q-16 -16 -27.5 -37t-17.5 -37.5t-4 -25.5t15 -1q14 8 6 -6q-10 -18 -23 -10q-14 10 -28.5 -13.5t-10.5 -52.5q4 -47 31 -29.5t72 95.5t125 197t215 307zM813 1733 q-4 -6 -1 -12.5t11 -11.5t19.5 -9t21.5 -4q14 2 14.5 3t-14.5 5q-8 4 -17 11t-13 14q-9 16 -21 4zM625 1733q-20 -8 8 -9q10 -2 16 0t2 7q-6 10 -26 2zM-39 1169q-18 -41 -32.5 -78.5t-14.5 -48.5q0 -10 10 7.5t25 54.5q14 35 36.5 79t39.5 68q25 37 66.5 80t91.5 86 t105.5 83t108.5 71q61 35 127 59.5t129.5 36.5t116.5 10t90 -18q20 -10 35.5 -15.5t19.5 -1.5t-15 16.5t-50 27.5q-41 18 -62.5 24t-35.5 -2q-27 -12 -29 2q-4 12 -48 2t-108.5 -37.5t-140.5 -67.5t-145 -85q-47 -31 -94.5 -72t-89.5 -88t-77.5 -96.5t-58.5 -96.5z" />
<glyph unicode="O" d="M1092 1561q70 -102 95 -225.5t-7 -237.5q-18 -59 -45 -117.5t-70 -130.5t-106.5 -163t-153.5 -212q-80 -106 -150.5 -185t-135 -134.5t-127 -89t-126.5 -50.5q-37 -10 -59.5 -14t-37.5 -5t-31.5 3t-41.5 10q-27 8 -55.5 28.5t-55 49.5t-49 63.5t-36.5 71.5 q-53 139 -18.5 314.5t149.5 361.5q-27 72 -29 163t23 179q12 43 34.5 93t51 100.5t62.5 97.5t71 88q35 39 61.5 66.5t30.5 27.5t17.5 10.5t29.5 24.5q45 37 102.5 63.5t117 40t116.5 12.5t100 -18q86 -35 163 -109.5t110 -176.5zM717 1780q-8 -10 6 -23.5t31 -11.5q18 0 0 8 q-14 8 -23 23q-8 14 -14 4zM573 1782q-10 -8 7 -10q18 0 14 8q-7 6 -21 2zM53 670q10 23 -4 14q-16 -12 -16 -25q0 -16 7 -12.5t13 23.5zM37 1092q0 -10 8 7t18 54q10 35 26.5 78t29.5 67q18 37 50 80t71 86t80.5 84t80.5 72q45 35 95.5 59.5t97.5 35.5t88 9t68 -18 q16 -10 28.5 -14t14.5 0q4 4 -11.5 15t-38.5 28q-57 35 -73 22q-18 -16 -23 2q-4 12 -36.5 2t-81 -37.5t-106.5 -67.5t-110 -85q-35 -31 -70.5 -72t-67.5 -88t-58.5 -96t-42.5 -96q-16 -41 -26.5 -79t-10.5 -48zM463 1180q-37 -29 -48.5 -29t15.5 29q10 12 16.5 23t2.5 16 q-6 6 -45 -33t-87.5 -99.5t-96.5 -127t-75 -113.5q-4 -6 -7 -12.5t-7 -12.5l6 -18q0 -4 1 -5t1 -5q35 41 54 41q16 0 16 -3.5t-19 -15.5q-27 -20 -14 -20q6 0 4 -6.5t-12 -12.5q-10 -8 -19.5 -22.5t-13.5 -26.5t-10 -29.5t-10 -29.5q-14 -35 9 -6.5t89 133.5q16 27 41 60.5 t51.5 70.5t54 72.5t52.5 66.5q86 106 98 134t-47 -19zM66 713q4 -4 19 13t36 44q2 2 3 4t3 4q-4 2 -8 3t-8 5q-16 -25 -29 -41q-10 -10 -15 -19t-1 -13zM1030 1143q18 90 16 173t-22 148q-10 25 -31.5 54.5t-51.5 56.5t-66.5 45t-77.5 22q-78 6 -160 -16t-160 -76 q-39 -27 -86 -75t-91 -106t-81 -117.5t-55 -108.5q-10 -29 -17.5 -53.5t-11.5 -47.5q51 63 105.5 121t105.5 101t93 68.5t69 25.5q14 0 35.5 -13.5t41 -32t36 -41t20.5 -40.5q4 -16 2 -32.5t-18.5 -46.5t-50 -77t-89.5 -123q-219 -303 -327.5 -518t-85.5 -305q2 -12 6 -19.5 t12 -9.5t22.5 -2t41.5 4q82 10 162.5 56.5t179.5 142.5q94 92 182 202.5t159.5 224.5t122 221.5t70.5 193.5z" />
<glyph unicode="P" horiz-adv-x="960" d="M950 1810q82 -25 148.5 -70.5t115 -108t74 -138.5t25.5 -160q0 -78 -26.5 -148.5t-85 -140t-154 -142.5t-232.5 -159q-41 -25 -69.5 -43t-30.5 -20l-312 -115l-61 -69q-68 -76 -126 -148t-100 -132t-65.5 -106.5t-23.5 -66.5q0 -66 -74 -27q-23 12 -39 45t-22.5 75 t-3.5 88t18 87q10 29 43 86.5t82 131t108.5 158.5t124.5 171q51 68 83 111t53.5 72.5t37 53t31.5 54.5q29 49 57.5 101.5t51 96.5t36 75.5t13.5 39.5q0 29 24.5 21t56 -36t61.5 -67t40 -75q25 -92 -12 -194.5t-146 -244.5q-39 -51 -66.5 -89t-27.5 -42t29.5 14.5t75 48 t99.5 66.5t103 74q164 119 250 238.5t86 230.5q0 98 -64.5 143t-215.5 56q-102 8 -210 -15.5t-212 -74.5q-53 -27 -114.5 -75t-120 -106.5t-106.5 -119t-73 -109.5q-51 -104 -59.5 -183t22.5 -155q10 -29 -13.5 -24.5t-60.5 34.5q-39 33 -63.5 81t-34.5 105.5t-4 120 t29 121.5q16 43 44.5 93.5t67.5 100.5t83 97t91 88q47 39 83 66.5t40 27.5t22.5 10.5t41.5 24.5q59 37 135 63.5t154.5 40t153.5 12t134 -19.5zM813 1745q-10 -10 9.5 -23.5t41.5 -11.5q25 0 0 8q-20 8 -30 23q-9 16 -21 4zM625 1745q-14 -6 8 -8q27 0 18 8q-8 8 -26 0z M915 1657q4 4 -15 15t-50 28q-41 18 -62.5 23.5t-35.5 -3.5q-25 -12 -29 4q-4 12 -48 1t-108.5 -38.5t-140.5 -67.5t-145 -85q-47 -31 -94.5 -72t-89.5 -88t-77.5 -96t-58.5 -96q-18 -41 -32.5 -78t-14.5 -47t10 7t25 54q14 35 36.5 78t39.5 68q25 37 66.5 79.5t91.5 86 t105.5 84t108.5 71.5q61 35 127 58.5t129.5 36t116.5 10.5t90 -19q20 -10 35.5 -14t19.5 0zM444 926q14 16 21.5 28.5t3.5 12.5t-14.5 -12.5t-22.5 -28.5q-12 -18 -19 -30.5t-5 -12.5q4 0 14 12.5t22 30.5zM504 1006q12 16 11 17t-17 -13q-10 -8 -17.5 -14.5t-7.5 -10.5 q0 -20 31 21zM543 1083q0 -20 30 21q12 16 11.5 17t-17.5 -13q-10 -8 -17 -14.5t-7 -10.5z" />
<glyph unicode="Q" horiz-adv-x="1171" d="M1180 1098q-18 -59 -45 -117.5t-70 -130.5t-106.5 -163t-153.5 -212q-41 -53 -80 -100t-74 -88q127 -229 215 -324q29 -31 48.5 -43t42 -1t56.5 47t91 104q33 41 41 22q2 -10 -14.5 -41t-44 -67.5t-59.5 -71.5t-58 -53q-63 -47 -113.5 -49.5t-107.5 38.5q-23 16 -52.5 44 t-52.5 51q-25 29 -66.5 82t-82.5 110q-59 -47 -114.5 -74.5t-113.5 -44.5q-37 -10 -59.5 -14t-37.5 -5t-31.5 3t-41.5 10q-27 8 -55.5 28.5t-55 49.5t-49 63.5t-36.5 71.5q-53 139 -18.5 314.5t149.5 361.5q-27 72 -29 163t23 179q12 43 34.5 93t51 100.5t62.5 97.5t71 88 q35 39 61.5 66.5t30.5 27.5t17.5 10.5t29.5 24.5q45 37 102.5 63.5t117 40t116.5 12.5t100 -18q86 -35 163 -109.5t110 -176.5q70 -102 95.5 -225t-7.5 -238zM717 1780q-8 -10 6 -23.5t31 -11.5q18 0 0 8q-14 8 -23 23q-8 14 -14 4zM573 1782q-10 -8 7 -10q18 0 14 8 q-7 6 -21 2zM53 670q10 23 -4 14q-16 -12 -16 -25q0 -16 7 -12.5t13 23.5zM37 1092q0 -10 8 7t18 54q10 35 26.5 78t29.5 67q18 37 50 80t71 86t80.5 84t80.5 72q45 35 95.5 59.5t97.5 35.5t88 9t68 -18q16 -10 28.5 -14t14.5 0q4 4 -11.5 15t-38.5 28q-57 35 -73 22 q-18 -16 -23 2q-4 12 -36.5 2t-81 -37.5t-106.5 -67.5t-110 -85q-35 -31 -70.5 -72t-67.5 -88t-58.5 -96t-42.5 -96q-16 -41 -26.5 -79t-10.5 -48zM463 1180q-37 -29 -48.5 -29t15.5 29q10 12 16.5 23t2.5 16q-6 6 -45 -33t-87.5 -99.5t-96.5 -127t-75 -113.5 q-4 -6 -7 -12.5t-7 -12.5l6 -18q0 -4 1 -5t1 -5q35 41 54 41q16 0 16 -3.5t-19 -15.5q-27 -20 -14 -20q6 0 4 -6.5t-12 -12.5q-10 -8 -19.5 -22.5t-13.5 -26.5t-10 -29.5t-10 -29.5q-14 -35 9 -6.5t89 133.5q16 27 41 60.5t51.5 70.5t54 72.5t52.5 66.5q86 106 98 134 t-47 -19zM66 713q4 -4 19 13t36 44q2 2 3 4t3 4q-4 2 -8 3t-8 5q-16 -25 -29 -41q-10 -10 -15 -19t-1 -13zM154 102q66 8 130 40t138 91q-16 25 -28.5 43.5t-18.5 28.5q-10 16 -25.5 38t-30.5 34q-14 12 -41.5 48t-52.5 73l-18 28q-78 -141 -114 -242.5t-21 -154.5 q2 -12 6 -19.5t12 -9.5t22.5 -2t41.5 4zM461 268q6 8 13 14.5t15 14.5q-10 16 -20 32.5t-20 32.5q-35 57 -66 102.5t-37 51.5q-12 8 8 -24q27 -41 25 -56.5t-29 23.5q-10 18 -18 27.5t-8 5.5q0 -6 14 -33t35.5 -60.5t45.5 -69.5t42 -61zM444 430q2 2 -5 17.5t-19 37.5 q-31 53 -36 51.5t24 -55.5q14 -23 24 -38t12 -13zM510 326q4 0 -1 13t-17 30q-29 41 -35 41t16 -41q10 -16 20.5 -29.5t16.5 -13.5zM698 -23q4 0 -5 11.5t-25 27.5q-33 35 -37 50.5t26 -13.5q29 -25 29 -18q0 4 -10 15t-27 26q-16 14 -23.5 19t-2.5 -3q10 -16 -4.5 -16 t-24.5 16q-4 6 -2 12.5t8 8.5q16 6 -22 57q-8 12 -19 23q-8 -8 -16 -15.5t-17 -15.5q18 -23 43 -52.5t54 -58.5q29 -31 51 -52.5t24 -21.5zM582 215q12 -16 14 -13t-8 19zM657 129q-41 51 -50 56t26 -42q14 -18 27.5 -35.5t17.5 -25.5q14 -20 20 -14q2 2 -10.5 20t-30.5 41z M588 399q80 88 152.5 187.5t131 198t99.5 190.5t59 168q18 90 16 173t-22 148q-10 25 -31.5 54.5t-51.5 56.5t-66.5 45t-77.5 22q-78 6 -160 -16t-160 -76q-39 -27 -86 -75t-91 -106t-81 -117.5t-55 -108.5q-10 -29 -17.5 -53.5t-11.5 -47.5q51 63 105.5 121t105.5 101 t93 68.5t69 25.5q14 0 35.5 -13.5t41 -32t36 -41t20.5 -40.5q4 -16 2 -32.5t-18.5 -46.5t-50 -77t-89.5 -123q-33 -45 -62.5 -88t-57.5 -84h2l84 -139q29 -47 67.5 -116t69.5 -126z" />
<glyph unicode="R" horiz-adv-x="1300" d="M600 371q8 -16 20.5 -38t22.5 -38t16.5 -27.5t2.5 -11.5t-19.5 22.5t-38.5 53.5q-23 33 -37 57.5t-14 28.5q0 14 16.5 -2t30.5 -45zM725 166q6 6 25 -14q18 -20 10 -29q-2 -4 -9.5 0t-15.5 14q-18 21 -10 29zM1319 92q4 -10 -13.5 -41t-45 -67.5t-59.5 -71.5t-56 -53 q-66 -47 -115 -49.5t-106 38.5q-23 16 -53.5 44t-51.5 51q-25 27 -66.5 80t-82.5 109t-75 105.5t-44 67.5q-10 16 -25.5 38t-31.5 34q-14 12 -42 48t-53 73l-22 37l-35 -39q-68 -76 -126 -148t-100 -132t-65.5 -106.5t-23.5 -66.5q0 -66 -74 -27q-23 12 -39 45t-22.5 75 t-3.5 88t18 87q10 29 43 86.5t82 131t108.5 158.5t124.5 171q51 68 83 111t53.5 72.5t37 53t31.5 54.5q29 49 57.5 101.5t51 96.5t36 75.5t13.5 39.5q0 29 24.5 21t56 -36t61.5 -67t40 -75q25 -92 -12 -194.5t-146 -244.5q-31 -41 -54.5 -73.5t-33.5 -47.5l2 -6 q14 6 46 26.5t74 48.5t89 60.5t90 63.5q164 119 250 238.5t86 230.5q0 98 -64.5 143t-215.5 56q-102 8 -210 -15.5t-212 -74.5q-53 -27 -114.5 -75t-120 -106.5t-106.5 -119t-73 -109.5q-51 -104 -59.5 -183t22.5 -155q10 -29 -13.5 -24.5t-60.5 34.5q-39 33 -63.5 81 t-34.5 105.5t-4 120t29 121.5q16 43 44.5 93.5t67.5 100.5t83 97t91 88q47 39 83 66.5t40 27.5t22.5 10.5t41.5 24.5q59 37 135 63.5t154.5 40t153.5 12.5t134 -20q82 -25 148.5 -70.5t115 -108t74 -138.5t25.5 -160q0 -78 -26.5 -148.5t-85 -140t-154 -142.5t-232.5 -159 q-41 -25 -69.5 -43t-30.5 -20l-92 -35l2 -4q18 -29 39.5 -65.5t44 -75.5t43 -77t36.5 -69q76 -141 139.5 -239.5t114.5 -151.5q27 -31 46.5 -43t43 -1t57.5 47t91 104q16 18 26.5 24t12.5 -2zM813 1745q-10 -10 9.5 -23.5t41.5 -11.5q25 0 0 8q-20 8 -30 23q-9 16 -21 4z M625 1745q-14 -6 8 -8q27 0 18 8q-8 8 -26 0zM915 1657q4 4 -15 15t-50 28q-41 18 -62.5 23.5t-35.5 -3.5q-25 -12 -29 4q-4 12 -48 1t-108.5 -38.5t-140.5 -67.5t-145 -85q-47 -31 -94.5 -72t-89.5 -88t-77.5 -96t-58.5 -96q-18 -41 -32.5 -78t-14.5 -47t10 7t25 54 q14 35 36.5 78t39.5 68q25 37 66.5 79.5t91.5 86t105.5 84t108.5 71.5q61 35 127 58.5t129.5 36t116.5 10.5t90 -19q20 -10 35.5 -14t19.5 0zM444 926q14 16 21.5 28.5t3.5 12.5t-14.5 -12.5t-22.5 -28.5q-12 -18 -19 -30.5t-5 -12.5q4 0 14 12.5t22 30.5zM834 129 q-41 51 -50.5 56t25.5 -42q12 -18 25.5 -35.5t19.5 -25.5q14 -23 18 -14q4 2 -8 20t-30 41zM698 313q-12 0 41 -73q31 -47 32 -39t-30 55q-16 23 -28.5 40t-14.5 17zM666 369q-29 41 -34 41t17 -41q10 -16 20.5 -29.5t14.5 -13.5t-1 13.5t-17 29.5zM596 485q-31 53 -36 51.5 t24 -55.5q12 -23 22 -38t15 -13q2 2 -5.5 17t-19.5 38zM567 1108q-10 -8 -17 -14.5t-7 -10.5q0 -20 30 21q12 16 11 17t-17 -13zM473 985q0 -20 31 21q12 16 11 17t-17 -13q-10 -8 -17.5 -14.5t-7.5 -10.5zM874 -23q4 0 -5 11.5t-25 27.5q-35 35 -38 50.5t28 -13.5 q29 -25 28 -18q0 4 -11 15l-26 26q-35 31 -28 16q10 -16 -4.5 -16t-24.5 16q-8 16 8 21q16 6 -24 57q-16 23 -54.5 78t-72.5 114q-37 57 -67 102.5t-36 51.5q-12 8 8 -24q25 -41 23 -56.5t-27 23.5q-12 18 -20 27.5t-8 5.5q0 -10 24.5 -52.5t55 -88.5t57.5 -82t31 -33 q10 8 22 -9q8 -16 -6 -6q-18 10 -15 -1t20.5 -35.5t46 -60.5t65.5 -73q29 -31 50 -52.5t25 -21.5z" />
<glyph unicode="S" horiz-adv-x="980" d="M1364 1688q53 -47 75.5 -90.5t22.5 -102.5q0 -61 -30.5 -119.5t-94.5 -124.5q-49 -49 -95 -85t-95 -60.5t-103.5 -40.5t-119.5 -25q-86 -12 -161 4.5t-128 61.5q-16 14 -32.5 35.5t-28 43t-17.5 38t0 22.5q4 4 31.5 0t64.5 -14q88 -23 182.5 -21t182.5 26t165 67t132 104 q127 141 57.5 199.5t-313.5 13.5q-158 -29 -303.5 -89.5t-256 -138t-176 -166.5t-65.5 -173q0 -29 9 -51.5t33 -45t65 -50t106 -64.5q70 -41 120 -73t84 -59.5t55.5 -55t37.5 -60.5q35 -68 43 -121t-6 -119q-39 -182 -161 -299.5t-302 -146.5q-45 -6 -81 -9t-67.5 -2 t-62.5 5t-63 14q-37 12 -69 31.5t-62 50.5q-18 18 -30.5 33.5t-20 29t-10.5 29.5t-5 39q-10 109 65.5 202t258.5 195q172 96 235 66q23 -12 19.5 -17.5t-43.5 -15.5q-59 -18 -130 -58t-135.5 -89.5t-112.5 -99.5t-63 -87q-12 -31 -13 -63.5t5 -61t19.5 -49t33.5 -26.5 q33 -10 84 4t107.5 44.5t111 73.5t93.5 93q35 45 69.5 97t62 103.5t45 94.5t21.5 67q2 20 2 32.5t-5 22t-16.5 18.5t-31.5 21q-25 16 -48.5 29.5t-33.5 17.5q-23 8 -57.5 28t-72.5 44.5t-73 50t-57 47.5q-172 162 -134 343.5t279 336.5q154 98 316 143.5t348 41.5 q74 -2 126 -7.5t91 -15.5t68.5 -26t58.5 -41zM662 453q-10 -6 -17.5 -15.5t-3.5 -17.5q6 -16 -13.5 -61.5t-53 -100.5t-76.5 -113.5t-84 -101.5q-33 -35 -39 -47t6 -5t41 29.5t65 59.5q31 31 59.5 67.5t39.5 59.5q10 20 21 33.5t16 9.5q6 -4 10 4t4 25q0 35 14 26 q8 -4 10.5 -3t-2.5 7q-10 14 -0.5 37t19.5 16q4 -4 6 3.5t-2 19.5q-10 31 6 23q6 -4 9 2t-1 22q-4 23 -11 27t-23 -6zM504 1632q-18 -6 -21.5 -12t13.5 -6q12 0 20 14q4 6 1 7t-13 -3zM401 1579q-16 -16 -16 -17t23 11q14 8 21 15t3 11q-6 5 -31 -20zM410 1460 q31 25 51 43.5t16 22.5t-24.5 -13.5t-49.5 -46.5l-67 -65zM852 1686q6 6 -13.5 1.5t-53 -16.5t-74.5 -29.5t-78 -33.5q-33 -14 -59.5 -24.5t-32.5 -10.5q-4 0 -13.5 -6t-17.5 -15q-6 -10 27.5 1.5t87.5 33.5q53 23 104 44.5t68 27.5q16 6 33.5 14.5t21.5 12.5zM823 1704 q29 10 46.5 19.5t13.5 11.5q-4 4 -28 -1t-57.5 -16.5t-72.5 -27t-74 -29.5q-31 -16 -68.5 -31.5t-60.5 -23.5q-98 -33 -250 -172q-61 -59 -56 -70.5t71 43.5q76 66 101.5 85t29.5 15q6 -4 2 4q-6 6 25.5 25.5t87 46.5t131 58.5t159.5 62.5z" />
<glyph unicode="T" horiz-adv-x="915" d="M1606 1778q104 -35 176.5 -70t118 -73t66 -82t20.5 -99q0 -90 -27 -96t-41 78q-8 47 -47 70.5t-139 45.5q-37 8 -105.5 10.5t-151.5 -0.5t-174.5 -11.5t-173.5 -20.5q-35 -4 -60.5 -7t-45.5 -7q33 -29 55 -78q23 -43 26 -86t-15.5 -96.5t-59.5 -120t-108 -154.5 q-72 -94 -118 -156.5t-78 -111.5t-54.5 -92t-46.5 -101q-29 -68 -47.5 -117t-28.5 -93t-14.5 -91t-4.5 -108q-2 -121 12.5 -163t55.5 -44q29 0 30 -2t-20 -19q-63 -47 -188 23q-37 20 -62.5 36.5t-44 34t-33 39t-28.5 50.5q-29 59 -37 144t8 159q18 80 75.5 196.5 t140.5 250.5t187.5 274.5t215.5 267.5q35 37 56.5 64.5t18.5 31.5q2 4 9 12l9 13.5t11 17.5l-125 -33q-4 4 -170 -40t-459 -128q-47 -12 -105 -20t-118 -8h-67.5t-46 3t-34 10t-32.5 17q-33 20 -59.5 51t-39 59t-9 44t29.5 10q18 -4 58 0t93.5 16.5t114 30t117.5 37.5 q197 72 359.5 123t301 85t259.5 51.5t235 21.5l189 8zM383 1552q-16 -12 -16 -13t20 5q6 2 24.5 8.5t47 15.5t64.5 19t73 21q182 55 265 81.5t69 28.5q-6 0 -31 -5t-53 -15q-14 -4 -41 -12.5t-61.5 -18.5t-73.5 -21.5t-76 -23.5q-39 -10 -75 -21.5t-64.5 -20.5t-47 -17.5 t-24.5 -10.5zM156 1473q-12 -10 25.5 -1t92.5 31q35 14 55.5 23.5t16.5 9.5q-6 0 -34.5 -8t-62.5 -19.5t-61.5 -21.5t-31.5 -14zM788 1624q61 18 105.5 35.5t44.5 21.5q0 10 -16 2q-4 0 -26 -7t-56.5 -17t-79.5 -23.5t-94 -27.5t-94.5 -28.5t-81 -26t-58 -19.5t-29.5 -10 q-23 -14 -49 -15q-23 0 -39 -12q-6 -4 -30.5 -14t-53.5 -21q-29 -10 -54 -20t-36 -17q-14 -10 -14 -11t14 3q10 2 85 26.5t173 55.5q49 16 104.5 33.5t109 35t99 32t76.5 24.5zM479 512q10 10 16.5 22.5t6.5 18.5q0 29 -27 -33q-12 -25 -12 -25.5t16 17.5zM522 485 q8 12 14.5 23.5t6.5 17.5q0 10 -21 -14q-8 -10 -14 -22.5t-6 -18.5q0 -11 20 14zM510 600q-10 -29 -1 -23.5t28 39.5q8 18 14 34t6 20q0 6 -6 0t-13.5 -17.5t-15.5 -26t-12 -26.5zM588 633q16 35 25.5 59.5t4.5 24.5q-2 0 -15 -24.5t-30 -59.5q-16 -35 -25 -59.5t-5 -24.5 t17.5 24.5t27.5 59.5zM621 786q8 6 14 16.5t6 16.5q0 14 -12 0q-6 -6 -18.5 -25.5t-25 -41t-20.5 -40t-8 -22.5q0 -6 7 0t14.5 17.5t13.5 24.5t6 20q0 16 23 34zM659 774q6 23 5.5 24t-17.5 -18q-16 -23 -19 -38t11 -7q4 4 10 15.5t10 23.5zM641 854q0 -16 8 -10t21 28 q12 23 11 25t-17 -12q-23 -19 -23 -31zM739 911q18 33 25.5 49.5t-0.5 8.5q-10 -10 -26.5 -37t-32 -54.5t-24.5 -46t-1 -10.5q6 6 23.5 32.5t35.5 57.5zM692 932q-8 -20 -4 -21q4 0 9 6.5t14 14.5q18 23 4 22q-15 1 -23 -22zM754 1196q41 47 43 52t-29 -19 q-31 -25 -64.5 -64t-68.5 -86t-70 -103t-65 -114q-16 -29 -37 -69.5t-37 -69.5q-18 -35 -41 -84t-44.5 -95t-34.5 -81t-13 -39t13 20.5t32 61.5q16 39 33.5 68.5t23.5 33.5t7 7t-3 3t6.5 24t31 65t50 96t64.5 117q39 66 89.5 136t113.5 140zM965 1729q-10 -4 -7 -6.5 t15 -2.5q25 0 18 9q-8 8 -26 0zM1071 1714q27 10 28 12.5t-20 -2.5q-16 -4 -38.5 -11t-39.5 -15q-25 -12 -26.5 -14.5t20.5 2.5q14 4 37 12t39 16zM1112 1749q10 -2 16.5 0t1.5 6q-6 10 -26 2q-21 -8 8 -8z" />
<glyph unicode="U" horiz-adv-x="1898" d="M1104 1268q-23 -27 -27 -26t13 34q6 14 14 22.5t12 4.5q8 -6 -12 -35zM791 827q-12 -8 0 19q8 12 16 23.5t14 15.5q18 12 0 -19q-6 -12 -15 -23.5t-15 -15.5zM735 752q-12 0 2 28q6 12 12.5 19.5t10.5 3.5q6 -6 -4.5 -28.5t-20.5 -22.5zM1612 532q-31 -68 -49.5 -116.5 t-28.5 -92.5t-13 -91.5t-3 -110.5q-2 -119 11 -162t54 -43q29 0 31 -3t-19 -17q-61 -49 -188 22q-37 20 -62.5 36.5t-44 34t-33 39t-28.5 50.5q-29 59 -37 144t8 157q16 70 62.5 170t114 215t153.5 237.5t180 239.5l-264 -270q-10 -2 -47 -41t-113 -123q-29 -31 -53 -57.5 t-43.5 -48t-31 -34t-13.5 -14.5q-4 -4 -33.5 -35.5t-70.5 -76.5q-102 -111 -195.5 -211.5t-169.5 -177t-125 -123.5t-61 -54q-78 -39 -154 35q-45 41 -52 96.5t21 141.5q8 29 30 74t50.5 98t62.5 109.5t66 109.5q16 29 33.5 52.5t34.5 45.5q18 27 58 82t91.5 129t111.5 160 t120 174q18 29 40.5 66.5t43 77.5t37 75t24.5 58q-68 39 -198 47q-102 6 -210 -16.5t-212 -76.5q-53 -27 -114.5 -74.5t-120 -106t-106.5 -118t-73 -108.5q-51 -106 -59.5 -185t22.5 -155q10 -29 -13.5 -25t-60.5 35q-39 33 -63.5 81t-34.5 105.5t-4 120t29 121.5 q16 43 44.5 93.5t67.5 100.5t83 97t91 88t83 67.5t40 26.5t22.5 10.5t41.5 24.5q59 37 135 63.5t154.5 40t153.5 12.5t134 -18q127 -41 215 -124q49 -31 85 -94.5t42 -139.5q6 -78 -14.5 -162t-77.5 -192.5t-156.5 -252t-248.5 -339.5q-49 -61 -93.5 -122.5t-77 -111 t-51 -81t-14.5 -35.5q2 -2 38 33.5t94.5 94t132 133.5t148.5 152.5t143.5 150.5t119.5 128q20 20 47 49t54.5 59.5t56 61.5t51.5 55q43 45 79 83t67.5 74t60 71.5t57.5 72.5q96 121 144.5 172t66.5 51q10 0 29.5 -17t36.5 -32q12 -8 16 -12q37 -31 65 -86q23 -43 26 -87 t-15.5 -96.5t-59.5 -119t-108 -154.5q-72 -94 -118 -156.5t-78 -111.5t-54 -93.5t-47 -99.5zM813 1743q-10 -10 9.5 -23.5t41.5 -11.5q25 0 0 8q-20 8 -30 23q-9 16 -21 4zM625 1745q-12 -8 8 -10q27 0 18 8q-8 8 -26 2zM915 1655q4 4 -15 15t-50 28q-41 18 -62.5 23 t-35.5 -1q-25 -16 -29 2q-4 12 -48 2t-108.5 -37.5t-140.5 -67.5t-145 -85q-47 -31 -94.5 -72t-89.5 -88t-77.5 -96t-58.5 -96q-18 -41 -32.5 -79t-14.5 -48t10 7t25 54q14 35 36.5 79t39.5 67q25 37 66.5 80.5t91.5 87t105.5 83t108.5 70.5q61 35 127 59.5t129.5 37 t116.5 10.5t90 -21q20 -10 35.5 -14t19.5 0zM606 623q-27 -45 -6 -27q20 14 31 4q10 -4 2 8q-4 8 -2 18.5t8 20.5q8 8 9 14.5t-5 6.5q-4 0 -15.5 -13.5t-21.5 -31.5zM547 471q12 -16 37 16q10 14 16 26.5t2 16.5q-6 10 6 11q4 0 49 55t109.5 141t141.5 189.5t147 199.5 q25 33 49 77t45.5 85t35 75t13.5 46q-4 18 -20 -23q-8 -16 -19.5 -34.5t-21.5 -26.5q-37 -29 -9 33q10 20 9.5 20t-13.5 -16q-25 -37 -50 -78t-47.5 -77t-37 -61.5t-14.5 -27.5q0 -4 10 5.5t25 27.5l37 41l-31 -45q-12 -18 -24.5 -30.5t-18.5 -12.5q-14 4 -23 -14 q-6 -18 11 -11q18 12 8 -4q-12 -16 -23 -8q-4 4 -16 -7t-25 -28q-27 -37 -27.5 -49t23.5 8q16 10 17.5 10t-11.5 -12q-16 -20 -33 -20q-18 0 -22 -21q-6 -16 12 -8q12 8 12.5 6t-12.5 -16q-16 -20 -24.5 -23.5t2.5 13.5q6 14 2 14t-31 -34t-58.5 -76t-59 -79.5t-33.5 -48.5 q-4 -10 3 -3t23 24q33 37 31 26.5t-39 -69.5q-14 -23 -24.5 -41.5t-10.5 -22.5t-9 -15t-22 -26q-31 -31 -30 -51q0 -20 -15 -12q-14 12 -4 -14q8 -23 -10 -13q-16 10 -8 -8zM1577 643q16 35 25.5 59.5t5.5 24.5q-2 0 -15.5 -24.5t-29.5 -59.5t-25.5 -59.5t-5.5 -24.5 t17.5 24.5t27.5 59.5zM1524 629q10 16 16 32.5t6 20.5q0 6 -6 0t-13 -17.5t-15.5 -25.5t-12.5 -27q-10 -29 -0.5 -23.5t25.5 40.5zM1610 797q8 8 14 17t6 15q0 14 -12 2q-6 -6 -18.5 -25.5t-24.5 -41t-20.5 -39.5t-8.5 -23q0 -6 6.5 0.5t14.5 17.5t14 24.5t6 19.5t6.5 16.5 t16.5 16.5zM1649 786q6 23 4 24t-17 -19q-16 -23 -19 -38.5t11 -4.5q4 4 10.5 15t10.5 23zM1630 866q0 -16 8.5 -11t20.5 30q12 23 11 24.5t-17 -12.5q-23 -19 -23 -31zM1729 924q18 33 25 49t-1 6q-10 -10 -27.5 -37t-33 -53.5t-23.5 -45t0 -9.5q6 4 24 30.5t36 59.5z M1681 944q-8 -20 -4 -20q2 0 8.5 6t14.5 14q16 20 4 21q-17 -1 -23 -21zM1389 629q-4 0 6 24.5t30.5 65.5t50 96t64.5 117q39 66 89 135.5t112 140.5q41 47 44 52.5t-28 -19.5t-64.5 -63.5t-68.5 -86t-69.5 -103.5t-65.5 -114q-16 -29 -36.5 -69.5t-37.5 -69.5 q-18 -35 -40.5 -84t-44 -95t-35 -81t-13.5 -39t13.5 19.5t29.5 62.5q18 37 35.5 66.5t23.5 33.5q15 11 5 11zM1468 524q10 10 16.5 22.5t6.5 18.5q0 27 -29 -33q-10 -25 -10 -26.5t16 18.5zM1511 498q8 10 14.5 22t6.5 19q0 10 -21 -15q-20 -25 -20 -41q0 -10 20 15z" />
<glyph unicode="V" horiz-adv-x="1003" d="M2032 1755q23 -55 16.5 -67.5t-51.5 -4.5q-35 6 -95.5 -15t-142.5 -69.5t-183 -119t-216 -162.5q-41 -33 -96.5 -84t-119 -113.5t-133 -134.5t-138 -145.5t-132 -146t-116.5 -136.5q-86 -102 -163 -191.5t-140.5 -158t-110.5 -116.5t-72 -66q-51 -37 -95 -41t-69 24 q-10 12 -16 25.5t-6 23.5t-5 21.5t-11 17.5q-14 14 8 74q10 25 29.5 77t35.5 101t42 108.5t44 94.5t40 78t34 71q10 29 36.5 83.5t51.5 105.5q39 72 105.5 213t162.5 348q4 10 10.5 31.5t10.5 42.5l10 51l-72 -10q-68 -10 -90 -18.5t-14 -24.5q4 -8 2 -9.5t-10 5.5 q-10 6 -39 -8.5t-65 -44t-76.5 -70.5t-75.5 -86q-33 -41 -63.5 -87t-54.5 -85t-35 -64.5t-3 -25.5q4 0 23.5 29.5t42.5 72.5q20 39 54 86t71.5 92t75.5 82t69 57q20 14 -0.5 -13.5t-69.5 -80.5q-238 -256 -237 -516q0 -45 -4 -62.5t-15 -17.5q-12 0 -27.5 12.5t-29.5 32 t-25.5 42t-15.5 44.5q-4 29 -4 74t5 93t13.5 93t18.5 74q39 104 115.5 204.5t168 176.5t183.5 118t162 29q45 -10 97 -54t91 -103q47 -74 53 -158t-26 -192q-27 -86 -62 -166t-67 -131q-37 -53 -1.5 -24.5t166.5 159.5q190 190 356.5 332.5t276.5 207.5q25 14 42.5 24.5 t31.5 20t29.5 20.5t33.5 26q18 16 61.5 40.5t86.5 47.5q131 66 209 51t119 -115zM-57 979q8 18 13 32.5t1 18.5q-12 16 -25 -51l-10 -45zM225 461q-4 -16 9.5 6t35.5 70q12 23 29.5 58.5t38 77.5t43 86t43.5 85q20 39 40.5 82t39 82t34 70.5t23.5 49.5q33 76 58.5 147 t39 121t14.5 74.5t-14 10.5q-18 -16 -26 14q-8 35 -19.5 30t-7.5 -42q2 -16 -11 -60.5t-39 -111t-62.5 -150.5t-81.5 -178q-23 -49 -36.5 -88t-8.5 -47q12 -16 -5 -8q-10 6 -34.5 -35t-54 -104.5t-57.5 -135t-42 -127.5q-6 -29 -5 -32t11 16q8 10 17.5 25.5t17.5 25.5 q12 16 14 14.5t-4 -26.5zM891 1042q14 16 13 18.5t-17 -13.5q-25 -18 -25 -25q0 -21 29 20zM1419 1552q18 16 30.5 27.5t8.5 15.5t-24.5 -11t-49.5 -38q-96 -82 -185 -160.5t-166 -148.5t-136 -125t-92 -88q-49 -49 -112.5 -121t-122 -142.5t-104.5 -129t-58 -82.5 q-23 -45 -11.5 -34t74.5 95q78 104 111.5 141t46.5 29q4 -4 6 -2t-2 8q-4 8 32.5 54.5t97 111t133.5 136t140 131.5q14 12 38 33.5t51.5 46t56 50t57.5 50.5q55 49 107.5 94t72.5 59z" />
<glyph unicode="W" horiz-adv-x="1685" d="M2492 1804q27 -31 21 -45t-53 -30q-61 -18 -203 -158q-49 -47 -95 -92t-102.5 -105.5t-131.5 -142.5t-181 -201q-41 -45 -99.5 -113.5t-120 -144.5t-120.5 -151.5t-102 -133.5q-63 -86 -126 -165.5t-117 -143t-94 -106.5t-61 -58q-41 -31 -64.5 -35t-60.5 13 q-31 12 -53 58t-33 112q-10 88 35 256t143 409q25 59 41.5 101.5t14.5 44.5l-18 -17q-17 -18 -45.5 -50t-65.5 -73.5t-80 -91.5q-160 -178 -275.5 -307t-198.5 -215t-138.5 -134t-91 -66.5t-59.5 -12.5t-42 29q-16 18 -20.5 48t0.5 107q2 41 5 70t10 55.5t18.5 55t31.5 71.5 q20 45 65.5 123t100.5 168t114.5 182.5t112.5 167.5q78 113 129.5 186.5t83 121t48 76t28.5 53.5q33 68 33 85t-35 17q-45 0 -113.5 -38t-142.5 -98.5t-143.5 -135t-114.5 -148.5q-156 -254 -119 -420q8 -31 11.5 -54t-1.5 -28q-4 -4 -16 1.5t-27 15.5q-18 12 -34.5 36.5 t-30.5 55.5t-24.5 66.5t-14.5 70.5q-8 76 21.5 171t87 190.5t136.5 183.5t169 147q205 139 321.5 132t186.5 -162q27 -57 25.5 -141.5t-26 -180.5t-70.5 -200.5t-112 -202.5q-23 -31 -68.5 -94.5t-90.5 -120.5q-104 -135 -170 -220.5t-103 -135.5t-52 -71.5t-22 -31.5 q-16 -37 73 57t269 301q45 51 102.5 116t116 130.5t112.5 128t97 109.5t86.5 97t80 95t65.5 83t43 60q33 53 53.5 84t36.5 44.5t30.5 12.5t35.5 -9q18 -8 38.5 -25.5t41 -39t35 -43t20.5 -40.5q2 -12 -7.5 -44t-24.5 -69.5t-33.5 -73.5t-33.5 -55q-14 -16 -51 -77.5 t-81 -139t-86 -156.5t-66 -130q-25 -51 -49.5 -109.5t-44 -110t-31.5 -86t-8 -36.5q2 -4 32.5 37.5t73.5 101.5q25 37 67 92t92 119.5t104.5 133.5t105.5 131.5t94 113.5t72 82q25 27 45 42t26 11q12 -6 6 6q-4 8 -3 15.5t15.5 28t47.5 57t92 104.5q123 139 250 244.5 t248 169.5q94 49 133.5 56t66.5 -24zM371 1624q35 23 55 40t14 17q-12 0 -51 -24.5t-85 -60t-89 -73.5t-63 -65q-57 -72 -87 -127t-20 -71q4 -6 3 -8.5t-7 1.5t-15.5 -5t-15.5 -23.5t-9 -30.5t3 -25q10 -20 16 11q2 12 12.5 26.5t20.5 24.5q10 8 16.5 17t2.5 16q-8 14 4 14 q14 0 59 96q2 4 -2 5t-12 -5q-18 -12 -6 6q4 8 9 11.5t9 -0.5t12.5 -1t16.5 11q14 12 16 12t-6 -16q-6 -10 -1 -9t19 15q29 29 23 43q-8 12 12 8q18 -4 15 14q-4 16 14 21q8 0 31.5 18.5t50.5 42.5q47 45 38 42t-91 -56q-29 -18 -32 -18t13 20q10 10 41 35.5t66 50.5z M702 1364q-12 -33 -37.5 -80t-52 -90t-49 -71.5t-31.5 -26.5q-4 2 -6 -2t2 -11q4 -6 -9 -36.5t-32.5 -67.5t-40 -68.5t-30.5 -40.5q-16 -8 -29 0q-12 8 -4 -8q4 -6 2 -17t-14.5 -38t-38 -73t-70.5 -122q-68 -119 -90 -160.5t-16 -41.5l14 22q14 21 38.5 56.5t55.5 84 t66 103.5q215 336 311 511t90 216q-2 18 -8.5 10t-20.5 -49zM350 897q-43 -66 -83 -131.5t-68.5 -114.5t-40 -74.5t1.5 -9.5q2 2 15 20.5t32.5 48.5t43 66.5t50.5 77.5q74 115 139.5 222.5t115.5 194.5t79 144.5t29 71.5q0 4 -9.5 -9t-27 -40t-40 -64.5t-46.5 -82.5 q-25 -43 -52.5 -91.5t-54 -91.5t-48.5 -80t-36 -57zM1290 1298q0 4 -11 -16t-30.5 -58t-46 -91.5t-55.5 -114.5t-54.5 -116.5t-45 -98.5t-30.5 -69.5t-11 -31.5q0 -4 14 19.5t33.5 60.5t40 80t36.5 80q6 12 32 65.5t55 118.5q31 66 52 116t21 56zM1198 1278q-10 -14 6 -14 q14 0 15 14q0 14 -7 14q-8 0 -14 -14zM1090 1061q-51 -109 -80 -171.5t-38 -86t0 -12t36 52.5q20 33 52 95t60.5 125.5t49 114t18.5 58.5q-4 8 -31.5 -44t-66.5 -132zM1833 1272q-72 -74 -71 -59.5t73 94.5q31 35 14.5 19.5t-71.5 -71.5q-53 -55 -92 -99t-39 -48q0 -6 14 4 t35 31q23 23 37 35t14 8t-17.5 -22.5t-41.5 -43.5q-25 -25 -39.5 -37t-10.5 -4q20 37 -9.5 10.5t-82.5 -92.5q-70 -90 -80 -111.5t43 32.5q23 23 37.5 36t14.5 9t-17.5 -23.5t-42.5 -44.5q-25 -23 -39 -35t-10 -4q10 18 0 18q-4 -2 -30.5 -31.5t-59.5 -72.5 q-66 -86 -82 -117.5t18 -3.5q18 16 20.5 15.5t-11.5 -19.5q-8 -10 -17.5 -15t-13.5 -1q-6 4 -18.5 -7.5t-26.5 -29.5q-12 -18 -25.5 -29.5t-19.5 -7.5t-7 2t3 -10q4 -6 -1 -24.5t-20 -37.5q-29 -45 -20 -75q6 -20 14 -14.5t37 50.5q18 29 27.5 53.5t5.5 32.5q-10 14 6 7 q6 -4 30.5 21.5t55.5 70.5q31 41 55.5 75.5t28.5 41.5q6 8 40 49t85 100t111.5 131t121.5 143q61 72 83 102t-9 -1z" />
<glyph unicode="X" horiz-adv-x="1302" d="M893 895q-16 -45 -32.5 -86t-22.5 -57q-41 -96 -65.5 -195.5t-33 -185.5t1 -150.5t37.5 -95.5q27 -29 74 -44t101.5 -18.5t111.5 7t106 34.5q61 31 86 26t-28 -40q-123 -76 -311 -76q-152 0 -246 40t-152 128q-35 51 -47 118t-6 165q4 39 5 66.5t-1 27.5 q-6 0 -30.5 -24.5t-62.5 -64.5t-84 -91t-94 -106.5t-94.5 -111t-80.5 -100.5q-41 -49 -64.5 -69.5t-44.5 -20.5q-35 0 -45 23q-4 10 -2 25.5t8 29.5q12 27 57.5 83t107.5 128t137 153t149 154l209 207l77 227q16 47 36 99.5t37.5 99.5t32.5 88t25 68q41 98 70 172t43 114 q-74 4 -150.5 -19.5t-150.5 -72.5q-39 -27 -86 -75t-91 -106t-81 -117.5t-55 -108.5q-39 -106 -45 -185t18 -155q8 -29 -10.5 -25t-46.5 35q-29 33 -47.5 81t-25.5 105.5t-3 120t20 121.5q12 43 35 93t51.5 100.5t62.5 97.5t71 88q35 39 61.5 66.5t30.5 27.5t17 10.5 t30 24.5q45 37 102.5 63.5t116.5 40t116.5 12.5t100.5 -18q100 -39 168 -135q33 -31 51 -65q35 -66 25 -146t-70 -198l-69 -142l94 78q39 33 67.5 57.5t32.5 28.5q12 12 50 44t85 70t96.5 76.5t83.5 63.5q109 80 176.5 113.5t102.5 25.5q14 -4 32.5 -20.5t35 -40t31 -49 t20.5 -49.5l10 -41h-98q-78 0 -153 -20.5t-164 -68t-198.5 -128t-252.5 -199.5q-43 -35 -68.5 -58.5t-42 -44t-28 -44t-23.5 -60.5zM1614 1608q-25 -18 -25 -25q0 -23 31 19q14 18 13 19t-19 -13zM1006 1577q-14 -23 -25 18q0 -18 -11.5 -54t-25.5 -76t-28.5 -76.5 t-20.5 -57.5q-6 -20 -20.5 -63t-31 -92.5t-30.5 -94.5t-20 -67q-4 -20 -15.5 -55t-27.5 -72q33 63 81 176t111 272q23 53 40 104.5t26.5 87.5t9.5 51t-12 -1zM961 1626q-16 0 -17 -43v-4q6 18 23 45q-2 2 -6 2zM795 1780q-6 -10 8 -23.5t31 -11.5q18 0 0 8q-14 8 -23 23 q-6 14 -16 4zM653 1782q-10 -8 6 -10q18 0 15 8q-7 6 -21 2zM829 1706q14 -8 25.5 -13t15.5 -3q2 2 2 6q-4 4 -17 15t-32 24q-57 35 -73 22q-18 -16 -23 2q-4 12 -37 2t-82 -37.5t-106.5 -67.5t-108.5 -85q-35 -31 -70.5 -72t-67.5 -88t-58.5 -96t-44.5 -96 q-14 -41 -24.5 -79t-10.5 -48t8 7t18 54q10 35 26.5 78t29.5 67q18 37 50 80t70.5 86t79.5 84t82 72q45 35 95.5 59.5t97.5 35.5t87.5 9t67.5 -18zM758 1145q-4 4 -5 1t3 -9q0 4 1 5t1 3zM612 539q4 -16 19.5 15.5t32 78.5t27.5 95t7 67q-4 16 -3 22t7 -4q2 -2 15 14 q8 23 13 49.5t7 55.5q0 27 13.5 61.5t32 71.5t36 77t27.5 81q8 39 25.5 94t33 106.5t25.5 88t6 40.5q-6 -12 -14 -14q-10 -4 -14.5 -9t-0.5 -9q2 -4 -2 -18.5t-12 -31.5q-4 -6 -8 -18q-2 -8 -6 -20v-7q0 -2 2 -2q6 -6 -11 -22q-4 -14 -9 -27.5t-9 -25.5q0 -6 -2 -5 q-4 -10 -8 -18l-8 -16q6 2 -7 -17l-4 -4q-2 -4 -4 -9t-4 -11h2q10 0 -4 -19q-6 -8 -13 -27.5t-12 -39.5q-8 -39 -21 -89.5t-27.5 -97.5t-24.5 -86t-10 -53q0 -16 -17.5 -56t-35 -74t-28 -47t6.5 23q14 37 21 64t12.5 55.5t13.5 64.5t27 91q-37 -86 -67 -166t-46.5 -137.5 t-17.5 -85t16 -10.5q8 8 18 22t19 27q18 29 18 12q0 -6 -6 -18.5t-14 -24.5q-10 -10 -13.5 -27.5t0.5 -29.5z" />
<glyph unicode="Y" horiz-adv-x="1662" d="M1776 1628q14 -4 29.5 -19.5t27.5 -36t19.5 -44t7.5 -43.5q0 -61 -22.5 -151.5t-60.5 -191t-88.5 -202.5t-105.5 -190q-74 -117 -167 -233t-191.5 -215t-193.5 -177t-173 -117q-20 -10 -58 -22.5t-77 -22.5t-68.5 -16t-31.5 -2q-8 2 -19 4q-10 2 -21.5 4t-23.5 6 q-29 6 -64.5 22.5t-71.5 40t-65.5 50t-46.5 51.5q-12 18 -20 42.5t-10 46t2 37t14 15.5q53 -4 80 -94q12 -47 49 -81t76 -34q43 0 100 25.5t116.5 67.5t115 97.5t96.5 116.5q25 37 45 63t31.5 34t9.5 -2.5t-23 -44.5q-12 -20 -20 -35t-4 -15t43 58.5t92 144.5 q53 84 94 141.5t45 55.5q10 -6 10 16q-4 25 17 21q20 -4 8 12q-4 6 12.5 42t44.5 81q31 49 58.5 94t47 81t31 58.5t11.5 28.5t-19.5 -23.5t-46.5 -76.5q-14 -23 -33.5 -55.5t-41 -68.5t-45 -73t-44.5 -68q-20 -33 -42.5 -68.5t-45 -70.5t-42 -65.5t-31.5 -51.5 q-55 -86 -73 -98t32 70q18 31 38.5 66.5t32.5 56.5q29 51 63 109.5t66.5 114.5t62 104.5t50.5 78.5q59 90 89 144.5t26 58.5q-2 2 -21.5 -9t-43 -26.5t-45 -32t-28.5 -22.5q-4 -4 -29.5 -27.5t-60.5 -52.5q-16 -14 -45.5 -40t-65.5 -57.5t-76 -67.5t-77 -68q-37 -35 -75 -67 t-70.5 -58.5t-58 -45t-38.5 -24.5l-59 -33l-35 35q-16 14 -26.5 33.5t-10.5 36.5q0 27 28 91t76 150t109.5 186.5t128.5 198.5q59 86 89 128t42 65q-61 23 -167 33q-102 6 -210 -16.5t-212 -76.5q-53 -27 -114.5 -74.5t-120 -106t-106.5 -118t-73 -108.5 q-51 -106 -59.5 -185t22.5 -155q10 -29 -13.5 -25t-60.5 35q-39 33 -63.5 81t-34.5 105.5t-4 120t29 121.5q16 43 44.5 93.5t67.5 100.5t83 97t91 88t83 67.5t40 26.5t22.5 10.5t41.5 24.5q59 37 135 63.5t154.5 40t153.5 12.5t134 -18q115 -35 199 -109.5t125 -174.5 q-10 -29 -19.5 -51.5t-31 -53t-57.5 -77t-97 -121.5q-137 -170 -197.5 -248t-60.5 -88q0 -4 36 24.5t87 71.5q25 20 59.5 49t73.5 59.5t78 61.5t72 55q33 25 68.5 53.5t69.5 55t61.5 49.5t43.5 37q78 68 133.5 113t92 71.5t58.5 35.5t32 5zM813 1743q-10 -10 9.5 -23.5 t41.5 -11.5q25 0 0 8q-20 8 -30 23q-9 16 -21 4zM625 1745q-12 -8 8 -10q27 0 18 8q-8 8 -26 2zM915 1655q4 4 -15 15t-50 28q-41 18 -62.5 23t-35.5 -1q-25 -16 -29 2q-4 12 -48 2t-108.5 -37.5t-140.5 -67.5t-145 -85q-47 -31 -94.5 -72t-89.5 -88t-77.5 -96t-58.5 -96 q-18 -41 -32.5 -79t-14.5 -48t10 7t25 54q14 35 36.5 79t39.5 67q25 37 66.5 80.5t91.5 87t105.5 83t108.5 70.5q61 35 127 59.5t129.5 37t116.5 10.5t90 -21q20 -10 35.5 -14t19.5 0zM967 356l-23 -28q-10 -12 -21.5 -28.5t-15.5 -27.5l-14 -28l22 28q10 10 20.5 26.5 t16.5 29.5zM1241 496q41 57 50 73.5t5 16.5q-2 0 -15 -16.5t-31.5 -42t-41 -58.5t-43.5 -66l-22 -34l31 34q12 16 31.5 43t35.5 50zM1366 688q88 139 124 201.5t30 68.5q-4 4 -9.5 -1t-9.5 -15t-25.5 -49t-50.5 -84q-43 -68 -67.5 -110t-36.5 -63.5t-15 -28.5t-1 -7t20 25.5 t41 62.5zM1599 1112q23 49 36.5 86t11.5 41q-4 2 -16.5 -23.5t-28.5 -66.5q-16 -39 -34 -75t-26 -46q-16 -25 -18 -39t12 -6q4 4 22 41t41 88z" />
<glyph unicode="Z" horiz-adv-x="917" d="M1071 995q18 -10 32.5 -27.5t16.5 -29.5l4 -31l-53 27q-29 14 -49.5 21.5t-39.5 2t-39.5 -20.5t-49.5 -44q-37 -35 -75 -65.5t-84 -60.5t-105.5 -62.5t-136.5 -71.5l-181 -90l37 -25q20 -14 49 -46t56.5 -71t49 -76.5t27.5 -62.5q43 -164 -16 -291q-25 -47 -64.5 -92 t-90 -84t-106.5 -66.5t-110 -37.5q-33 -6 -50 -10.5t-29.5 -4.5t-25.5 4.5t-38 14.5q-78 29 -111.5 85t-11.5 124q12 37 51 84t96.5 95t130 95t152.5 88q31 16 52.5 30.5t21.5 18.5q0 8 -13.5 23.5t-34 32t-45 31t-46.5 22.5q-27 10 -75 18.5t-91 12.5q-45 4 -79 11t-44 15 q-16 14 -19.5 26.5t15 30t63.5 44t125 71.5q109 61 179.5 102.5t115.5 69t71.5 46t45.5 36.5l49 43l-76 -10q-33 -4 -81 -14.5t-85 -20.5q-33 -10 -51 -14t-29.5 -4t-18.5 5t-17 15q-27 27 -25 41.5t31 32.5q18 12 42.5 20.5t61.5 16.5t87 14t120 12q57 6 91 10.5t55.5 10.5 t35 14t25.5 21q35 31 69.5 79t65.5 104t54.5 114.5t35.5 111.5q8 35 12.5 65t-0.5 34q-10 18 -49 35.5t-88 32t-99 20.5t-85 2q-90 -12 -188.5 -73.5t-189.5 -153t-163.5 -203t-109.5 -226.5q-16 -51 -27.5 -97t-11.5 -62q0 -70 -62 14q-29 37 -30.5 94.5t17.5 126t57 142 t89.5 145.5t115 136.5t134.5 111.5q125 84 246 121.5t225.5 30.5t187.5 -59t132 -147q55 -111 48 -235.5t-77 -241.5q-20 -35 -33.5 -60.5t-13.5 -29.5t13.5 -14.5t31.5 -22.5zM367 129q45 119 18 119q-8 0 -48 -22.5t-91 -55.5t-101.5 -66.5t-76.5 -54.5 q-80 -66 -120 -132.5t-24 -109.5q10 -23 55.5 -18.5t104.5 33.5q39 18 82 55t83 80t72 89t46 83zM522 737q27 14 27 23q0 6 -27 -8q-29 -14 -28 -23q-1 -6 28 8zM602 795q12 8 19.5 15t3.5 9q-2 4 -11.5 -2t-19.5 -16q-16 -16 -15.5 -18t23.5 12zM961 1221q29 55 46 96 t15 45q-4 2 -24.5 -32t-47.5 -85q-14 -25 -30.5 -53.5t-34 -54t-33.5 -48t-29 -36.5q-27 -29 -43 -51.5t-12 -24.5q2 -4 -11.5 -22.5t-35.5 -43.5q-23 -23 -5.5 -5t64.5 65q33 33 57.5 61.5t45 57t39.5 59.5t39 72z" />
<glyph unicode="[" horiz-adv-x="1705" d="M1055 1839q-6 -4 -24.5 -48t-41.5 -103q-10 -29 -28.5 -77t-41 -106.5t-48 -122t-50.5 -120.5q-25 -59 -58.5 -142.5t-70.5 -176.5t-73.5 -188.5t-67.5 -179.5q-55 -145 -101.5 -262.5t-83 -212t-67.5 -168t-57 -135.5q-14 -33 -21.5 -57.5t-3.5 -28.5t55.5 -8t118.5 -8 q68 -4 117 -10.5t49 -10.5t-12.5 -12t-28.5 -16q-12 -6 -49 -10.5t-86 -8.5t-104.5 -6t-104.5 -2t-85 2t-46 8q-14 6 -25.5 13.5t-15.5 13.5q-2 2 4 23.5t17.5 57.5t26.5 81t34 96q43 119 86 242t88 260t95 291.5t110 339.5q76 242 130 402.5t95 260.5t71.5 151.5t61.5 75.5 q14 12 26.5 19.5t35 9.5t59.5 1t100 -3q53 -2 89 -5t60.5 -7t40 -9.5t25.5 -13.5q57 -43 34 -60.5t-136 -17.5q-35 0 -63.5 -4t-34.5 -8zM244 236q18 53 30.5 92t10.5 43q-4 2 -19.5 -38t-38.5 -100q-23 -57 -35 -97t-8 -36t22 43.5t38 92.5zM475 692q27 23 19 35 q-4 4 -11.5 -4t-15.5 -23q-12 -25 -11 -25.5t19 17.5zM580 934q23 59 37 108.5t14 59.5t-19.5 -36t-48.5 -124t-47 -134t-18 -60q0 -16 23.5 37t58.5 149zM756 1659q6 27 4 31t-13.5 -23t-33 -87t-58.5 -161q-16 -47 -42.5 -119.5t-57.5 -156.5t-63.5 -173t-61.5 -169 q-49 -133 -78.5 -217t-44 -129t-16.5 -57.5t4 -6.5q4 4 31.5 77t64.5 175q18 51 38 103.5t37 100.5t31.5 86t22.5 60q16 43 31.5 84t19.5 58q2 8 11.5 31.5t21.5 59.5t28.5 78t33.5 87q16 45 31.5 89t27.5 80.5t20.5 62.5t10.5 36z" />
<glyph unicode="\" horiz-adv-x="1705" d="M657 -279q-14 -8 -32.5 -11t-37 -2t-34.5 5t-25 15q-20 18 -37.5 42.5t-38 63.5t-45 101.5t-59.5 158.5t-83 232.5t-111 324.5q-92 266 -129 438.5t-19 245.5q6 23 17.5 30t48.5 7q111 0 161 -88q29 -49 70 -150.5t86 -233.5t90 -282.5t82 -295.5q14 -55 28.5 -110.5 t27 -100.5t21.5 -78t13 -45q8 -27 14.5 -73t10.5 -85q4 -61 0.5 -81t-19.5 -28zM106 1157q4 -10 8.5 -15t8.5 -1q6 6 -8 24q-19 19 -9 -8zM455 80q25 -53 35 -68.5t7 -1t-18.5 55t-42.5 104.5q-31 74 -74 189.5t-83.5 236.5t-74.5 228.5t-48 166.5q-12 49 -22.5 86t-14.5 41 q-6 6 -2 -19.5t14 -69.5t26.5 -104.5t35.5 -125.5q10 -39 30.5 -100.5t46 -132t53 -146.5t52 -142.5t46.5 -118.5t34 -79zM516 119q12 6 21 -13q8 -23 16 -22q4 0 0 15.5t-14 37.5q-10 23 -20.5 47.5t-16.5 40.5q-4 14 -12.5 32.5t-12.5 29.5q-6 12 -27.5 73.5t-48.5 137.5 q-12 37 -26.5 76.5t-26.5 74.5t-21.5 62.5t-15.5 44.5q-12 33 -22 66.5t-15 49.5q-4 16 -12 26.5t-16 10.5q-20 0 -21 17q0 14 15 4q18 -12 8 22q-4 14 -7 31.5t-3 28.5q0 23 -11.5 23.5t-21.5 -21.5q-8 -23 6 -13q4 4 9 2t5 -8q0 -4 -5 -9l-9 -9q-6 -2 -5 -19.5t7 -37 t13 -36t14 -16.5q12 0 4 -20q-4 -8 13 -68.5t44 -138.5q29 -78 49.5 -139.5t24.5 -71.5q6 -20 20 -14q6 4 7 2t-3 -10q-6 -10 7.5 -59.5t35 -101.5t43 -93t31.5 -35z" />
<glyph unicode="]" horiz-adv-x="1705" d="M1151 1741q10 -18 15 -33.5t6.5 -32t-2 -41t-9.5 -61.5q-14 -88 -57 -223.5t-121 -339.5q-12 -35 -31.5 -86.5t-40 -111.5t-42 -122.5t-40.5 -120.5q-20 -61 -45.5 -138t-55.5 -157.5t-59.5 -161.5t-56 -149.5t-48 -120t-32.5 -73.5q-20 -41 -66 -63.5t-138 -39.5 q-115 -20 -198 -20t-110 20q-18 16 -20 21.5t14 15.5q10 8 29.5 10t40.5 -2q20 -4 53 1t66 14.5t57.5 20.5t28.5 22q12 39 39.5 127t59.5 192.5t65.5 212t58.5 186.5q23 72 58.5 192t75.5 258t82 280.5t75 258t54.5 191.5t21.5 80t-33 10t-80 10q-186 14 -186 64q0 8 5 12 t29.5 7t76.5 4t149 1q74 2 126 -3t86.5 -18t58.5 -35.5t40 -57.5zM823 850q16 45 27.5 79t11.5 38q0 16 -13 -12.5t-46 -116.5q-18 -53 -28.5 -86t-4.5 -27t21.5 42t31.5 83zM610 502q84 244 142.5 411.5t95.5 276t55.5 167t25.5 86t4 32t-9 4.5q-16 0 -17 -27 q0 -6 -26.5 -88t-66.5 -205t-88 -267t-93 -276.5t-80 -231.5t-47 -132q-6 -18 -10 -35.5t-4 -23.5q0 -8 6 1t19 43.5t35.5 99.5t57.5 165z" />
<glyph unicode="^" horiz-adv-x="802" d="M127 1487q-27 0 -51.5 8t-40.5 21l-35 28l29 55q23 43 80 98.5t124.5 104.5t131 83t98.5 34q61 0 114.5 -30.5t93.5 -82t61.5 -118t17.5 -138.5q-4 -47 -10.5 -59t-30.5 -14q-16 -2 -41 3t-45 13q-16 8 -44 33.5t-55.5 56.5t-48 59.5t-20.5 38.5q0 33 -68 -28 q-94 -86 -155.5 -126t-104.5 -40z" />
<glyph unicode="_" horiz-adv-x="1230" d="M61 -104q-41 37 -55 92t8 90q6 12 11.5 10t15.5 -20q16 -29 76.5 -29t212.5 29q100 18 162.5 29.5t105.5 16.5t76 7t76 2q49 0 103 -8.5t103.5 -22.5t86 -32.5t53.5 -36.5q8 -10 15 -35t9 -50.5t0 -46t-10 -24.5q-4 -4 -24.5 -1t-43.5 7q-18 4 -68 7t-120 5t-150.5 2 h-161.5t-155 -2t-127 -6q-57 -4 -92 -5t-54.5 0t-31 6.5t-21.5 15.5zM563 35q-10 -4 -4 -6t23 -2q39 0 24 6q-8 4 -20.5 4t-22.5 -2zM424 20q-10 -4 -5 -6t23 -2q16 0 23.5 2t1.5 4q-8 4 -20.5 4t-22.5 -2z" />
<glyph unicode="`" horiz-adv-x="421" d="M221 1235q-156 104 -225.5 176t-69.5 111q0 27 24.5 57.5t58.5 54t70 33.5t56 -2q6 -4 20.5 -25.5t30.5 -48.5q8 -14 30 -43.5t45.5 -61.5t45 -60.5t29.5 -41.5q45 -66 45 -98.5t-45 -54.5q-39 -20 -59.5 -19.5t-55.5 23.5zM94 1573q-10 12 -19 16t-9 0q0 -8 38.5 -53 t88 -95t92.5 -91t51 -41q16 0 -29 51q-10 10 -31.5 34.5t-45 49t-42 46t-20.5 26.5q-18 18 -10 30q6 14 -13 6q-10 -4 -24.5 2.5t-26.5 18.5zM66 1526q12 -18 30.5 -40t34.5 -38t28.5 -26.5t16.5 -8.5q4 4 -14.5 24.5t-46.5 49.5q-29 29 -43 39t-6 0z" />
<glyph unicode="a" horiz-adv-x="1150" d="M203 653q-8 -4 -4 7.5t16 33.5q14 23 27.5 42.5t21.5 23.5q6 6 2 -5.5t-16 -33.5q-12 -23 -25.5 -42.5t-21.5 -25.5zM967 369q51 53 97 100t87 88v-2q-57 -78 -117 -156q-51 -66 -113.5 -139.5t-121.5 -130.5q-35 -31 -54 -47q-47 -41 -83 -53q-18 -2 -39 6 q-31 14 -53.5 57t-24.5 90q-4 53 9 118t46 149q10 35 12 47t3 19t6.5 18.5t23.5 46.5l-141 -162l-2 -4q-12 -6 -107 -111q-57 -66 -110.5 -120t-99.5 -93t-80.5 -61.5t-55.5 -24.5q-37 -4 -69.5 8.5t-56 39t-37 63.5t-9.5 80q2 31 8 60.5t16.5 63t27 73.5t38.5 93 q37 80 88 165t107.5 162t113 139.5t103.5 97.5q98 72 208.5 69.5t203.5 -74.5q10 -8 21 -18l22 -20q4 -2 8 -7q4 -4 7 -8t7 -10q0 -2 1 -2t1 -2q8 -16 8 -40t-18 -58q-4 -10 -10.5 -18.5t-10.5 -16.5q0 -2 2 -2h5q35 -4 67.5 -20.5t54.5 -35.5q27 -23 50 -47q6 -6 8 -12 q4 -12 -8 -20q-8 -4 -26.5 -31t-37.5 -58q-23 -37 -49 -79l-20.5 -41t-22.5 -41q-86 -147 -132 -241.5t-42 -117.5q0 -4 21.5 13.5t60.5 53.5t91 87t118 117zM702 303q10 16 13.5 26.5t-0.5 10.5q-4 -2 -11.5 -14.5t-15.5 -28.5q-29 -76 14 6zM836 565q2 6 -9.5 -12 t-29.5 -49q-51 -94 -66.5 -125t-11.5 -31q2 0 19.5 30t39.5 71q23 41 39.5 74.5t18.5 41.5zM860 602q12 14 12 29q0 4 -4 1t-8 -14q-12 -16 -12 -26q0 -4 4 -1t8 11zM795 614q8 12 7 13.5t-11 -9.5q-23 -23 -11 -22q5 0 15 18zM297 911q-10 -14 -15.5 -24t-0.5 -8q4 0 13 10 t19 24t16.5 24.5t2.5 8.5q-4 0 -14.5 -10.5t-20.5 -24.5zM78 573q-8 -31 10 -6q14 23 6 29q-10 6 -16 -23zM27 375q23 43 43 71.5t26 24.5q14 -4 10 21q-8 27 13 26q8 -2 12 6t2 19q-6 25 19 24q10 -2 14 0t-2 6q-8 6 -7 17.5t7 24t14 20.5t19 6q8 -2 22 11.5t28.5 34t25 42 t10.5 37.5q4 25 22 25q16 0 10 10q-4 6 4.5 22.5t22.5 38t33.5 42t36.5 34.5q16 12 17 16t-11 2q-10 0 -52 -45t-92 -108q-47 -61 -82.5 -102.5t-35.5 -34.5q-2 6 7 22.5t21 34.5q31 39 6 18q-10 -10 -26.5 -32.5t-28.5 -44.5q-16 -29 -17 -34t13 7q33 33 22.5 5t-65.5 -124 q-55 -92 -87 -155.5t-28 -79.5q0 -6 15.5 21.5t38.5 70.5zM57 68q14 2 53.5 35.5t93.5 88t118.5 126t130 147.5t127 152.5t108.5 144.5q14 20 24.5 32.5t20.5 22.5q10 12 27.5 36t27 48.5t5 46t-36.5 27.5l14 6q-16 -4 -25 -6q-6 -2 -10 -2l-76 -53q-66 -45 -146.5 -131.5 t-162.5 -196t-157.5 -230t-131.5 -235.5q-18 -39 -19 -50t15 -9zM770 569q10 23 3 17t-23 -33q-10 -16 -12.5 -20.5t7.5 4.5q6 6 13.5 15t11.5 17zM717 481q16 35 14 35t-11 -14.5t-20 -36.5q-10 -23 -14 -33t0 -4q6 6 14.5 21.5t16.5 31.5zM651 369q-8 -10 -8 -25 q4 -8 10 6q6 12 6 25q0 10 -8 -6zM627 309q-4 -6 -6.5 -12t0.5 -10q0 -10 8 6q8 12 8 22q-2 8 -10 -6zM616 205q4 8 16.5 32.5t29 57.5t37 73t42.5 81q49 96 79 154.5t45.5 89t19.5 40.5t2 12q-6 4 -15 -16q-12 -23 -20 -16q-4 2 -5 -1t3 -7q2 -4 -17.5 -47.5t-48.5 -98.5 q-16 -27 -31.5 -57.5t-30.5 -60t-28.5 -54.5t-21.5 -41q-18 -37 -32.5 -58.5t-18.5 -19.5q-16 8 -5 -4q4 -4 1 -18.5t-9 -29.5t-14 -26.5t-12 -9.5q-8 2 -2 -10q8 -12 10 -12t9 13.5t17 33.5z" />
<glyph unicode="b" horiz-adv-x="1177" d="M705 207q92 35 211.5 114.5t261.5 229.5q-66 -104 -154 -193q-76 -76 -183.5 -147.5t-248.5 -99.5q-74 -51 -172 -90t-221 -39q-37 6 -65 15t-48 19q-23 10 -41 23q-23 -12 -35 -13t-28 7q-31 14 -54.5 57t-25.5 90q-2 61 14 135t57 172.5t107.5 226.5t165.5 298 q59 104 100 174.5t76 127t70.5 110t85.5 122.5q27 39 47 73t24 44q8 20 35 14t58.5 -29.5t61.5 -61.5t46 -77q8 -20 11 -33.5t3 -25.5t-4 -26.5t-12 -34.5q-4 -12 -16.5 -34t-29 -46.5t-37 -51t-40.5 -51.5q-53 -61 -83 -97t-51.5 -63.5t-40 -55t-48.5 -72.5 q-145 -219 -255 -399.5t-165 -291.5l344 439q6 4 22.5 24.5t47.5 54.5q18 23 46.5 56t60.5 71.5t65.5 78.5t64.5 75q59 74 109.5 124t62.5 54q23 2 64 -28.5t65 -69.5q90 -143 -129 -604q-20 -41 -39.5 -77t-40.5 -69l-37 -51q-8 -12 -20 -29q-22 -28 -63 -69zM315 754 q16 23 21.5 37t1.5 14q-6 0 -18.5 -17.5t-24.5 -42.5q-52 -97 20 9zM543 1124q4 10 -15.5 -15.5t-48.5 -70.5q-43 -66 -70.5 -107.5t-42 -66t-19.5 -35t-1 -10.5t32 41t66 101q37 57 66 105t33 58zM582 1178q10 10 15 22t7 17q0 6 -6 1.5t-14 -16.5q-10 -10 -15.5 -22.5 t-7.5 -16.5q0 -6 6.5 -1.5t14.5 16.5zM487 1212q-35 -29 -18 -28q6 0 25 22q12 16 10.5 18t-17.5 -12zM420 1122q-35 -49 -8 -24q10 8 22 21.5t17 23.5q16 31 6 24.5t-37 -45.5zM338 997q-18 -31 -25.5 -46t0.5 -7q8 10 23.5 30.5t28.5 43.5q14 23 21 38t3 15t-18.5 -21.5 t-32.5 -52.5zM254 860q-14 -18 -14 -35q0 -14 14 9q14 18 14 34q0 12 -14 -8zM213 776q-14 -18 -14 -35q0 -14 14 9q4 8 8 18t4 16t-4 4t-8 -12zM127 588q-4 4 -6 1t2 -14q8 -23 12 -22q4 0 16.5 19.5t28.5 48.5q8 12 28.5 46.5t49.5 82t63.5 103.5t69.5 114 q86 137 136.5 219t76 126t32.5 58t5 19q-4 4 -10 -3.5t-13 -19.5q-6 -12 -15 -19.5t-13 -3.5q-12 6 -6 -10q4 -8 -30 -68.5t-85 -138.5q-25 -39 -52.5 -82t-53 -84.5t-48 -77.5t-36.5 -61q-31 -53 -53.5 -80.5t-30.5 -23.5q-12 6 -7 -6q6 -8 -1 -30t-17 -43.5t-23.5 -37.5 t-19.5 -12zM911 735q14 18 7 27q-4 4 -8.5 -2t-6.5 -19q-4 -16 -3 -17t11 11zM295 213q68 37 128 88t116.5 124t114 172t122.5 232q41 86 67.5 145.5t22.5 59.5q-41 -6 -178 -161.5t-360 -452.5q-66 -86 -103 -138.5t-54 -79t-15 -34.5t14 -6q16 2 52 16.5t73 34.5zM516 217 q10 20 10 21.5t-16 -15.5q-20 -25 -21 -30q0 -10 8.5 -3t18.5 27zM596 293q27 25 64.5 70t66.5 83q29 41 50.5 67t25.5 24q4 -4 -1 -15.5t-16 -27.5q-16 -25 -16 -27t16 14q10 10 19.5 25.5t15.5 29t5 19.5t-9 0q-12 -10 -15 -8t0 11t13 23.5t23 26.5q16 16 31.5 37t19.5 35 q12 35 -21 -14q-31 -47 -27.5 -32t38.5 103q27 66 41 87.5t4 -17.5q-6 -23 8 -12q10 10 0 43q-4 14 -4 27.5t6 17.5q14 14 10 45q-4 33 -33 -56q-53 -162 -128.5 -298t-186.5 -265l-61 -73z" />
<glyph unicode="c" horiz-adv-x="774" d="M586 369l101 101t89 91l-2 -6q-51 -70 -104 -139q-47 -59 -103.5 -128t-113.5 -128q-43 -41 -73 -66.5t-42 -34.5q-27 -18 -42 -25t-30 -5q-29 -8 -53.5 -8.5t-46.5 -2.5q-59 -4 -100 21q-39 25 -77 69t-48 78q-12 41 -8 101.5t19 128t41.5 138.5t63.5 134 q80 141 165 244.5t165 164t149.5 74t118.5 -27.5q61 -53 77 -112.5t-9 -151.5q-6 -27 -27.5 -66t-46 -75t-47 -62.5t-35.5 -26.5q-29 -2 -24.5 29t39.5 78q18 23 34.5 57.5t31 71.5t21.5 70.5t7 54.5q-2 35 -37 13t-87 -81t-116.5 -146t-128 -184.5t-118 -196t-85.5 -177.5 q-23 -55 -10.5 -92t44.5 -53.5t75 -14.5t82 20q6 4 11 6t11 7q31 25 101 92.5t168 165.5zM35 401q10 25 22.5 47.5t16.5 28.5q6 8 16 29.5t21 44.5q10 23 22 43t21 24q16 12 8 27q-4 4 0 11.5t12 11.5q10 4 13 12t-1 14q-6 18 11 25q6 2 28.5 29.5t44.5 64.5q31 47 54.5 82 t44 62.5t39 50t38.5 45.5q18 20 28.5 33.5t6.5 13.5q-6 0 -22.5 -13.5t-37 -31t-37.5 -36t-26 -30.5q-18 -23 -28 -16q-12 8 -8 -6q2 -6 -5.5 -22.5t-19.5 -33.5q-31 -43 -64.5 -98t-66.5 -114.5t-63.5 -120t-55.5 -117.5q-35 -84 -41 -106t29 46z" />
<glyph unicode="d" horiz-adv-x="1136" d="M1479 1511q8 -20 12 -33.5t4 -25.5t-4 -26.5t-12 -34.5q-10 -27 -47 -80.5t-78 -102.5q-53 -61 -83 -97t-50.5 -63.5t-39 -55t-48.5 -72.5q-106 -160 -194.5 -301.5t-151 -250t-95.5 -180t-28 -90.5q0 -4 21.5 13.5t60 53.5t91 87t117.5 117q51 53 96.5 99t86.5 87 q-4 -6 -32 -44t-70 -92t-94 -117.5t-105.5 -121t-103.5 -99.5t-87 -52q-14 -2 -35 6q-31 14 -53 57t-25 90q-4 78 25 178.5t100 247.5l-165 -190l-3 -4q-12 -6 -106 -111q-57 -66 -110.5 -120t-99.5 -93t-81 -61.5t-55 -24.5q-37 -4 -70 8.5t-56.5 39t-36.5 63.5t-9 80 q2 31 8 60.5t16.5 63t26.5 73.5t39 93q37 80 88 165t107.5 162t112.5 139.5t104 97.5q98 72 208.5 69.5t202.5 -74.5q10 -8 21.5 -18t21.5 -20q4 -2 8 -7q4 -4 7.5 -8t7.5 -10q0 -2 1 -2t1 -2t1 -4t1 -4q8 10 14 22.5t12 22.5q59 104 101.5 175t77 127t70.5 109.5t83 122.5 q27 39 48.5 73t25.5 44q8 20 34.5 14t58.5 -29.5t62 -61.5t44 -77zM1118 1214q-35 -29 -18 -28q4 0 22 22q14 16 13 18t-17 -12zM1049 1124q-35 -47 -7 -24q10 8 21.5 21.5t17.5 23.5q16 31 5.5 24.5t-37.5 -45.5zM967 999q-18 -31 -25.5 -46t0.5 -7q10 10 24.5 30.5 t28.5 43.5q12 23 19.5 38t5.5 15q-4 0 -19.5 -21.5t-33.5 -52.5zM883 862q-4 -8 -8.5 -18t-4.5 -17q0 -4 4.5 -3t8.5 12q14 18 14 34q0 12 -14 -8zM842 778q-14 -18 -15 -35q0 -14 15 9q14 18 14 34q0 12 -14 -8zM285 911q-10 -14 -15.5 -24t-1.5 -8q4 0 13.5 10t19.5 24 t16.5 24.5t1.5 8.5q-4 0 -14 -10.5t-20 -24.5zM66 573q-8 -31 10 -6q14 23 6 29q-10 6 -16 -23zM14 375q23 43 43.5 71.5t26.5 24.5q14 -4 10 21q-8 27 12 26q8 -2 12.5 6t2.5 19q-6 25 18 24q10 -2 14.5 0t-1.5 6q-8 6 -7.5 17.5t7 24t14.5 20.5t18 6q8 -2 22.5 11.5t29 34 t24.5 42t10 37.5q4 25 23 25q16 0 10 10q-4 6 4 22.5t22.5 38t34 42t35.5 34.5q16 12 17.5 16t-10.5 2q-10 0 -52.5 -45t-91.5 -108q-47 -61 -83 -102.5t-36 -34.5q-2 6 7.5 22.5t21.5 34.5q31 39 6 18q-10 -10 -26.5 -32.5t-28.5 -44.5q-16 -29 -17.5 -34t13.5 7 q33 33 22.5 5t-65.5 -124q-55 -92 -87 -155.5t-28 -79.5q0 -6 15 21.5t38 70.5zM676 762q14 20 24.5 32.5t20.5 22.5q10 12 27.5 36t26.5 48.5t5 46t-37 27.5l15 6q-16 -4 -25 -6q-6 -2 -10 -2l-76 -53q-66 -45 -146.5 -131.5t-162.5 -196t-158 -230t-131 -235.5 q-18 -39 -19 -50t15 -9q14 2 53 35.5t93.5 88t119 126t130 147.5t127 152.5t108.5 144.5zM946 756q14 23 20.5 37t0.5 14q-4 0 -17.5 -17.5t-25.5 -41.5q-27 -51 -22 -49t44 57zM1171 1126q4 10 -15 -15.5t-48 -70.5q-43 -66 -70.5 -107.5t-42 -66t-19.5 -35t-1 -10.5 t32.5 41t65.5 101q39 57 66.5 105t31.5 58zM1212 1180q8 10 14.5 22t6.5 17q0 12 -21 -15q-8 -10 -14 -22.5t-6 -16.5q0 -12 20 15zM1022 969q86 137 136 219t76 126t32 58t4 19q-6 6 -23 -23q-14 -29 -28 -22q-4 4 -7.5 0.5t0.5 -11.5t-29.5 -68.5t-82.5 -138.5 q-25 -39 -52.5 -81.5t-54 -84.5t-48 -78t-36.5 -61q-31 -53 -54.5 -80.5t-29.5 -23.5q-16 6 -6 -6q4 -8 -2 -29.5t-17.5 -43.5t-23.5 -38t-18 -12q-14 10 -6 -12q10 -23 14 -23q2 0 14.5 19.5t28.5 48.5q8 12 28.5 47t49 82t63.5 103.5t72 113.5z" />
<glyph unicode="e" horiz-adv-x="770" d="M770 553q-10 -12 -52 -70.5t-101.5 -132.5t-127 -149.5t-127.5 -122.5l-28 -21q-33 -23 -53 -28h-2h-11q-29 -8 -53.5 -8.5t-46.5 -2.5q-59 -4 -100 21q-39 25 -77 69t-48 78q-12 41 -8 101.5t19 128t42 138.5t63 134q80 141 165 244.5t165 164t149.5 74t118.5 -27.5 q61 -53 83 -114.5t-15 -149.5q-27 -63 -75 -127t-107.5 -123.5t-123 -112.5t-118.5 -94t-97 -67.5t-59 -32.5q-25 -45 -39 -84q-23 -55 -10 -92t44.5 -53.5t74.5 -14.5t82 20q6 4 11 6t11 7q31 25 100.5 92t168.5 166q51 51 96 97t86 87zM678 1010q6 41 -38 4t-113.5 -122 t-151.5 -199.5t-152 -231.5q49 29 119 79t137.5 119.5t123 158t75.5 192.5zM37 401q10 25 22.5 47.5t16.5 28.5q6 8 16 29.5t21 44.5q10 23 22 43t21 24q16 12 8 27q-4 4 0 11.5t12 11.5q10 4 13.5 12t-1.5 14q-6 18 11 25q6 2 28.5 29.5t44.5 64.5q31 47 54.5 82t44 62.5 t39 50t39.5 45.5q18 20 28 33.5t6 13.5q-6 0 -22.5 -13.5t-37 -31t-37.5 -36t-26 -30.5q-18 -23 -28 -16q-12 8 -8 -6q2 -6 -5.5 -22.5t-19.5 -33.5q-31 -43 -64.5 -98t-66.5 -114.5t-63.5 -120t-55.5 -117.5q-35 -84 -41 -106t29 46z" />
<glyph unicode="f" horiz-adv-x="849" d="M762 676q57 -35 -98 -82q-23 -6 -58 -17.5t-77 -23.5t-88 -25.5t-89 -25.5q-96 -29 -156.5 -52.5t-70.5 -35.5q-39 -51 -63.5 -87t-41 -73t-30 -84t-31.5 -121q-10 -41 -22.5 -83t-24.5 -81t-23.5 -68.5t-19.5 -45.5q-23 -43 -53.5 -93.5t-62.5 -94.5t-63.5 -79.5 t-51.5 -52.5q-18 -14 -42 -24.5t-48.5 -16.5t-46 -6t-36.5 6q-10 4 -14 23.5t-2 47t10.5 62.5t22.5 72q33 86 103.5 226.5t181.5 342.5q43 76 66.5 120t32.5 66.5t6 32t-13 17.5t-14.5 13t0.5 11.5t22.5 15.5t48.5 25q12 6 29.5 28t27.5 44q37 74 89.5 163t119.5 200 q80 129 132.5 226t62.5 132q6 29 30.5 44t59.5 16t76 -12t82 -40q94 -61 69 -147q-2 -8 -14 -27.5t-30.5 -44.5t-42 -54.5t-50.5 -60.5q-63 -74 -117.5 -138t-93.5 -112.5t-60.5 -77t-19.5 -30.5t60.5 11t140.5 34q76 18 127 29.5t85 15.5t52.5 2t30.5 -10zM-129 281 q-10 -23 -9 -29t11 -2q14 33 34.5 70.5t45.5 66.5q29 33 42 55.5t22.5 41t18.5 37t32 44.5q20 25 49.5 76t58.5 106.5t54.5 104.5t39.5 70q-41 -59 -90 -134t-90 -141q-20 -33 -46 -72.5t-42 -66.5q-43 -66 -79 -130t-52 -97zM-315 -403q16 25 36.5 65.5t40 86.5t38 92 t29.5 82t15 56.5t-4 16.5q-12 -6 -34.5 -41t-50 -84t-57.5 -105.5t-54.5 -107.5t-40 -91t-15.5 -54q0 -23 3 -24t26 17q10 10 31 37t37 54zM242 764q-16 -10 -6 4q16 12 26 12q14 0 23 19q6 20 -13 8q-8 -4 -10 -3t4 9q8 16 21 8q6 -4 18 7.5t23 27.5q29 39 29.5 51.5 t-27.5 -20.5q-12 -14 -20.5 -19.5t-8.5 -1.5q0 6 7 16.5t16.5 19.5t20.5 16.5t17 7.5t23.5 19.5t35 44t29 44t5.5 19.5t-8.5 8t2.5 18q8 27 -11 41q-10 10 -19 3t-26 -33q-4 -4 -6 -9.5t-6 -9.5q-2 -6 -2 -13t-2 -11q-2 -6 -4 -11q-113 -180 -209 -336q-41 -68 -82 -135 t-78 -127.5t-65.5 -109.5t-42.5 -78q0 -2 -2 -4q-29 -57 -34 -54t5 37q-2 -2 -6 -2q-20 -10 -25.5 -16t4.5 -16q14 -20 -2 -37q-18 -20 8 -2q10 8 17.5 17t7.5 13t5 15.5t15 21.5q8 10 20.5 25.5t22.5 27.5l21 27q-2 0 -4 2q-4 2 7 23.5t25.5 45t29 43t20.5 19.5 q2 0 -4.5 -14t-16.5 -33.5t-21.5 -40t-19.5 -33.5q-6 -12 -14 -12l-10 -27q-10 -33 10 -5t88 137q35 53 58.5 101t25.5 64q2 14 6 26.5t8 16.5t5 0t-3 -14q-12 -35 4.5 -19.5t57.5 81.5q84 129 37 100zM72 512q10 20 18 16q8 -8 -10 -24q-18 -19 -8 8z" />
<glyph unicode="g" horiz-adv-x="1132" d="M772 205q35 33 77 73.5t91 90.5q53 55 101.5 103t91.5 93l-7 -10q-47 -66 -98 -133q-43 -57 -98.5 -123t-110.5 -125q-47 -47 -80.5 -75.5t-48.5 -39.5q-35 -23 -51 -28.5t-33 0.5q-98 -139 -214 -271.5t-251 -240.5q-33 -31 -73 -58q-133 -82 -256 -49q-41 12 -62 39 q-8 27 -9 46.5t3 35.5q6 23 17.5 37t21.5 22q35 39 90 80t114.5 79t116 67.5t93.5 48.5q14 29 29.5 57.5t31.5 59.5q12 25 30.5 58.5t39 69t41 72.5t39.5 68q12 23 23 44t22 40l82 135l-48 -53l-2 -4q-12 -6 -106 -111q-57 -66 -110.5 -120t-99.5 -93t-81 -61.5t-55 -24.5 q-37 -4 -70 8.5t-55.5 39t-35.5 63.5t-9 80q2 61 22.5 123.5t67.5 166.5q37 80 87 165t106.5 162t113.5 139.5t105 97.5q98 72 207.5 69.5t201.5 -74.5q16 -12 34.5 -30.5t35.5 -36.5q-10 -10 -27 -2q-16 6 -33.5 7t-31.5 -1q-16 -2 -33 -8l-76 -53q-66 -45 -146.5 -131.5 t-162.5 -196t-157 -230t-130 -235.5q-18 -39 -20 -50t14 -9q14 2 53 35.5t93.5 88t119 126t131 147.5t128 152.5t108.5 144.5q23 33 37 49t23 22.5t14.5 7.5t11.5 3l2 4h8q41 10 77 -3.5t64 -37.5q43 -29 63.5 -54.5t26 -45t1 -31.5t-10.5 -14q-4 -2 -14 -14.5t-21 -29.5 q-12 -18 -24 -38q-53 -104 -123 -227.5t-158 -254.5q25 11 121 107zM283 911q-10 -14 -16.5 -24t-2.5 -8q4 0 14.5 10t20.5 24t15 24.5t1 8.5q-4 0 -13 -10.5t-19 -24.5zM61 573q-8 -31 11 -6q16 20 8 29q-4 4 -9.5 -3.5t-9.5 -19.5zM12 375q23 43 42.5 71.5t25.5 24.5 q14 -4 10 21q-8 27 12 26q8 -2 12.5 6t2.5 19q-6 25 18 24q10 -2 14.5 0t-2.5 6q-6 6 -6 17.5t6.5 24t14.5 20.5t18 6q8 -2 23.5 11.5t29 34t24.5 42t11 37.5q0 25 21 25q20 0 10 10q-4 6 4 22.5t23.5 38t34 42t36.5 34.5q16 12 17.5 16t-13.5 2q-10 0 -52 -45t-91 -108 q-47 -61 -82 -102.5t-37 -34.5q0 16 31 57q27 37 4 18q-10 -10 -26.5 -32.5t-28.5 -44.5q-16 -29 -17.5 -34t13.5 7q33 33 22.5 5t-65.5 -124q-55 -92 -86 -155.5t-29 -79.5q0 -6 16 21.5t39 70.5zM-129 -526q57 20 124.5 96t154.5 217q-61 -33 -122 -77t-110 -86t-83 -72.5 t-40 -36.5q4 -43 19.5 -49t56.5 8zM803 537q18 23 18 34q0 10 -18 -12q-18 -23 -19 -35q0 -4 5.5 -0.5t13.5 13.5zM721 559l10 16l-14 -12q-33 -27 -17 -26q7 -1 21 22zM684 502q14 29 5 22.5t-32 -41.5q-29 -41 -6 -20q10 6 19.5 17.5t13.5 21.5zM610 391q10 20 17.5 33.5 t3.5 13.5t-16.5 -19.5t-28.5 -45.5q-16 -27 -21.5 -41.5t2.5 -5.5q6 10 19.5 28.5t23.5 36.5zM516 252q-12 -16 -12 -31q0 -4 4 -3t8 9t8 17.5t2 13.5q0 10 -10 -6zM479 178q-10 -16 -10 -31q0 -4 4 -3t8 10q10 16 11 30q0 4 -4.5 3t-8.5 -9zM418 -18q4 2 14 18t25 41 q6 12 23.5 43t42 72t54 91t60.5 101q74 121 117 193.5t64.5 111.5t26.5 52.5t3 15.5q-2 4 -8 -3t-11 -18q-14 -25 -26 -20q-12 8 -4 -8q4 -6 -26 -59.5t-71 -123.5q-23 -35 -46 -72.5t-44.5 -74.5t-40 -69.5t-30.5 -53.5q-29 -47 -48.5 -72.5t-25.5 -21.5q-12 6 -6 -6 q4 -6 -1 -24.5t-14.5 -38t-19.5 -34t-16 -10.5q-12 8 -4 -12q8 -18 12 -18zM575 162q12 18 17.5 31.5t1.5 13.5t-15.5 -15.5t-21.5 -37.5q-23 -45 -19 -43t37 51zM600 219q4 0 27.5 37t56.5 88q33 53 57.5 94t26.5 51q4 10 -12.5 -12t-42.5 -63q-72 -117 -95.5 -156 t-17.5 -39z" />
<glyph unicode="h" horiz-adv-x="1148" d="M670 96q0 -4 21.5 13.5t60.5 53.5t92 87t117 117q53 53 99 101t89 89l-2 -4q-53 -74 -111 -147q-49 -63 -108.5 -134t-118.5 -131q-29 -27 -49.5 -45t-32.5 -28l-20 -15q-14 -10 -23 -12q-12 -10 -25 -12q-18 -6 -41 4q-31 14 -54 57t-25 90q-2 53 11 117.5t44 148.5 q12 35 30.5 81t41 94.5t46 95.5t42.5 84q4 8 9 15t9 13q10 16 19 39q14 37 40 88q-16 -10 -57 -43.5t-115.5 -106.5t-184 -189.5t-259.5 -294.5q-31 -37 -58.5 -80t-51 -83t-42 -73t-28.5 -47q-23 -12 -35 -13t-29 7q-31 14 -54 57t-26 90q-2 61 14.5 135t57.5 172.5 t107.5 226.5t165.5 298q59 104 100 174.5t75.5 127t70.5 110t85 122.5q27 39 47.5 73t24.5 44q8 20 34.5 14t58.5 -29.5t61.5 -61.5t46.5 -77q8 -20 11 -33.5t3 -25.5t-4 -26.5t-12 -34.5q-4 -12 -16.5 -34t-29 -46.5t-37 -51t-40.5 -51.5q-53 -61 -83 -97t-51.5 -63.5 t-40 -55t-48.5 -72.5q-98 -147 -180.5 -278.5t-143.5 -238.5q51 68 127 157t170 186.5t204.5 194.5t231.5 181q2 6 10 6l4 4l-2 -2q14 0 41 -8q31 0 74 -53q88 -102 4 -287q-6 -16 -24.5 -49t-44 -77t-56 -95t-63.5 -104h2q-86 -147 -133 -241.5t-43 -117.5zM305 754 q16 23 21.5 37t1.5 14q-6 0 -18.5 -17.5t-24.5 -42.5q-52 -97 20 9zM532 1124q4 10 -15 -15.5t-48 -70.5q-43 -66 -70.5 -107.5t-42 -66t-19.5 -35t-1 -10.5t31.5 41t66.5 101q37 57 65.5 105t32.5 58zM571 1178q10 10 15.5 22t7.5 17q0 6 -6 1.5t-15 -16.5 q-10 -10 -15 -22.5t-7 -16.5q0 -6 6 -1.5t14 16.5zM477 1212q-35 -29 -18 -28q6 0 24 22q12 16 11 18t-17 -12zM410 1122q-35 -49 -9 -24q10 8 22.5 21.5t16.5 23.5q16 31 6.5 24.5t-36.5 -45.5zM328 997q-18 -31 -25.5 -46t0.5 -7q8 10 23.5 30.5t27.5 43.5q14 23 21.5 38 t3.5 15t-18.5 -21.5t-32.5 -52.5zM244 860q-14 -18 -15 -35q0 -14 15 9q14 18 14 34q0 12 -14 -8zM203 776q-14 -18 -15 -35q0 -14 15 9q4 8 8 18t4 16t-4 4t-8 -12zM117 588q-4 4 -6 1t2 -14q8 -23 12 -22q4 0 16.5 19.5t28.5 48.5q8 12 28.5 46.5t49 82t63.5 103.5t70 114 q86 137 136 219t75.5 126t33 58t5.5 19q-4 4 -10.5 -3.5t-12.5 -19.5t-15 -19.5t-13 -3.5q-12 6 -7 -10q4 -8 -29.5 -68.5t-84.5 -138.5q-25 -39 -52.5 -82t-53 -84.5t-48 -77.5t-37.5 -61q-31 -53 -53 -80.5t-31 -23.5q-12 6 -6 -6q6 -8 -1 -30t-17 -43.5t-23.5 -37.5 t-19.5 -12zM748 375q10 20 14 34.5t0 12.5q-4 0 -13.5 -16.5t-19.5 -38.5q-18 -47 -14 -45t33 53zM915 717q2 10 -12 -14.5t-37 -65.5q-33 -61 -53 -100t-31.5 -61.5t-14.5 -31t1 -8.5t24.5 39t49.5 92t50 97.5t23 52.5zM946 766q6 10 11.5 21.5t3.5 15.5q0 4 -5.5 0 t-11.5 -15q-14 -23 -14 -34q0 -6 5 -2t11 14zM862 784q10 16 10 17l-14 -13q-16 -14 -20 -22t6 -6q4 -1 18 24zM805 705q-29 -47 -4 -23q8 8 17 20.5t13 22.5q10 29 2 22t-28 -42zM743 588q-14 -29 -19 -43.5t1 -3.5q8 8 19.5 27.5t21.5 39.5t14 33.5t2 13.5q-4 0 -15.5 -19 t-23.5 -48zM680 461q-8 -20 -8 -31q0 -4 4 -3t8 11q8 20 8 31q0 4 -4 3t-8 -11zM651 385q-4 -8 -7 -17.5t-1 -13.5q0 -4 3 -3t7 9q10 20 11 33q-3 8 -13 -8zM637 248q6 12 21.5 44t37 75l47 94t52.5 104q63 127 101 203t56.5 117t22.5 54t2 15q-6 2 -16 -22q-14 -27 -25 -21 q-14 4 -4 -10q4 -6 -20.5 -61.5t-63.5 -126.5q-18 -37 -39 -77t-40 -79t-35.5 -71.5t-26.5 -55.5q-23 -47 -40.5 -74.5t-25.5 -23.5q-6 4 -7 1t3 -7q6 -6 2 -25.5t-12.5 -39t-17.5 -35t-15 -11.5q-10 2 -4 -12q12 -18 14 -17q2 0 12.5 17.5t20.5 44.5z" />
<glyph unicode="i" horiz-adv-x="520" d="M559 1503q35 -4 67.5 -21.5t57.5 -35.5q29 -23 53 -47q-63 -80 -123 -137q-51 -49 -103 -85t-85 -20q-10 6 -18 12q-18 12 -17 21q23 92 49 162q12 31 25.5 58.5t28 49t31 33.5t34.5 10zM45 96q0 -4 21.5 13.5t60.5 53.5t92 87t117 117q51 53 97 99l87 87 q-96 -135 -188 -246q-39 -47 -81 -93t-82 -85t-76 -66.5t-64 -35.5q-16 -2 -35 6q-31 14 -54.5 57t-25.5 90q-2 53 11.5 117.5t43.5 148.5q12 35 30.5 81t41 94.5t46.5 95.5t42 84q4 8 9 15t9 13q31 66 56 119q23 47 41 87t22 48q2 8 3 18.5t6.5 18.5t17.5 9t37 -9 q31 0 73 -53q88 -102 5 -287q-6 -16 -24.5 -49t-44.5 -77t-56.5 -95t-63.5 -104h2q-86 -147 -133 -241.5t-43 -117.5zM123 375q10 20 14 34.5t0 12.5q-4 0 -13 -16.5t-20 -38.5q-38 -96 19 8zM291 717q2 10 -12.5 -14.5t-36.5 -65.5q-33 -61 -53.5 -100t-32 -61.5t-14.5 -31 t1 -8.5t25.5 39t50.5 92t49.5 97.5t22.5 52.5zM322 766q6 10 11 21.5t3 15.5q0 4 -5 0t-12 -15q-14 -23 -14 -34q0 -6 5.5 -2t11.5 14zM233 788q-16 -14 -19 -22t5 -6q4 0 19 24q10 16 10 17q-1 -1 -15 -13zM180 705q-29 -47 -4 -23q8 8 17.5 20.5t13.5 22.5q10 29 1.5 22 t-28.5 -42zM119 588q-14 -29 -19.5 -43.5t0.5 -3.5q8 8 19.5 27.5t21.5 39.5t15.5 33.5t1.5 13.5t-14.5 -19t-24.5 -48zM55 461q-8 -20 -8 -31q0 -4 4 -3t8 11q8 20 9 31q0 4 -4.5 3t-8.5 -11zM27 385q-4 -8 -7.5 -17.5t-1.5 -13.5q0 -4 3.5 -3t7.5 9q10 20 10 33 q-2 8 -12 -8zM12 248q6 12 21.5 44t37 75l47 94t52.5 104q63 127 101 203t56.5 117t22.5 54t2 15t-7 -5t-9 -17t-12.5 -17.5t-12.5 -3.5q-14 4 -4 -10q4 -6 -20.5 -61.5t-63.5 -126.5q-18 -37 -38.5 -77t-39 -79t-35 -71.5t-26.5 -55.5q-23 -47 -41 -74.5t-27 -23.5 q-6 4 -7 1t3 -7q6 -6 2 -25.5t-12 -39t-17.5 -35t-15.5 -11.5q-10 2 -4 -12q12 -18 15 -17q4 0 13 17.5t19 44.5z" />
<glyph unicode="j" horiz-adv-x="702" d="M510 358q53 55 101 103.5t91 93.5l-4 -10q-47 -66 -98 -133q-43 -57 -98.5 -123t-110.5 -125q-47 -47 -81 -76t-48 -39q-33 -23 -49 -28t-33 -1q-98 -141 -214 -272t-249 -240q-18 -16 -37.5 -30.5t-37.5 -26.5q-63 -41 -128 -53t-126 4q-41 12 -62 39q-8 25 -9 44t3 36 l-4 2q14 43 72.5 94t130 98t142.5 86t112 60q16 27 30.5 54.5t30.5 57.5q12 25 30.5 59t39 69.5t41 72.5t39.5 68q12 23 23 44t22 40l245 409q10 16 19.5 31.5t19.5 30.5l129 209q4 14 -8 16l-530 -604v26l497 619q18 8 35 14q14 4 28.5 7t24.5 -1q41 -23 74 -55 q29 -29 52.5 -68.5t25.5 -95.5q-45 -113 -106 -239q-53 -109 -130 -247t-176 -286q14 10 44 36t71 67q35 33 77 73.5t89 89.5zM-553 -537q57 20 125 96t154 222q-59 -31 -118 -74t-108 -83t-82.5 -72.5t-46.5 -45.5q4 -45 18.5 -52t57.5 9zM379 526q16 20 16 35q0 4 -5 1 t-11 -13q-18 -23 -19 -35q0 -4 5.5 -1t13.5 13zM291 553q-33 -27 -17 -27q4 0 23 23l10 16zM231 473q-25 -39 -4 -20q8 6 18.5 17t14.5 22q14 29 4 22.5t-33 -41.5zM162 362q-16 -27 -22.5 -41t1.5 -6q8 10 21.5 28.5t23.5 37.5q10 20 16.5 33.5t4.5 13.5q-4 0 -16.5 -19.5 t-28.5 -46.5zM90 242q-10 -16 -10 -31q0 -4 4 -3t8 9q10 16 10 31q0 4 -4 3t-8 -9zM55 168q-4 -8 -8 -17.5t-2 -13.5q0 -10 10 6q6 8 9.5 17.5t3.5 13.5t-4.5 3t-8.5 -9zM-6 -29q2 2 12 18.5t25 41.5q6 12 24.5 42.5t43 71.5t54 91.5t60.5 101.5q74 121 117 193.5 t64.5 111.5t26.5 52.5t3 15.5q-6 6 -21 -21q-10 -25 -24 -20q-4 4 -7 1t1 -9t-25 -59.5t-72 -123.5q-20 -35 -43.5 -72.5t-45 -74.5t-41 -70t-31.5 -53q-27 -47 -46.5 -72.5t-25.5 -21.5q-16 6 -6 -6q4 -6 -1 -24.5t-14.5 -38t-19.5 -34t-16 -10.5q-12 6 -4 -12 q8 -19 12 -19zM152 152q12 18 17 31.5t-1 13.5q-4 0 -15.5 -15.5t-21.5 -38.5q-42 -87 21 9zM176 209q2 0 26.5 37t57.5 88q33 53 56.5 94t27.5 51t-12.5 -12.5t-42.5 -63.5q-74 -117 -96.5 -155.5t-16.5 -38.5zM750 1464q35 -4 67.5 -21.5t56.5 -35.5q29 -23 54 -47 q-63 -80 -123 -137q-51 -49 -103.5 -85t-85.5 -20q-10 6 -18 12q-18 12 -16 21q23 92 49 162q12 31 25.5 58.5t27.5 49t31 33.5t35 10z" />
<glyph unicode="k" horiz-adv-x="1122" d="M938 377q51 53 97 99l87 87q-96 -135 -188 -246q-39 -47 -81 -93t-82 -85t-76 -66.5t-64 -35.5h-17q-16 2 -30.5 0t-30.5 -2q-35 10 -63.5 37.5t-52 67.5t-42 87t-33.5 95q-35 113 -55 245l-6 -39l-35 -39q-94 -113 -140 -195.5t-65 -135.5q-23 -63 -18 -107 q-23 -10 -35 -11t-28 7q-31 14 -54.5 56t-25.5 90q-2 61 14 135.5t57 173t107.5 226.5t165.5 298q59 104 100 174t76 127t70.5 110.5t84.5 123.5q27 37 47.5 70.5t24.5 43.5q8 23 35 17t58.5 -31t61 -61.5t46.5 -75.5q8 -20 11 -34.5t3 -27t-4 -27t-12 -34.5 q-4 -12 -16.5 -33.5t-29 -46.5t-37 -50.5t-40.5 -49.5q-53 -63 -83 -99.5t-51.5 -64t-40 -55t-48.5 -72.5q-41 -63 -81 -122.5t-77 -119.5q41 49 76 90t63 72q33 35 60 63v-2q0 -2 -1 -3t-1 -3l45 47l24 27q33 33 67 64.5t62.5 56t51 42t32.5 23.5q18 10 29.5 15.5t22 5.5 t22.5 -5t35 -14q66 -29 92.5 -74.5t26.5 -127.5q0 -41 -6.5 -73t-18.5 -59.5t-34.5 -56t-57.5 -63.5q-59 -59 -134 -91t-180 -42q-41 -4 -67.5 -11.5t-26.5 -15.5q0 -6 12.5 -55t28.5 -115l8 -33l9 -24q4 -18 12 -47t18 -58q16 -43 38 -71.5t44 -8.5h2l11 11q39 35 98 92 t133 133zM541 1137q4 10 -15.5 -14.5t-48.5 -71.5q-43 -66 -70.5 -108t-42 -66.5t-19.5 -35t-1 -10.5t31.5 41t66.5 101q37 59 66 106.5t33 57.5zM580 1190q10 10 15 22.5t7 18.5q0 4 -6 0t-14 -14q-10 -10 -15.5 -22.5t-7.5 -18.5q0 -4 6.5 0t14.5 14zM485 1227 q-37 -31 -18 -31q6 0 25 25q12 16 10.5 17t-17.5 -11zM418 1137q-16 -25 -18.5 -31t10.5 4q10 10 22 23.5t17 23.5q16 31 6 24t-37 -44zM336 1010q-18 -29 -25.5 -45.5t0.5 -6.5t23.5 31t27.5 43q14 23 21.5 37t3.5 14t-18.5 -21t-32.5 -52zM252 874q-14 -23 -14 -34 q0 -12 14 6q14 20 14 35q0 13 -14 -7zM211 791q-14 -23 -14 -35t14 6q4 10 8 20.5t4 14.5q0 6 -4 5t-8 -11zM178 633q8 14 28.5 48t49.5 81t63.5 103.5t69.5 113.5q86 137 136 219t76 127t33 59.5t5 16.5q-4 4 -10 -3t-13 -20q-6 -12 -15 -18t-13 -2q-12 6 -6 -10 q2 -4 -6.5 -22.5t-23.5 -46.5t-37.5 -63.5t-47.5 -74.5l-191 -305q-31 -53 -53 -82t-30 -25q-12 8 -7 -6q6 -8 -1 -29.5t-17 -43t-23.5 -37t-19.5 -11.5q-12 8 -4 -14q6 -20 12 -21q4 0 16.5 18.5t28.5 47.5zM313 766q16 23 21.5 38t1.5 15q-6 0 -18.5 -17.5t-24.5 -41.5 q-27 -53 -22 -51t42 57zM764 692q14 18 13 20.5t-17 -12.5q-25 -18 -25 -34q0 -12 4 -9zM823 778q25 51 20 53.5t-34 -49.5q-12 -23 -18.5 -39t-2.5 -16t14.5 14t20.5 37zM887 950q0 10 -5 2t-14 -30q-18 -47 -18 -61.5t18 26.5q8 18 13.5 35.5t5.5 27.5zM436 385 q-12 39 -18 47q2 -14 7 -22.5t11 -24.5zM465 164q0 6 -1 15t-3 20l-4 34q-4 10 -7.5 19.5t-7.5 19.5q-12 35 -21 79t-18 85q-6 10 -12 39l-18 64l8 -84q2 -25 11 -69t21.5 -88t24 -83t19.5 -53zM492 170q-4 20 -12.5 56t-20.5 81q-10 41 -19 66q0 -2 -3 -1t-5 -10 q-4 -16 -2 -10t6 -4q2 -6 2 -7v-3t1 -7t3 -18q4 -27 3 -34t10 -3q2 2 5 -6t5 -22.5t4 -29.5l4 -30l8 -20zM455 705q0 -6 7 -16.5t16 -21t18.5 -17.5t13.5 -7t25.5 5t48.5 14q27 8 59.5 24t52.5 33q27 20 54.5 58t51 85t41 100.5t23.5 102.5q6 47 -1 51t-52 -24 q-16 -10 -50 -42t-74 -72t-82 -85t-75.5 -84t-55 -67.5t-21.5 -36.5z" />
<glyph unicode="l" horiz-adv-x="503" d="M840 1511q8 -20 11 -33.5t3 -25.5t-4 -26.5t-12 -34.5q-4 -12 -16.5 -34t-29 -46.5t-37 -51t-40.5 -51.5q-53 -61 -83 -97t-51.5 -63.5t-40 -55t-48.5 -72.5q-106 -160 -194.5 -301.5t-151 -250t-95.5 -180t-28 -90.5q0 -4 21.5 13.5t60 53.5t92 87t116.5 117 q53 53 101.5 102t89.5 92l-4 -8q-47 -70 -101 -137q-45 -59 -101 -127t-114 -127q-45 -41 -75.5 -68.5t-42.5 -36.5q-39 -25 -55.5 -29.5t-39.5 5.5q-31 14 -54 57t-26 90q-2 61 14.5 135t57.5 172.5t107.5 226.5t165.5 298q59 104 100 175t75.5 127t70.5 109.5t85 122.5 q27 39 47.5 73t24.5 44q8 20 34.5 14t58.5 -29.5t62 -61.5t46 -77zM477 1214q-35 -29 -18 -28q6 0 24 22q12 16 11 18t-17 -12zM410 1124q-35 -49 -9 -24q10 8 22.5 21.5t16.5 23.5q16 31 6.5 24.5t-36.5 -45.5zM328 999q-18 -31 -25.5 -46t0.5 -7q8 10 23.5 30.5t27.5 43.5 q14 23 21.5 38t3.5 15t-18.5 -21.5t-32.5 -52.5zM244 862q-14 -18 -15 -35q0 -14 15 9q14 18 14 34q0 12 -14 -8zM203 778q-14 -18 -15 -35q0 -14 15 9q4 8 8 18t4 16t-4 4t-8 -12zM305 756q16 23 21.5 37t1.5 14q-6 0 -18.5 -17.5t-24.5 -41.5q-52 -98 20 8zM532 1126 q4 10 -15 -15.5t-48 -70.5q-43 -66 -70.5 -107.5t-42 -66t-19.5 -35t-1 -10.5t31.5 41t66.5 101q37 57 65.5 105t32.5 58zM571 1180q10 10 15.5 22t7.5 17q0 6 -6 2t-15 -17q-10 -10 -15 -22.5t-7 -16.5q0 -6 6 -1.5t14 16.5zM381 969q86 137 136 219t75.5 126t33 58t5.5 19 q-4 4 -10.5 -3.5t-12.5 -19.5t-15 -19.5t-13 -2.5q-12 6 -7 -11q4 -8 -29.5 -68.5t-84.5 -138.5q-25 -39 -52.5 -81.5t-53 -84.5t-48 -78t-37.5 -61q-31 -53 -53 -80.5t-31 -23.5q-12 6 -6 -6q6 -8 -1 -29.5t-17 -43.5t-23.5 -38t-19.5 -12q-4 4 -6 1t2 -13q8 -23 12 -23 t16.5 19.5t28.5 48.5q8 12 28.5 47t49 82t63.5 103.5t70 113.5z" />
<glyph unicode="m" horiz-adv-x="1597" d="M1409 367q53 53 99 101t89 89l-2 -4q-53 -74 -110 -147q-49 -63 -108.5 -134t-119.5 -131q-29 -27 -48 -45t-33 -28q-8 -6 -21 -15q-12 -10 -20 -12q-16 -10 -27 -12q-18 -6 -41 4q-31 14 -54.5 57t-25.5 90q-2 53 11.5 117.5t45.5 148.5h-2q12 35 31 81t41.5 94.5 t46 95.5t41.5 84q4 8 9.5 15t9.5 13q6 14 14 31q6 14 14 32.5t19 39.5q-41 -39 -107.5 -105.5t-141.5 -145.5t-151.5 -162t-138.5 -152q-63 -111 -96 -181.5t-29 -89.5v-18q0 -23 8 -41q-8 -4 -20 -8q-16 -4 -41 4q-31 14 -53.5 57t-24.5 90q-4 53 9.5 117.5t45.5 148.5 q10 35 30 81t42.5 94.5t46 95.5t41.5 84q4 8 8 15t9 13q6 14 14 31q6 14 15 32.5t20 39.5q-29 -27 -76 -73t-105.5 -104.5t-122 -124l-127 -131t-122 -127t-103.5 -112.5q-4 -4 -6 -8q-18 -41 -21 -80t1 -68q4 -35 14 -63q-4 -2 -5 -2t-5 -2q-45 -18 -72 -23.5t-41 -1.5 q-18 2 -24 13q-16 2 -33 11t-27 27.5t-15 47t-1 71.5q12 94 54 202t94 207t103.5 181t82.5 125l12 16q10 10 34.5 45t49 73t44 70t19.5 36q0 16 17 16q10 0 29.5 -8t40 -21.5t39 -30t30.5 -30.5q20 -29 26.5 -58.5t-6 -69.5t-44 -93.5t-85.5 -126.5q-23 -31 -42 -58.5 t-35 -52.5v-2q0 -2 40 36t95 95q59 59 118.5 125t111.5 123t91 97t60 48q12 6 45 -6q33 0 76 -53q86 -104 4 -287q-8 -16 -26.5 -49t-43.5 -78l80 80q59 59 118.5 125t110.5 123t91 97t59 48q12 6 47 -6q31 0 74 -53q90 -104 4 -287q-6 -16 -24.5 -49t-44.5 -77t-56.5 -95 t-63.5 -104h2q-86 -147 -133 -241.5t-43 -117.5q0 -4 21.5 13.5t60.5 53.5t92.5 87t116.5 117zM242 604q31 53 54 95t26 53q4 10 -12.5 -13.5t-41.5 -64.5q-35 -59 -57.5 -97t-34.5 -60.5t-15 -31t-1 -8.5q4 0 27.5 37t54.5 90zM338 786q0 -4 5 -1t11 14q16 23 17 37 q0 4 -5.5 -0.5t-11.5 -14.5q-16 -21 -16 -35zM119 410q-20 -45 -16.5 -43t34.5 51q12 20 17.5 33.5t-0.5 13.5q-4 0 -14.5 -16t-20.5 -39zM266 823q-31 -27 -14 -26q6 0 20 22q10 16 11 17q-1 -1 -17 -13zM211 743q-16 -23 -16 -27.5t10 5.5q20 18 33 41q12 29 2.5 22.5 t-29.5 -41.5zM143 631q-16 -29 -21 -42.5t1 -4.5q8 8 20.5 27.5t22.5 37.5q10 20 16 33.5t2 13.5q-2 0 -14.5 -19t-26.5 -46zM74 508q-10 -16 -11 -31q2 -10 13 6q4 8 8 17.5t2 13.5q0 4 -4 3t-8 -9zM41 432q-10 -16 -10 -31q0 -4 4 -3t8 10q10 16 10 30q0 6 -4 4t-8 -10z M-25 264q-4 4 -6 0t2 -10q10 -18 15 -18q2 0 12 17t22 42q6 12 23.5 43t41.5 73t52.5 92t57.5 103q70 123 110.5 197t62 113.5t25.5 53t2 15.5q-8 4 -18 -20q-14 -27 -27 -21q-10 4 -4 -10q4 -6 -23.5 -59.5t-68.5 -124.5q-20 -35 -42 -75t-43.5 -77t-38.5 -69.5t-30 -53.5 q-27 -47 -45 -73.5t-24 -22.5q-16 6 -6 -6q4 -6 -0.5 -24.5t-13.5 -39t-19.5 -35t-16.5 -10.5zM664 367q-18 -47 -14.5 -45t32.5 53q10 20 14 34.5t0 12.5q-6 0 -15 -16t-17 -39zM776 567q29 53 49.5 97.5t24.5 52.5q2 10 -13.5 -14.5t-37.5 -65.5q-63 -121 -83 -162 t-16 -39q4 0 25.5 39t50.5 92zM879 788q-16 -20 -17 -34q2 -8 19 12q14 25 14 37q0 4 -5 -0.5t-11 -14.5zM791 788q-14 -14 -18.5 -22t3.5 -6q6 0 21 24q10 16 9 16t-15 -12zM737 705q-12 -23 -13 -28t9 5q10 8 18.5 20.5t12.5 22.5q12 29 2.5 22t-29.5 -42zM676 588 q-14 -29 -18.5 -43.5t1.5 -3.5q6 8 17.5 27.5t21.5 39.5t15.5 33.5t1.5 13.5q-2 0 -13.5 -19t-25.5 -48zM614 461q-4 -8 -7 -17.5t-1 -13.5q0 -12 10 8q4 8 7.5 17.5t1.5 13.5q-1 12 -11 -8zM584 385q-8 -20 -9 -31q2 -10 13 6q4 10 6 19.5t2 13.5t-4 2t-8 -10zM571 248 q6 12 20.5 44t36 75t48 94t53.5 104q63 127 100 203t56.5 117t23.5 54t2 15q-8 4 -18 -22q-4 -10 -11.5 -17.5t-13.5 -3.5q-10 4 -4 -10q4 -6 -20.5 -61.5t-61.5 -126.5q-18 -37 -38.5 -77t-40 -79t-36 -71.5t-26.5 -55.5q-23 -47 -41 -74.5t-25 -23.5q-6 4 -7 1t3 -7 q4 -6 0 -25.5t-11 -39t-17.5 -35t-16.5 -11.5q-12 4 -2 -12q12 -18 15 -17q2 0 11 17.5t21 44.5zM1196 375q10 20 14 34.5t0 12.5q-4 0 -13 -16.5t-19 -38.5q-39 -96 18 8zM1364 717q2 10 -12.5 -14.5t-36.5 -65.5q-33 -61 -53.5 -100t-31.5 -61.5t-14.5 -31t1.5 -8.5 q4 0 25.5 39t49.5 92q29 53 49.5 97.5t22.5 52.5zM1395 766q6 10 11 21.5t3 15.5q0 4 -5 0t-11 -15q-14 -23 -15 -34q0 -6 5.5 -2t11.5 14zM1307 788q-16 -14 -19.5 -22t4.5 -6q4 0 19 24q10 16 10 17q0 -1 -14 -13zM1253 705q-29 -47 -4 -23q8 8 17.5 20.5t13.5 22.5 q10 29 1.5 22t-28.5 -42zM1192 588q-14 -29 -19.5 -43.5t3.5 -3.5q6 8 17 27.5t21 39.5t15.5 33.5t1.5 13.5t-14.5 -19t-24.5 -48zM1128 461q-8 -20 -8 -31q0 -4 4 -3t9 11q8 20 8 31q0 4 -4.5 3t-8.5 -11zM1100 385q-4 -8 -7 -17.5t-1 -13.5q0 -4 3 -3t7 9q10 20 10 33 q-2 8 -12 -8zM1085 248q6 12 21.5 44t37 75t47.5 94t52 104q63 127 101 203t56.5 117t22.5 54t2 15t-7 -5t-9 -17t-12 -17.5t-13 -3.5q-14 4 -4 -10q4 -6 -20.5 -61.5t-63.5 -126.5q-18 -37 -38.5 -77t-39 -79t-35 -71.5t-26.5 -55.5q-23 -47 -41 -74.5t-24 -23.5 q-8 4 -9.5 1t2.5 -7q6 -6 2 -25.5t-12 -39t-17 -35t-16 -11.5q-10 4 -4 -12q12 -18 15 -17q4 0 13 17.5t19 44.5z" />
<glyph unicode="n" horiz-adv-x="1142" d="M662 96q2 -4 23.5 13.5t59 53.5t91 87t116.5 117q55 55 104.5 104t92.5 94l-6 -12q-43 -63 -92 -127q-41 -55 -95.5 -118.5t-107.5 -123.5q-53 -51 -90 -83.5t-53 -43.5q-39 -25 -55.5 -29.5t-39.5 5.5q-31 14 -54.5 57t-25.5 90q-2 53 11.5 117.5t46.5 148.5 q10 35 29.5 81t42 94.5t46 95.5t42.5 84q4 8 8 15t8 13l16 33q8 16 16.5 36t18.5 42q-37 -33 -105.5 -101.5t-147.5 -149.5t-154.5 -160.5t-126.5 -137.5q-33 -37 -65 -71.5t-58.5 -64.5t-45 -50.5t-24.5 -26.5q-12 -16 -32.5 -39.5t-37.5 -44.5q-12 -14 -28.5 -29.5 t-33.5 -27.5t-32.5 -20.5t-23.5 -8.5q-2 0 -12.5 6t-22.5 17q-16 10 -23.5 21t-6.5 30.5t10.5 52.5t27.5 86q16 47 35.5 103.5t30.5 89.5q12 39 38.5 98t62.5 131t79 150.5t90 156.5q41 70 70.5 124t29.5 63q0 27 33 16.5t70 -47.5q41 -41 58 -82t10 -93t-40.5 -121 t-95.5 -163q-43 -66 -71.5 -112t-28.5 -48q2 -2 35.5 29t78.5 76q31 29 76 75t97.5 97t106.5 106.5t104.5 104.5t90 88t62.5 59l2 2q12 10 49 -4q29 0 76 -53q86 -104 2 -287q-6 -16 -24.5 -49t-44 -77t-56.5 -95t-61 -104q-86 -147 -133 -241.5t-43 -117.5zM156 578 q12 20 19 35.5t3 19.5q-4 2 -12 -10.5t-17.5 -28.5t-15.5 -32.5t-6 -22.5q0 -4 9.5 7.5t19.5 31.5zM188 649q4 0 12.5 14.5t18.5 32.5q10 20 18.5 38t12.5 24q6 10 -8 0q-6 -6 -17.5 -23.5t-20.5 -36t-14.5 -34t-1.5 -15.5zM739 375q10 20 15.5 34.5t-0.5 12.5 q-4 0 -13.5 -16.5t-19.5 -38.5q-39 -96 18 8zM907 717q4 10 -11 -14.5t-38 -65.5q-33 -61 -53.5 -100t-31.5 -61.5t-14 -31t1 -8.5t25.5 39t50.5 92t49 97.5t22 52.5zM938 766q16 23 16 37q-2 8 -18 -15q-14 -23 -14 -34q0 -6 5 -2t11 14zM856 784q10 16 9 16.5t-15 -12.5 q-14 -14 -18.5 -22t4.5 -6q6 -1 20 24zM797 705q-12 -23 -13.5 -28t9.5 5q10 8 18 20.5t12 22.5q12 29 3 22t-29 -42zM735 588q-14 -29 -19 -43.5t3 -3.5q6 8 17.5 27.5t21.5 39.5t15 33.5t1 13.5t-14.5 -19t-24.5 -48zM674 461q-10 -16 -10 -31q4 -10 12 8q4 8 7 17.5 t1 13.5q0 4 -3 3t-7 -11zM643 385q-4 -8 -6 -17.5t-2 -13.5t4 -3t8 9q4 10 6 19.5t2 13.5q-2 8 -12 -8zM629 248q6 12 21.5 44t37 75l47 94t51.5 104q63 127 101.5 203t58 117t23.5 54t2 15q-8 4 -19 -22q-4 -10 -12 -17.5t-12 -3.5q-10 4 -4 -10q4 -6 -20.5 -61.5 t-61.5 -126.5q-18 -37 -40 -77t-40.5 -79t-34.5 -71.5t-27 -55.5q-23 -47 -41 -74.5t-24 -23.5q-8 4 -9 1t3 -7q6 -6 2 -25.5t-12.5 -39t-17.5 -35t-15 -11.5q-12 4 -2 -12q8 -20 14 -17q2 0 11.5 17.5t19.5 44.5z" />
<glyph unicode="o" horiz-adv-x="1036" d="M786 559q12 -12 52.5 -15t85.5 -1q51 2 112 8q-51 -29 -115.5 -49.5t-142.5 -20.5q-72 0 -114 49l-144 -172q-168 -201 -279.5 -273.5t-199.5 -33.5q-59 27 -88 87.5t-27 146.5t34 192.5t95 227.5q29 57 64 112t70.5 102.5t68.5 84t57 55.5q45 33 101.5 34t109.5 -28 q39 -23 53.5 -25t20.5 13q16 39 47 86t66 87t66.5 68.5t49.5 30.5q29 2 71 -22.5t61 -57.5q35 -59 -6.5 -182t-168.5 -334q-18 -31 -34.5 -61.5t-26.5 -53.5q10 -16 24 -30.5t37 -24.5zM760 1221q-39 -39 -19 -39q2 2 9.5 11t15.5 21q14 23 12 23t-18 -16zM229 737 q-23 -43 -20.5 -54t24.5 30q10 18 21.5 34.5t17.5 22.5q14 14 -4 12q-8 -2 -18.5 -15.5t-20.5 -29.5zM174 629q-4 -18 -2 -20.5t12 12.5q18 23 9 30q-4 4 -9.5 -3t-9.5 -19zM154 588q-16 0 -17 -17q4 -16 10 -16t17 18q6 19 -10 15zM571 573q12 23 19.5 38.5t9.5 35t-2 46 t-12 71.5l-25 127l-49 -62q-31 -41 -73 -105.5t-87 -139t-89 -151.5t-77.5 -142.5t-55 -110.5t-19.5 -55q4 -45 135 65q35 29 80 77t91 102.5t87.5 108.5t66.5 95zM668 1044q10 -14 20 13.5t8 70.5q0 27 21 23q18 0 6 25q-8 16 -16.5 11t-30.5 -38q-14 -23 -29.5 -52.5 t-23.5 -49.5q-14 -31 -21.5 -76t-5.5 -70q0 8 1 15.5t1 11.5q0 6 2 8l12 -47q8 10 4 24q-2 10 3.5 35t13.5 51q19 65 35 45zM694 770q4 0 23.5 37t48.5 90q25 49 48.5 102.5t39.5 98.5t24.5 75.5t2.5 34.5t-20.5 -8t-32 -35.5t-36 -53.5t-32.5 -60q-12 -29 -25.5 -76 t-25 -93t-16.5 -79t1 -33z" />
<glyph unicode="p" horiz-adv-x="1193" d="M618 174q45 10 105.5 32.5t134.5 66.5t159 112t177 166q-84 -133 -197 -234q-47 -43 -106.5 -83.5t-128 -71.5t-148 -48.5t-168.5 -13.5q-23 -6 -51 -8t-71 -6q-70 -4 -116 0t-81 14q-29 10 -50.5 12.5t-25.5 -3.5q-35 -51 -82 -128t-95 -161t-91 -164t-70 -137 q-20 -45 -38.5 -82t-22.5 -47q-23 12 -52.5 31.5t-55 46t-41 57.5t-11.5 65l6 25q4 8 8 20q14 47 40 107.5t67 138.5q27 55 71 135t92 165t97 167t86 141q109 172 174.5 276.5t101 167t47 93.5t11.5 55q2 45 11 50.5t50 -15.5q35 -16 68 -50t59.5 -74t41 -82t12.5 -72 q-2 -18 -13.5 -49t-27.5 -58q-25 -41 -16 -35t69 74q18 20 47 52t60.5 68t64.5 73.5t63 70.5q59 68 109.5 116t62.5 50q23 2 64 -26.5t65 -65.5q90 -137 -129 -565q-68 -133 -146.5 -220.5t-189.5 -148.5zM961 760q12 20 6 26q-10 6 -17 -18q-5 -26 11 -8zM-55 281 q-4 -4 -7.5 -11.5t-3.5 -11.5q0 -6 5.5 -7t9.5 3q12 8 12 25q-4 12 -16 2zM59 354q76 119 120 189.5t68.5 112.5t35 62.5t18.5 41.5q16 35 9 27.5t-42 -64.5q-6 -10 -19 -23.5t-28 -21.5q-14 -10 -15 -13t9 1q16 8 15 2t-19 -37q-10 -20 -20.5 -33.5t-14.5 -11.5 q-6 2 -16 -4.5t-21.5 -15.5t-18.5 -18t-7 -16q0 -16 20 5q16 16 21 8q0 -8 -20.5 -40t-45.5 -65.5t-46.5 -57.5t-21.5 -17q-2 6 8.5 24.5t26.5 38.5q31 41 34 51t-19 -2q-18 -10 -19 -20q0 -12 -31 -54q-16 -25 -19 -36t7 -15t7 -18.5t-25 -44.5q-16 -23 -29.5 -46.5 t-17.5 -33.5q-8 -16 -14.5 -18.5t-22.5 8.5q-25 16 -17 4q10 -14 2 -23q-8 -6 7 -2q16 6 18 -4t-12 -27q-14 -18 -37 -14q-25 6 -4 -6q12 -6 2 -37t-55 -108q-37 -68 -73 -137.5t-63.5 -128t-44 -94.5t-10.5 -36q4 2 23.5 37t42.5 82t44 87t27 50q4 10 31 56.5t57 101.5 q16 27 41 69t54.5 90t60 98t59.5 97zM348 272q68 35 127.5 82t115.5 116t113.5 161t122.5 219q41 80 67 135t21 55q-41 -4 -177 -150.5t-357 -424.5q-66 -82 -102.5 -130t-53 -73.5t-15.5 -33t13 -5.5q16 2 52 16.5t73 32.5zM567 276q10 18 10.5 19.5t-16.5 -14.5l-14 -17.5 t-6 -9.5q3 -21 26 22zM586 293l61 55q27 23 64 65t65 79q29 37 50.5 61.5t25.5 21.5q4 -4 -1 -15t-15 -25q-14 -23 -14.5 -25t14.5 12q10 10 19 24.5t15.5 27t5 18.5t-9.5 0q-12 -10 -14 -8t1 11t13.5 22.5t22.5 25.5q16 14 30.5 33.5t18.5 34.5q6 16 1 12t-21 -27 q-29 -43 -27 -29.5t37 97.5q27 61 41 80.5t4 -15.5q-4 -10 -1 -13t7 1q6 4 6 15.5t-4 25.5q-6 12 -5 25.5t7 17.5q4 4 8 15.5t2 23.5q-6 27 -32 -49q-53 -154 -129 -282t-185 -249z" />
<glyph unicode="q" horiz-adv-x="1093" d="M907 367q53 53 99.5 100t87.5 88l-2 -2q-57 -82 -121 -162q-53 -68 -119 -143.5t-125 -132.5q-6 -6 -13 -12.5t-12 -10.5q-61 -51 -100 -65h-16q-37 -57 -77 -126t-79 -138.5t-72.5 -133t-56.5 -110.5q-20 -45 -38.5 -82t-22.5 -47q-23 12 -52.5 31.5t-55.5 46t-41 57.5 t-11 65l6 25q2 8 6 20q16 47 42 107.5t65 138.5q27 51 65.5 123t83.5 150.5t90 156.5t84 140l-30 -35l-3 -4q-12 -6 -106 -111q-57 -66 -110.5 -120t-99.5 -93t-81 -61.5t-55 -24.5q-37 -4 -70 8.5t-56.5 39t-36.5 63.5t-9 80q2 31 8 60.5t16.5 63t26.5 73.5t39 93 q37 80 88 165t107.5 162t112.5 139.5t104 97.5q98 72 208.5 69.5t202.5 -74.5q16 -12 33.5 -30.5t34.5 -36.5q-8 -10 -25 -2q-16 6 -33.5 7t-31.5 -1q-16 -2 -33 -8l-76 -53q-66 -45 -146.5 -131.5t-162.5 -196t-158 -230t-131 -235.5q-18 -39 -19 -50.5t15 -8.5 q14 2 53 35.5t93.5 88t119 126t130 147.5t127 152.5t108.5 144.5q27 37 42 52t24.5 21.5t14.5 6.5t11 4q2 0 4 2q25 16 61.5 11t73.5 -23.5t68 -44t45 -46.5q14 -23 15 -35t-5 -20t-18.5 -15t-24.5 -18q-6 -6 -20.5 -25.5t-33 -47t-40 -62.5t-41.5 -71q-51 -84 -111 -189 q-37 -51 -62.5 -87t-33.5 -48q-4 -8 -4 -14l-2 -2q16 12 42 35.5t60 58.5q35 33 77 74t89 90zM285 909q-10 -14 -15.5 -24.5t-1.5 -7.5q4 0 13.5 10t19.5 24t16.5 24.5t1.5 8.5q-4 0 -14 -10.5t-20 -24.5zM66 571q-8 -31 10 -6q14 23 6 29q-10 6 -16 -23zM14 373 q23 43 43.5 71.5t26.5 24.5q14 -4 10 20q-8 27 12 27q8 -2 12.5 6t2.5 19q-6 25 18 24q10 -2 14.5 0t-1.5 6q-8 6 -7.5 17.5t7 24t14.5 20.5t18 6q8 -2 22.5 11.5t29 34t24.5 42t10 37.5q4 25 23 24q16 0 10 11q-4 6 4 22.5t22.5 38t34 42t35.5 34.5q16 12 17.5 16t-10.5 2 q-10 0 -52.5 -45t-91.5 -108q-47 -61 -83 -102.5t-36 -34.5q-2 6 7.5 22t21.5 35q31 39 6 18q-10 -10 -26.5 -32.5t-28.5 -44.5q-16 -29 -17.5 -34t13.5 7q33 33 22.5 5t-65.5 -124q-55 -92 -87 -155.5t-28 -79.5q0 -6 15 21.5t38 70.5zM532 281q-4 -4 -8 -11.5t-2 -11.5 q0 -14 15 -4q12 12 10 25q0 4 -5.5 5t-9.5 -3zM432 0q14 27 40 69t54.5 90t60 98t60.5 97q74 119 119 189.5t69.5 112.5t35 62.5t18.5 41.5q14 35 7 27.5t-42 -64.5q-4 -10 -17.5 -23.5t-27.5 -21.5q-14 -10 -16 -13t8 1q16 8 16 2t-18 -37q-12 -20 -21.5 -33.5t-13.5 -11.5 q-6 2 -16.5 -4.5t-21.5 -15.5t-19.5 -18t-8.5 -16q2 -16 23 5q18 18 18 8q0 -8 -19.5 -40t-44 -65.5t-46 -57.5t-21.5 -17q-2 6 7.5 24.5t25.5 38.5q31 41 35 51t-19 -2q-23 -10 -18 -20q0 -4 -9 -19.5t-22 -34.5q-16 -25 -19 -36t7 -15t6 -18.5t-24 -44.5 q-16 -23 -29.5 -46.5t-18.5 -33.5q-8 -16 -14 -18.5t-24 8.5q-10 8 -15.5 9t0.5 -5q10 -14 0 -23q-4 -4 8 -2q16 6 18.5 -4t-11.5 -27q-14 -18 -37 -14q-29 6 -4 -6q12 -6 0.5 -37t-54.5 -108q-37 -68 -73.5 -137.5t-64.5 -128t-43 -94.5t-11 -36q4 2 23.5 37t43.5 82 q23 47 43.5 87t26.5 50t32.5 56.5t57.5 101.5z" />
<glyph unicode="r" horiz-adv-x="874" d="M686 367q53 53 100.5 101t87.5 89l-2 -4q-53 -74 -108 -145q-47 -61 -105.5 -132t-117.5 -131q-37 -35 -63.5 -57t-39.5 -31q-25 -18 -37 -22l-12 -6q-20 -6 -45 4q-31 14 -54.5 57t-25.5 90q-2 53 11.5 117.5t46.5 148.5q10 35 29.5 81t42 94.5t46 95.5t41.5 84 q4 8 8.5 15t8.5 13q16 43 32.5 70t30.5 43q-31 6 -65.5 21.5t-55.5 44.5l-8 12l-522 -594v27l498 616l-21 37l-6 12q-12 41 -7 85t23.5 83t49 66.5t69.5 38.5q14 4 33.5 -2.5t37 -16.5t29 -25.5t11.5 -29.5q0 -10 -18.5 -44t-47.5 -75q-23 -33 -35 -52.5t-16 -33.5 q10 -23 27 -39q14 -16 37.5 -27.5t62.5 -11.5q6 2 18 0q6 0 27 -8q33 0 74 -51q23 -27 34 -43.5t11 -34.5t-11.5 -45t-31.5 -72q-6 -16 -24.5 -49t-44 -77t-56.5 -95t-62 -104q-86 -147 -133 -241.5t-43 -117.5q2 -4 23.5 13.5t59.5 53.5t91.5 87t116.5 117zM473 375 q10 20 15.5 34.5t-1.5 12.5q-4 0 -13 -16.5t-19 -38.5q-39 -96 18 8zM641 717q4 10 -11.5 -14.5t-37.5 -65.5q-33 -61 -53.5 -100t-31.5 -61.5t-14.5 -31t1.5 -8.5q4 0 25.5 39t49.5 92q29 53 49.5 97.5t22.5 52.5zM672 766q16 23 16 37q-2 8 -18 -15q-14 -23 -15 -34 q0 -6 5.5 -2t11.5 14zM584 788q-14 -14 -18.5 -22t3.5 -6q6 0 21 24q10 16 9 16t-15 -12zM530 705q-12 -23 -13 -28t9 5q10 8 18.5 20.5t12.5 22.5q12 29 2.5 22t-29.5 -42zM469 588q-14 -29 -19.5 -43.5t3.5 -3.5q6 8 17 27.5t22 39.5q10 20 15 33.5t1 13.5t-14.5 -19 t-24.5 -48zM408 461q-10 -16 -11 -31q4 -10 13 8q4 8 7 17.5t1 13.5q0 4 -3 3t-7 -11zM377 385q-4 -8 -6 -17.5t-2 -13.5t4 -3t8 9q4 10 6 19.5t2 13.5q-2 8 -12 -8zM365 248q6 12 20 44t35.5 75t47.5 94t52 104q63 127 101 203t57.5 117t24 54t2.5 15q-8 4 -19 -22 q-4 -10 -11 -17.5t-13 -3.5q-10 4 -5 -10q4 -6 -20.5 -61.5t-61.5 -126.5q-18 -37 -39.5 -77t-40 -79t-35 -71.5t-26.5 -55.5q-23 -47 -41 -74.5t-24 -23.5q-16 6 -4 -6q4 -6 -0.5 -25.5t-12.5 -39t-17 -35t-16 -11.5q-12 4 -2 -12q8 -20 15 -17q2 0 11.5 17.5t21.5 44.5z " />
<glyph unicode="s" horiz-adv-x="1087" d="M1087 553q-8 -12 -50 -70.5t-101 -132.5t-127 -149.5t-127 -122.5q-8 -6 -15.5 -11.5t-13.5 -9.5q-33 -23 -55 -28h-10q-29 -8 -53.5 -8.5t-47.5 -2.5q-33 -2 -71 9q-4 -2 -5 -2t-5 -2q-31 -12 -71 -17.5t-82 -4.5t-81 9t-68 23q-59 29 -94 78t-24 92q4 18 16 43.5 t28.5 50.5t36 47.5t37.5 36.5q16 12 40 20.5t46.5 13.5t39 3t16.5 -10q0 -16 -21 -17q-10 0 -28.5 -11t-37 -27.5t-36 -36t-25.5 -37.5q-63 -121 78 -195q135 -68 195 43q12 20 13 75.5t-3 124t-14.5 142.5t-22.5 133q-20 88 -26.5 163t6.5 140l-420 -477v27l469 581 q27 45 73 92l28 18q28 19 79 35.5t125 20.5t166 -20l43 -6q100 -18 142 -66.5t13 -116.5q-12 -33 -34.5 -60.5t-47 -46t-49 -25.5t-43.5 1q-23 10 -20.5 21.5t29.5 34.5q29 29 48 66.5t19 72.5q0 41 -41 37t-96 -52q-86 -74 -124 -214t-19 -318q4 -29 4 -56.5v-54.5 q-16 -127 -64.5 -202.5t-99.5 -116.5q59 -10 112 18q6 4 11.5 6t11.5 7q31 25 100.5 92t167.5 166q51 51 95 97t85 87zM518 745q10 6 2 27q-4 10 -6 7t-2 -15q0 -25 6 -19zM535 821q8 18 0 37q-4 6 -6.5 1t-2.5 -19t2.5 -19.5t6.5 0.5zM459 752q-4 -6 -2 -52.5t5 -98.5 t8 -95t9 -39t5 45t-1 98q-2 143 20.5 249t65.5 151q8 8 18.5 21t20.5 26q25 35 -18 -8q-98 -86 -115 -211q-4 -31 -8 -56.5t-8 -29.5z" />
<glyph unicode="t" horiz-adv-x="505" d="M836 1389q-4 -12 -16.5 -34t-29 -46.5t-37 -51t-40.5 -51.5q-12 -14 -23.5 -27.5t-21.5 -23.5q51 2 85.5 -1t45.5 -13q16 -12 19 -28.5t-1 -33.5l-72 -8l-165 -24q-23 -29 -41.5 -55.5t-49.5 -73.5q-106 -160 -194 -301.5t-150.5 -250t-95.5 -180t-29 -90.5 q0 -4 21.5 13.5t60.5 53.5t92.5 87t116.5 117q55 55 103.5 104t91.5 94l-4 -12q-45 -61 -94 -127q-43 -55 -96.5 -119.5t-108.5 -124.5q-51 -49 -88 -81.5t-52 -43.5q-39 -25 -55 -29.5t-39 5.5q-31 14 -54.5 57t-25.5 90q-2 61 14.5 135t57.5 172.5t107.5 226.5t164.5 298 l4.5 9l4.5 9q-49 -6 -84 -9t-55.5 1t-24.5 17.5t12 39.5q25 4 57 11q29 4 65 10t79 12q43 74 75.5 129t63.5 102.5t62.5 95.5t72.5 107q27 39 47.5 73t24.5 44q8 20 34.5 14t58.5 -29.5t61.5 -61.5t46.5 -77q8 -20 11 -33.5t3 -25.5t-4 -26.5t-12 -34.5zM475 1212 q-35 -29 -18 -28q6 0 24 22q12 16 11 18t-17 -12zM408 1122q-35 -49 -9 -24q10 8 22.5 21.5t16.5 23.5q16 31 6.5 24.5t-36.5 -45.5zM326 997q-18 -31 -25.5 -46t0.5 -7q8 10 23.5 30.5t27.5 43.5q14 23 21.5 38t3.5 15t-18.5 -21.5t-32.5 -52.5zM242 860q-14 -18 -15 -35 q0 -14 15 9q14 18 14 34q0 12 -14 -8zM201 776q-14 -18 -15 -35q0 -14 15 9q4 8 8 18t4 16t-4 4t-8 -12zM303 754q16 23 21.5 37t1.5 14q-6 0 -18.5 -17.5t-24.5 -42.5q-52 -97 20 9zM530 1124q4 10 -15 -15.5t-48 -70.5q-43 -66 -70.5 -107.5t-42 -66t-19.5 -35t-1 -10.5 t31.5 41t66.5 101q37 57 65.5 105t32.5 58zM569 1178q10 10 15.5 22t7.5 17q0 6 -6 1.5t-15 -16.5q-10 -10 -15 -22.5t-7 -16.5q0 -6 6 -1.5t14 16.5zM379 967q86 137 136 219t75.5 126t33 58t5.5 19q-4 4 -10.5 -3.5t-12.5 -19.5t-15 -19.5t-13 -3.5q-12 6 -7 -10 q4 -8 -29.5 -68.5t-84.5 -138.5q-25 -39 -52.5 -82t-53 -84.5t-48 -77.5t-37.5 -61q-31 -53 -53.5 -80.5t-30.5 -23.5q-12 6 -6 -6q6 -8 -1 -30t-17.5 -43.5t-23.5 -37.5t-19 -12q-4 4 -6.5 1t2.5 -14q8 -23 12 -22q4 0 16.5 19.5t28.5 48.5q8 12 28.5 46.5t49 82t63.5 104 t70 113.5z" />
<glyph unicode="u" horiz-adv-x="1122" d="M936 367q53 53 100 101t88 89l-2 -4q-53 -74 -110 -147q-49 -63 -108.5 -134t-119.5 -131q-29 -27 -48 -45t-34 -28l-20 -15q-12 -10 -20 -12q-16 -10 -27 -12q-18 -6 -41 4q-31 14 -54.5 57t-25.5 90q-2 53 11.5 117.5t45.5 148.5q10 31 24.5 67t31.5 77 q-45 -66 -101.5 -140.5t-117 -145.5t-122 -132t-121 -101t-112.5 -52.5t-94 16.5q-14 0 -39 12q-51 29 -64.5 69t3.5 113q6 35 23.5 82t39 97.5t45 98.5t46 85t39 57.5t24.5 16.5q10 -6 4 8q-10 14 28.5 73.5t137.5 186.5q35 47 67.5 93t42.5 65q20 41 31.5 44t44.5 -20 q61 -43 70.5 -126t-37.5 -181q-12 -25 -45 -77t-74 -111.5t-84 -119t-76 -98.5q-27 -33 -56.5 -72.5t-55 -75.5t-44 -64.5t-22.5 -38.5v-7q2 -29 15 -43q10 -12 35.5 -10t72.5 39q27 20 74 68.5t104.5 112t121 136t120.5 140t105.5 124t74.5 89.5q6 14 17 28q31 66 55 119 q23 47 41 87t22 48q2 8 3 18.5t6.5 18.5t17.5 9t37 -9q29 0 76 -53q86 -104 2 -287q-6 -16 -24.5 -49t-44.5 -77t-56.5 -95t-63.5 -104h2q-86 -147 -133 -241.5t-43 -117.5q0 -4 21.5 13.5t60.5 53.5t92.5 87t116.5 117zM37 453q-23 -18 -23 -31q0 -18 17.5 0t40.5 59 q12 23 23 38.5t18 10.5q12 -8 26 13q16 18 0 24q-10 4 -10 11.5t10 25.5q18 29 29 23q14 -8 22 10q8 14 -6 6q-16 -12 -16 2q0 4 13.5 27.5t29.5 50.5t32.5 50.5t22.5 29.5q4 2 13.5 16.5t19.5 30.5l25 43l-31 -35q-14 -16 -33.5 -39.5t-34.5 -42.5q-16 -20 -30.5 -38.5 t-22.5 -26.5q-16 -20 -8 -21q10 0 -8 -14q-23 -12 -23 -25q-2 -16 -16.5 -44.5t-34.5 -57.5q-10 -16 -17.5 -32.5t-7.5 -27.5q0 -8 -6 -18t-14 -18zM723 375q10 20 15 34.5t-1 12.5q-4 0 -13 -16.5t-19 -38.5q-39 -96 18 8zM891 717q2 10 -12.5 -14.5t-36.5 -65.5 q-33 -61 -53.5 -100t-32 -61.5t-14.5 -31t1 -8.5t26 39t50 92q29 53 49.5 97.5t22.5 52.5zM922 766q6 10 11 21.5t3 15.5q0 8 -16 -15q-14 -23 -15 -34q0 -6 5.5 -2t11.5 14zM834 788q-16 -14 -19.5 -22t4.5 -6q4 0 19 24q10 16 10 17q0 -1 -14 -13zM780 705q-29 -47 -4 -23 q8 8 17.5 20.5t13.5 22.5q10 29 1.5 22t-28.5 -42zM719 588q-14 -29 -19.5 -43.5t2.5 -3.5q6 8 17.5 27.5t21.5 39.5t15.5 33.5t1.5 13.5t-14.5 -19t-24.5 -48zM655 461q-8 -20 -8 -31q4 -10 12 8q4 8 6.5 17.5t2.5 13.5t-4.5 3t-8.5 -11zM627 385q-4 -8 -7.5 -17.5 t-1.5 -13.5q0 -4 3.5 -3t7.5 9q10 20 10 33q-2 8 -12 -8zM612 248q6 12 21.5 44t37 75l47 94t52.5 104q63 127 101 203t56.5 117t22.5 54t2 15t-7 -5t-9 -17t-12.5 -17.5t-12.5 -3.5q-10 4 -4 -10q4 -6 -20.5 -61.5t-61.5 -126.5q-18 -37 -39.5 -77t-40 -79t-35 -71.5 t-26.5 -55.5q-23 -47 -41 -74.5t-25 -23.5q-8 4 -9 1t3 -7q6 -6 2 -25.5t-12 -39t-17.5 -35t-15.5 -11.5q-12 4 -2 -12q8 -20 13 -17q4 0 13 17.5t19 44.5z" />
<glyph unicode="v" horiz-adv-x="1101" d="M872 555q23 -14 60 -17t76 -1q43 2 94 10q-49 -29 -112.5 -47.5t-137.5 -18.5q-72 0 -115 49l-143 -172q-133 -162 -234 -239q-53 -49 -117.5 -78t-123.5 -45q-68 -18 -137 -23q-4 0 -23.5 13.5t-42.5 29.5q-23 18 -39 31.5t-20 18.5q-2 2 4 38.5t16 83.5q8 45 18.5 82 t27 86.5t44 120t72.5 180.5q12 33 28.5 75t34 86t34 88t28.5 81q27 74 43 113t32.5 53t39 7t59.5 -27q31 -16 57.5 -40t46 -51.5t31.5 -57.5t12 -56q0 -20 -20.5 -68.5t-54 -112t-75.5 -134t-87 -134.5q-23 -31 -42.5 -61.5t-29.5 -42.5v-4l-96 -254q6 -33 47 -23t88 37 q55 29 125 78q37 33 80 79t86 97t80 100.5t59 87.5q12 23 19.5 38.5t9.5 35t-2 46t-13 71.5l-16 76q-6 35 -3 73.5t11 69.5q8 37 23 70q16 39 47 86t65.5 87t66.5 68.5t50 30.5q29 2 71 -22.5t60 -57.5q35 -59 -6 -182t-168 -334q-18 -31 -34.5 -61.5t-26.5 -53.5 q10 -16 27 -33.5t46 -25.5zM246 813q-12 -12 -13 -25q0 -18 6.5 -15t12.5 24q8 26 -6 16zM195 723q-8 -14 -9.5 -23.5t2.5 -9.5q14 0 23 27q10 29 4 32t-20 -26zM158 647q-6 -18 -5 -19t11 9q16 20 10 31q-8 8 -16 -21zM954 1208q-6 4 -20 -8t-31.5 -35.5t-36 -53.5 t-32.5 -60q-12 -29 -25.5 -76t-25 -93t-16.5 -79t1 -33q4 0 23.5 37t48.5 90q25 49 48 102.5t39.5 98.5t24.5 75.5t2 34.5zM834 1221q-39 -39 -19 -39q2 2 9 11t16 21q14 23 12 23t-18 -16zM696 1047q-14 -31 -21 -76t-5 -70q0 8 1 15.5t1 11.5q0 6 2 8l12 -47q8 10 4 24 q-2 10 3 35t14 51q18 66 34 45q10 -14 20.5 13.5t8.5 70.5q0 27 21 23q18 0 6 25q-8 16 -16.5 11t-30.5 -38q-14 -23 -30 -52.5t-24 -49.5z" />
<glyph unicode="w" horiz-adv-x="1720" d="M1518 551q16 -8 50 -9t68 1q39 2 84 4q-49 -29 -112.5 -47.5t-137.5 -18.5q-72 0 -114 49l-144 -172q-133 -162 -233 -239q-53 -49 -117.5 -78t-124.5 -45q-68 -18 -139 -23q-4 0 -22.5 13.5t-40.5 29.5q-23 18 -40.5 31.5t-19.5 18.5q-2 2 4 38.5t17 83.5q8 45 18 82 t26.5 85t43 117t69.5 177q-35 -35 -114.5 -113.5t-178.5 -179.5q-63 -66 -122.5 -126t-107.5 -106t-79 -76t-39 -36q-27 -16 -61.5 -20t-65.5 6q-55 20 -67.5 79.5t22.5 147.5q12 37 45 104.5t74 144.5t83 150.5t73 120.5q10 14 27.5 43t40 65t47 77t49.5 80q55 92 86.5 141 t52 70.5t34 20.5t35.5 -9q37 -14 68 -36.5t53.5 -50.5t34.5 -57.5t12 -58.5q0 -25 -9 -50.5t-35.5 -66.5t-75 -103t-125.5 -159q-68 -84 -128.5 -159.5t-108.5 -139t-81 -110.5t-45 -72q-4 -8 33 24.5t94 88.5q29 27 63.5 60.5t69.5 67t68 64.5t57 53q106 102 173 166 t108 105q18 49 35.5 98t33.5 90q25 74 41.5 113t33.5 53t40 7t59 -27q59 -31 102.5 -91.5t43.5 -113.5q0 -20 -20.5 -68.5t-53.5 -112t-75 -134t-87 -134.5q-23 -31 -43 -61.5t-28 -42.5q-2 -2 -2 -4l-97 -254q6 -33 48 -23t90 37q55 29 124 78q35 33 78 79t86 97t80 100.5 t62 87.5q12 23 19 38.5t8 35t-3 46t-12 71.5l-14 76q-8 35 -4 73.5t12 69.5q8 37 22 70q16 39 47 86t66 87t66.5 68.5t50.5 30.5q29 2 70.5 -22.5t60.5 -57.5q35 -59 -6 -182t-168 -334q-18 -31 -35 -61.5t-27 -53.5q10 -20 35 -40.5t66 -22.5zM864 813q-14 -10 -14 -25 q0 -18 6 -15t14 24q8 26 -6 16zM811 723q-14 -33 -4 -33q6 0 12 8.5t10 18.5q10 29 4 32t-22 -26zM774 647q-4 -18 -3 -19t11 9q16 20 11 31q-9 8 -19 -21zM-2 303q-39 -66 -17.5 -38t107.5 151q193 281 284 419t97 156q2 8 -26.5 -31.5t-76 -106.5t-104.5 -151 t-110.5 -162.5t-95.5 -143t-58 -93.5zM1450 1221q-39 -39 -18 -39q8 4 26 32q12 23 11 23t-19 -16zM1358 1044q12 -14 22.5 13.5t8.5 70.5q0 27 20 23q18 0 6 25q-10 16 -17 11t-30 -38q-14 -23 -29.5 -52.5t-25.5 -49.5q-12 -31 -19.5 -76t-5.5 -70q0 8 1 15.5t1 11.5 q0 6 2 8l11 -47q6 8 6 24q-2 10 3 35t13 51q19 63 33 45zM1386 770q2 0 23 37t49 90q25 49 48.5 102.5t40 98.5t24.5 75.5t2 34.5t-20.5 -8t-32 -35.5t-36 -53.5t-32.5 -60q-12 -29 -26.5 -76t-24.5 -93t-15.5 -79t0.5 -33z" />
<glyph unicode="x" horiz-adv-x="1128" d="M969 373q59 57 97 93t62 54q-20 -29 -55 -74t-78 -99t-91 -109.5t-93 -100.5q-51 -53 -98 -88t-86 -53q-47 -29 -76 -34t-57 5q-16 6 -28.5 18.5t-22 38t-17.5 69.5t-18 114l-23 151l-51 -43q-10 -8 -34 -28.5t-54.5 -49t-66.5 -62.5t-73 -69q-66 -59 -105.5 -95t-66 -52 t-43 -16t-32.5 10q-10 6 24.5 48t136.5 144l77 77t78 76t69.5 66.5t50.5 49.5l96 88l12 149q8 100 29 201.5t47 177.5h-6l-530 -604v27l499 618q18 18 41 31q18 10 39 18t43 6q41 2 91.5 -17t72.5 -52q10 -12 15.5 -23.5t6.5 -25t-1 -35t-9 -55.5q-6 -43 -10 -74t0 -33 q2 -2 37 27.5t82 72.5q43 41 74.5 65.5t55.5 38t44 15.5t43 -4q25 -6 39 -32.5t4 -45.5q-4 -4 -38 -30.5t-79 -57.5q-23 -16 -50.5 -36.5t-57 -43t-57 -44t-48.5 -40.5l-104 -88l-39 -147q-14 -59 -27.5 -126t-22.5 -126t-13.5 -102.5t-0.5 -53.5q2 -10 39 12.5t92.5 67.5 t125 107.5t139.5 132.5zM477 256q8 20 -4 20q-14 0 -14 -20q0 -23 6 -23q4 0 12 23zM492 395q8 47 16 100.5t12 82.5t8 59.5t7 46.5q4 16 7 40t7 44q4 18 4 28.5t-4 6.5t-8 -12.5t-6 -14.5q-2 -8 -9.5 -49t-17.5 -94t-17.5 -122t-11.5 -116l-6 -112zM563 377q10 66 18.5 126 t12.5 81q14 92 19 149.5t-1 50.5q-4 -4 -13 -57t-19 -123q-10 -68 -16.5 -107.5t-11.5 -71.5t-10 -64.5t-14 -84.5q-12 -80 -12 -100t12 10q4 12 14.5 68.5t20.5 122.5z" />
<glyph unicode="y" horiz-adv-x="1042" d="M850 367q53 55 101 103t91 93l-4 -10q-45 -66 -98 -133q-45 -57 -100.5 -123t-110.5 -125q-47 -47 -81 -75.5t-48 -39.5q-33 -23 -49 -28.5t-33 0.5q-98 -141 -214 -272.5t-251 -239.5q-33 -31 -73 -58q-133 -82 -256 -49q-41 12 -62 39q-8 25 -9 45.5t3 36.5h-2q2 4 3 7 t3 7q10 23 29 41q33 39 89 81t117.5 81t119 69.5t94.5 49.5q16 27 30.5 55.5t30.5 59.5q12 25 30.5 58.5t39 69t41 72.5t38.5 68q35 63 57.5 107t18.5 44t-35.5 -27.5t-72.5 -66.5q-76 -72 -125 -117t-82 -73.5t-55.5 -43t-44.5 -24.5q-35 -14 -55.5 -17t-39.5 5 q-35 12 -57.5 50t-22.5 79q0 29 20.5 82t58.5 125.5t92.5 161t119.5 184.5q57 86 92 138t56.5 86t33 57.5t23.5 48.5l35 71l55 -59q102 -109 49 -252q-8 -23 -24.5 -51.5t-54 -81.5t-104.5 -142.5t-177 -234.5q-53 -68 -87 -118t-30 -54q14 -14 283 221q145 129 232 224.5 t134 170.5q18 33 37 62l176 287q41 -23 74 -56q29 -29 52.5 -68.5t25.5 -95.5q-45 -113 -107 -239q-53 -111 -129.5 -249t-175.5 -286q25 12 117 105q35 33 77 74t91 90zM287 719q10 25 4 25.5t-23 -21.5q-14 -29 -4 -29q13 0 23 25zM-55 313q0 -6 10 9.5t27 44.5 q16 29 53 87t74 111t59 91t18 38q-12 0 4 13q8 6 29 37.5t39 67.5t30.5 64.5t6.5 28.5q-4 0 -28.5 -35.5t-60.5 -90t-77 -120t-76 -124.5q-20 -35 -39.5 -72t-35 -67.5t-24.5 -53.5t-9 -29zM-217 -528q57 20 124.5 96t153.5 219q-59 -33 -118.5 -76t-108.5 -84t-83 -72.5 t-44 -41.5q4 -43 18.5 -49t57.5 8zM715 535q18 23 18 34q0 10 -18 -12q-18 -23 -19 -35q0 -4 5.5 -0.5t13.5 13.5zM629 561q-33 -27 -17 -26q6 0 21 22l10 16zM569 481q-29 -41 -6 -20q10 6 19.5 17t13.5 22q14 29 5 22.5t-32 -41.5zM498 371q-16 -27 -21.5 -41.5t2.5 -5.5 q6 10 19.5 28.5t23.5 36.5q10 20 17.5 33.5t3.5 13.5t-16.5 -19t-28.5 -46zM428 250q-12 -16 -12 -31q0 -4 4 -3t8 9t8 17.5t2 13.5q0 10 -10 -6zM391 176q-10 -16 -10 -31q0 -4 4 -3t8 10q10 16 10 30q0 4 -4 3t-8 -9zM330 -20q4 2 14 18t25 41q6 12 23.5 43t42 72t54 91 t60.5 101q74 121 117 193.5t64.5 111.5t26.5 52.5t3 15.5q-2 4 -8.5 -3t-10.5 -18q-14 -25 -26 -20q-12 8 -4 -8q4 -6 -26 -59.5t-71 -123.5q-23 -35 -46 -72.5t-44.5 -74.5t-40 -69.5t-30.5 -53.5q-29 -47 -48.5 -72.5t-25.5 -21.5q-12 6 -6 -6q4 -6 -1 -24.5t-14.5 -38 t-19.5 -34t-16 -10.5q-12 8 -5 -12q9 -18 13 -18zM487 160q12 18 17.5 31.5t1.5 13.5t-15.5 -15.5t-21.5 -37.5q-23 -45 -19 -43t37 51zM512 217q4 0 27.5 37t56.5 88q33 53 57.5 94t26.5 51q4 10 -12.5 -12t-42.5 -63q-72 -117 -95.5 -156t-17.5 -39z" />
<glyph unicode="z" horiz-adv-x="1046" d="M537 584q8 -6 -2.5 -20.5t-24.5 -14.5q-16 0 4 20q6 10 13.5 14.5t9.5 0.5zM440 494q16 14 17.5 13t-13.5 -18q-29 -39 -28 -20q-1 7 24 25zM371 424q16 14 17 13t-13 -17q-29 -39 -29 -21q0 7 25 25zM352 322q-10 -10 -13 -14.5t5 -7.5t28.5 -3h59.5q109 0 180 -29 l56 -22q2 -2 8 -6q4 -4 10 -8.5t14 -8.5q31 31 69 68t79 78q55 57 104 107t95 95l-9 -16q-41 -57 -88 -119q-41 -53 -90 -114.5t-102 -118.5l-17 -17q6 -8 13.5 -14t13.5 -16q4 -2 6 -4t6 -5q6 -6 8 -10q33 -37 46.5 -72.5t5 -73.5t-39 -81t-85.5 -96 q-141 -139 -270.5 -196.5t-221.5 -18.5q-63 25 -30 98q8 20 33.5 57t62.5 84t84 100.5t96 106.5q41 43 70.5 75t29.5 36q0 6 -45 4t-108.5 -10.5t-131 -18.5t-112.5 -22q-76 -18 -112.5 -23.5t-51.5 2.5q-27 14 -25.5 33.5t29.5 36.5q14 8 68.5 56t125 113.5t144.5 137.5 t127 127q25 25 55.5 56.5t63.5 65.5t64.5 66.5t58.5 61.5q53 53 91 94t38 45t-39 6t-94 4q-61 2 -105.5 0t-76 0t-55 10.5t-42.5 30.5l-530 -604v27l497 618q8 16 43 27q29 10 88.5 16t165.5 2t166 -4t92.5 -2t47 -5t30.5 -13q74 -45 75 -100.5t-71 -112.5 q-12 -10 -36.5 -28.5t-55 -43.5t-65.5 -52.5t-70 -54.5q-55 -45 -125 -100t-135.5 -109.5t-119.5 -100t-81 -70.5zM551 -2q-6 -2 -35 -37q-12 -14 -24.5 -29.5t-24.5 -31.5q-29 -37 -56.5 -74t-48 -65.5t-33 -48t-12.5 -23.5q0 -8 19 4q27 6 81 26.5t111 65.5q-4 -10 41 35 v2q27 27 43 53q20 29 31 45q23 35 30 47.5t5 14.5t-10 -9q14 39 12 61.5t-21 45.5q-4 4 -6 8t-6 6v4h-2v-2l-4 -4zM276 293q4 6 25 25.5t51.5 49t70.5 67.5t83 79q133 125 215 202t128 122t63.5 64.5t23.5 31.5q6 10 -25.5 -16.5t-81.5 -75.5q-49 -49 -84.5 -80t-35.5 -25 q0 12 -15 -8q-4 -8 -12 -14t-12 -6q-6 0 -22.5 -11.5t-34 -26t-31 -28.5t-13.5 -18q0 -10 25 8q31 25 2 -6q-10 -10 -22.5 -18.5t-22.5 -8.5q-25 -4 -44.5 -23.5t-12.5 -35.5q8 -18 -9 -27q-14 -10 -14 8q0 14 -35 -16q-14 -12 -22 -25.5t-4 -17.5q8 -12 -13 -12 q-8 0 -20 -7.5t-21.5 -17.5t-15.5 -20.5t-2 -14.5q4 -2 -11.5 -21.5t-37.5 -41.5q-25 -25 -37 -42.5t-8 -17.5q12 0 32 25z" />
<glyph unicode="{" horiz-adv-x="718" d="M1145 1845q-78 -57 -149.5 -145t-157.5 -236q-49 -84 -108.5 -173t-120 -169t-116 -146.5t-96.5 -103.5q-29 -27 -68.5 -52t-68.5 -36q-29 -10 -50.5 -19t-23.5 -9q-2 -2 6.5 -19.5t20.5 -42.5q18 -35 24.5 -81t0 -114.5t-27 -163.5t-52.5 -229q-25 -100 -35 -162.5 t-2 -104.5t35.5 -68.5t79.5 -53.5q78 -41 62.5 -53t-110.5 17q-31 10 -73.5 30.5t-84.5 43t-77 46t-49 39.5q-74 80 -65 215t104 340q45 98 70.5 159.5t33.5 100.5t-2 60.5t-35 38.5q-39 27 -33.5 41t64.5 41q68 31 147.5 106.5t141.5 171.5q14 20 37.5 60t51 91.5t56.5 108 t57 111.5q37 74 68 129t55.5 97t47 73t45.5 55q63 70 139 115t129 45q20 0 43.5 -8.5t46 -20.5t41 -27.5t24.5 -29.5q10 -25 6.5 -35t-32.5 -33zM750 1757q-14 -23 -13.5 -24.5t21.5 16.5q10 10 16 20.5t4 12.5q-8 8 -28 -25zM715 1704q-25 -20 -25 -27q0 -20 31 21 q14 18 13 19t-19 -13zM524 1262q6 4 33 45t59 94q80 133 152 237.5t113 149.5q18 20 28.5 33.5t5.5 13.5q-6 0 -23.5 -15.5t-37.5 -39t-44 -52t-42 -57.5q-31 -45 -74 -115.5t-83 -137t-66.5 -113.5t-20.5 -43zM723 1495q18 25 29.5 44.5t7.5 21.5q-2 4 -17.5 -13.5 t-35.5 -46.5q-18 -29 -28.5 -48t-6.5 -19t19.5 18t31.5 43z" />
<glyph unicode="|" horiz-adv-x="542" d="M362 1636q27 -43 41.5 -95t16.5 -139t-9.5 -219t-35.5 -335q-27 -229 -43.5 -446.5t-22.5 -393.5t0 -293.5t25 -148.5q18 -29 15 -35t-30 -6q-16 2 -39.5 7t-41.5 13q-43 20 -80 64.5t-78 126.5q-29 57 -47.5 127.5t-27.5 163t-10 208t7 263.5q2 43 7 122.5t13.5 180 t17.5 213t18.5 219t17.5 200t14 156.5q8 76 6 124t-16 89q-23 61 -9.5 69.5t79.5 -26.5q25 -12 53 -35.5t58 -53.5t56.5 -60.5t44.5 -59.5zM217 504q14 0 8 14q-8 14 -12 14q-8 0 -8 -14q-4 -14 12 -14zM174 352l1 27t3 71t4 103t4 127q4 158 7.5 261t4.5 176t0 128t-3 117 q-4 156 -11.5 134.5t-7.5 -187.5v-43.5v-50t-1 -72.5t-1 -107q-6 -238 -8 -378t-2 -211.5t2 -88t8 -6.5zM215 629q14 -14 19.5 -11t-3.5 21q-10 18 -20 12q-4 -4 -3 -10t7 -12zM231 731q10 25 -2 25q-16 0 -16 -25q0 -23 4 -42t8 -13q4 8 -2 20q-4 15 8 35zM236 969 q16 6 -5 14q-8 4 -13 -9t-5 -40v-48.5t-2 -33.5q-2 -14 7 -26.5t20 -12.5q2 0 3 18.5t3 45.5q0 27 -3 49t-8 26q-6 4 -4.5 9.5t7.5 7.5zM227 1006q8 -6 12.5 -3t6.5 23.5t2 59v100.5q0 51 -4 101t-13 71q-14 51 -14 20v-54.5t2 -39.5q2 -4 2 -9v-9q-2 -2 -1 -7.5t1 -9.5 q2 -4 1 -31.5t-3 -62.5q0 -35 1 -66.5t5 -41.5q6 -25 -2 -25q-6 0 -5 -5t9 -11z" />
<glyph unicode="}" horiz-adv-x="1705" d="M1024 598q10 0 13 -8t0 -19.5t-12 -21.5t-21 -17q-12 -6 -45 -47t-73 -99t-81 -122.5t-68 -118.5q-31 -61 -68.5 -125.5t-76.5 -123t-74 -105.5t-61 -74q-41 -41 -79 -62.5t-108 -43.5q-51 -16 -82.5 -25.5t-56.5 -11.5t-44 3t-46 15q-43 20 -41 39t49 31q29 8 56.5 31.5 t62.5 73t81 131.5t109 206q76 150 135.5 246t112.5 156.5t108.5 90.5t125.5 44l55 10l-68 47q-98 68 -140 149t-34 191q2 33 7.5 60.5t19.5 64.5t39.5 90.5t68.5 139.5q96 188 132 286.5t24 132.5q-4 10 -24.5 19.5t-47.5 13.5t-51 15.5t-41.5 26t-27 30.5t-2.5 29 q8 23 58 33t101 -1q51 -10 113.5 -56t101.5 -103q14 -23 22.5 -38.5t12.5 -35t4 -45v-64.5q0 -41 -3 -71.5t-12 -68.5t-26.5 -88t-44.5 -128q-16 -49 -36.5 -102.5t-40 -103.5t-37 -93t-29.5 -70q-27 -57 -40 -93t-11 -59.5t18.5 -42t48.5 -38.5q23 -16 40.5 -32.5 t17.5 -27.5q0 -20 16 -20zM940 1307q10 12 16.5 27.5t6.5 25.5q0 20 -21 -17q-23 -37 -22.5 -50t20.5 14zM741 1079q0 -10 13.5 11.5t37 64.5t52 104.5t59.5 131.5q37 86 63.5 154.5t24.5 84.5q0 23 -3 21t-13 -31q-12 -37 -31.5 -86t-43 -103.5t-48.5 -108.5t-47 -101 q-27 -53 -46.5 -95.5t-17.5 -46.5z" />
<glyph unicode="~" horiz-adv-x="741" d="M-168 1452q2 12 19.5 44t48 61.5t73.5 47t99 1.5q55 -16 96 -40t82 -42.5t87 -21.5t112 24q66 25 101.5 49t51.5 43q20 23 23 41q29 0 41 -14q10 -12 7 -41t-38 -82q-37 -53 -96.5 -95.5t-130 -60.5t-147.5 -11t-144 52q-70 45 -114 54t-69 3q-31 -8 -45 -32 q-18 -4 -30 -5q-10 0 -20.5 5.5t-6.5 19.5z" />
<glyph unicode="&#xa0;" />
<glyph unicode="&#xa3;" horiz-adv-x="1705" d="M1610 1489q31 -115 -37 -127q-23 -4 -46.5 21.5t-25.5 54.5q0 43 -18.5 94t-42.5 80q-25 27 -63 28.5t-79 -17.5t-82.5 -57t-76.5 -93q-18 -29 -42 -76t-47.5 -102.5t-46 -112t-38 -104.5t-23.5 -79.5t-2 -37.5q4 -2 49 -6.5t107 -8.5q111 -6 159 -19.5t29 -31.5 q-6 -4 -63.5 -9t-135.5 -7l-186 -5l-33 -90q-18 -51 -26.5 -77.5t0 -38t36 -11.5t82.5 5q72 4 103 0.5t41 -15.5q18 -18 8 -29q-4 -4 -52 -8t-114 -8q-57 -2 -89 -4t-48 -7t-22.5 -13.5t-12.5 -22.5q-25 -61 -77 -138t-115.5 -148.5t-128 -130t-113.5 -85.5 q-18 -10 -30.5 -17t-10.5 -9h30.5h77t113 2t135.5 4q227 8 362.5 12t208 5t96 -1t28.5 -6q35 -35 -152 -55q-29 -4 -69 -8.5t-87 -9.5t-95 -10t-91 -9t-89 -9t-89 -10.5t-79 -10.5t-56 -7q-45 -6 -83 -9t-77 -3t-83 3t-101 9q-90 10 -141.5 28.5t-55.5 47.5q-2 10 16.5 31.5 t53.5 46.5q98 72 173.5 166t145.5 227q27 53 43.5 86t22.5 52t5 28.5t-9 15.5q-23 18 -18 35.5t34 17.5q23 0 44 34t32 91q6 29 2 37t-25 8q-16 0 -34.5 5.5t-35 13.5t-26.5 18t-10 19q0 8 14 16t36.5 15.5t49.5 12.5t49 5q12 0 21.5 6t20.5 23.5t26.5 52t40.5 94.5 q68 166 139.5 291t140.5 190q39 37 71 61.5t65.5 39t71.5 19.5t89 5q37 0 62.5 -1t45 -6t37 -13.5t42.5 -22.5q137 -88 174 -221zM799 942q0 18 -13 -8q-4 -12 -8 -26.5t-4 -24.5q0 -23 12 6q6 12 9.5 27.5t3.5 25.5zM954 1423q12 16 18.5 30.5t2.5 19.5q-4 4 -17.5 -12.5 t-32 -46.5t-39 -68.5t-36.5 -75.5q-8 -16 -22.5 -53t-33 -84.5t-41 -102.5t-42.5 -110q-23 -55 -46.5 -118t-47 -122t-44 -110.5t-32.5 -86.5q-29 -70 -48.5 -122t-17.5 -56q0 -18 25.5 38t79.5 198q31 84 60.5 152.5t39.5 84.5q35 47 42 62.5t-7 5.5q-16 -10 -17.5 -4 t9.5 30q6 25 22 17q10 -6 4 12q-4 8 7.5 44t29.5 85t43 107.5t50.5 114t49 101t41.5 70.5z" />
<glyph unicode="&#xa5;" horiz-adv-x="1703" d="M784 584q74 0 147 -12.5t134 -32t104 -45t56 -52.5q16 -39 4 -45t-70 13q-31 10 -91 18t-127 12t-129 4t-95 -6l-66 -10l-129 -285q-68 -152 -108.5 -235.5t-66 -120.5t-43 -37t-42.5 19q-20 14 -22 68t11 131t40.5 166t66.5 175q18 41 29.5 72t7.5 35t-32.5 1t-69.5 -9 q-90 -16 -163 -17.5t-101 15.5q-29 16 -29 61q0 29 12.5 42t59.5 34q39 18 89 26.5t148 12.5l168 6l41 76q16 33 29.5 57t15.5 29q2 4 -16.5 14t-46.5 20q-154 59 -199 182.5t21 305.5q35 98 81 194.5t94 175t92 130t75 57.5q84 23 159 -53q29 -31 35 -49.5t2 -61.5 q-2 -12 -11 -41t-22.5 -66.5t-32 -81.5t-38.5 -90q-78 -166 -123 -286.5t-58 -184.5q-10 -49 18 -59t130 6q68 10 124 26.5t108.5 47.5t105.5 80t114.5 123.5t136 179t171.5 246.5q57 86 93 136t56.5 74.5t31.5 29.5t22 1q29 -18 28 -20q0 -4 -25.5 -51t-59.5 -108.5 t-67.5 -122t-50.5 -89.5q-10 -14 -24 -37.5t-30.5 -51.5t-35 -58.5t-35.5 -57.5q-63 -104 -124.5 -180t-131 -128t-149.5 -83t-178 -47q-18 -4 -29.5 -7t-17.5 -11.5t-9.5 -20.5t-5.5 -35q-4 -27 -9 -52t-9 -36q-8 -16 3 -21t58 -5zM596 1352q6 4 10 11t4 13q0 14 -14 4 q-14 -8 -14 -22q0 -16 14 -6zM397 1130q8 18 0 46q-6 20 -6 -19q-2 -18 0 -26.5t6 -0.5zM467 1389q27 78 50.5 141t31.5 78q18 35 17 44t-21 -20q-6 -10 -19.5 -40.5t-30 -72.5t-33 -90.5t-29.5 -90.5t-21.5 -72.5t-8.5 -38.5q0 -10 18.5 37t45.5 125zM557 1374 q20 59 39.5 110.5t28.5 65.5q8 14 11 26.5t-1 16.5q-6 6 -21 -20q-8 -16 -26.5 -64.5t-35.5 -102.5t-30.5 -100t-13.5 -55q0 -8 14.5 28t34.5 95z" />
<glyph unicode="&#xa8;" horiz-adv-x="1101" d="M938 1864q66 -84 -12 -158q-35 -35 -86.5 -42t-108.5 15q-45 18 -73.5 46t-39 60t-1 63.5t39.5 58.5q29 25 67 33t77 1.5t75.5 -25.5t61.5 -52zM387 1946q76 -55 81 -122t-62 -114q-43 -29 -84 -31t-89 21q-84 39 -106.5 82t2.5 116q29 90 96.5 103t161.5 -55z" />
<glyph unicode="&#xa9;" horiz-adv-x="1374" d="M999 1077q86 -43 145.5 -86t80.5 -78q47 -82 58 -213t-19 -268q-63 -297 -322 -420q-41 -18 -87 -35.5t-73 -21.5q-35 -6 -75.5 -9t-82.5 -2t-80 5t-63 10q-113 31 -215 92.5t-176 143.5q-49 53 -69.5 108t-20.5 133t18.5 147.5t61.5 157.5q14 29 27.5 51.5t31 45t40 47 t52.5 57.5q33 33 57.5 55.5t46 39t44 29.5t53.5 28q139 66 260 81t199 -24q23 -10 37 -20.5t14 -14.5t16 -15.5t41 -23.5zM121 481q4 23 13 65t20 77q23 80 50 142t68 116l39 53l-43 -47q-18 -18 -37.5 -47t-29.5 -49q-12 -29 -26.5 -70t-27 -85t-20.5 -84t-10 -67l-6 -59z M231 674q10 25 15.5 43t3.5 22q-2 2 -8 -9t-13.5 -28.5t-14.5 -37t-11 -33.5q-8 -35 1 -20.5t27 63.5zM1098 406q35 100 46 200.5t1 181.5q-12 86 -47 140.5t-105 99.5q-23 14 -38 23.5t-29.5 13.5t-28.5 6t-35 2q-104 0 -51 31q20 12 10 13t-34.5 -5t-56.5 -17.5t-56 -23.5 q-133 -72 -235.5 -202t-151.5 -294q-12 -43 -19.5 -96t-7.5 -103t6 -93t19 -68q14 -29 40.5 -58.5t60.5 -56t72 -47t74 -33.5q10 -4 46 -6t75 0q31 0 52.5 2t40 7.5t37 12.5t40.5 17q100 47 163 128.5t112 224.5zM868 750q31 -16 50.5 -42t26.5 -51.5t1 -47t-28 -34.5 q-27 -16 -45.5 -0.5t-22.5 56.5q-4 20 -11.5 39.5t-17.5 27.5q-16 16 -24.5 16.5t-40.5 -16.5q-29 -14 -54.5 -36.5t-45 -50t-33 -56.5t-15.5 -53q-4 -47 2 -67.5t35 -41.5q25 -20 37 -22t37 6q29 10 45 3t-2 -24q-18 -14 -48 -17t-61 5q-18 6 -44.5 19.5t-53.5 31t-48.5 36 t-29.5 32.5q-8 12 -13 32.5t-3 43.5q0 59 44 111t106.5 84t132 39.5t124.5 -23.5z" />
<glyph unicode="&#xad;" horiz-adv-x="462" d="M-489 569q-25 25 -18 69t42 73q27 23 62.5 38t90 25t134.5 15.5t196 9.5q100 2 169 -3t110 -21.5t59.5 -44.5t18.5 -71q0 -29 -6.5 -32.5t-38.5 6.5q-31 8 -84 9t-120 -4t-143.5 -16.5t-154.5 -27.5q-84 -16 -140.5 -26.5t-92 -13.5t-56 1t-28.5 14zM-209 731 q-10 -4 -5 -6t21 -2q39 0 25 6q-6 4 -18.5 4t-22.5 -2z" />
<glyph unicode="&#xb0;" horiz-adv-x="579" d="M29 1561q-8 35 -6 56t14 66q25 90 76 178.5t110.5 156t121 106.5t108.5 30q16 -2 33.5 -10t29.5 -18l29 -25l-15 -98q-6 -53 -16 -96t-25.5 -83t-38 -81t-55.5 -90q-86 -129 -158.5 -175t-140.5 -18q-31 14 -45 36t-22 65zM125 1636q2 6 0 19q-4 8 -6 -6q0 -8 2 -12.5 t4 -0.5zM422 1993q-31 -29 -61.5 -68t-59.5 -84t-53.5 -93t-38.5 -93q-80 -231 35 -90q61 76 114.5 172t81.5 188q25 74 21 87.5t-39 -19.5zM315 1968q33 41 34 48t-30 -25q-39 -43 -80.5 -105.5t-74.5 -128.5q-41 -80 -35 -80t51 80q20 39 43 78t35 55q12 18 28.5 40z M96 1675q-4 -12 10.5 8.5t38.5 67.5q23 41 45.5 83t32.5 58q12 18 28.5 42t33 45.5t30 38t17.5 20.5q4 2 4 4t-4 2t-19.5 -13.5t-31.5 -33.5q-16 -18 -33 -36.5t-23 -25.5q-10 -6 -13 -11t1 -5t-2 -9l-16 -24q-16 -18 -33 -47t-31 -59.5t-23.5 -58.5t-11.5 -46z" />
<glyph unicode="&#xb4;" horiz-adv-x="456" d="M4 1343q90 166 153.5 242t102.5 80q27 2 59.5 -19.5t59.5 -53t41 -66.5t4 -56q-4 -6 -24.5 -23t-45.5 -34q-12 -10 -39.5 -33.5t-57.5 -51.5t-56.5 -52.5t-36.5 -32.5q-59 -51 -92 -53t-62 39q-23 37 -24.5 58t18.5 56zM328 1503q10 10 14 20.5t0 8.5q-6 0 -26.5 -20.5 t-49 -51t-60.5 -67.5t-58.5 -70t-43 -56.5t-16.5 -29.5q0 -10 12.5 0t34.5 33q10 10 31.5 34.5t45.5 50t42 45t22 23.5q18 20 31 13q14 -4 4 14q-4 8 1.5 23.5t15.5 29.5zM279 1526q-18 -14 -38 -33.5t-35.5 -38t-23.5 -33t-6 -16.5q4 -2 23.5 17.5t44.5 52.5q25 29 35 45 t0 6z" />
<glyph unicode="&#xb8;" horiz-adv-x="641" d="M332 221l-123 -176q143 -2 233 -43q39 -18 70 -47t45 -72t6 -102.5t-47 -138.5q-53 -106 -135 -158.5t-175 -67t-188.5 0t-176.5 40t-136 55t-70 44.5q-20 23 -44.5 61.5t-30.5 67t16.5 31.5t93.5 -48q47 -35 120 -50t153 -15t160.5 15t145 44t105.5 71t41 95 q0 39 -21.5 62.5t-56 36t-79.5 14.5t-93 -2q-111 -8 -249 -48l268 369z" />
<glyph unicode="&#xbf;" horiz-adv-x="831" d="M856 1147q-16 8 -32.5 23.5t-22.5 29.5q-10 20 -4 38.5t39 61.5q23 29 43 62t30 53q45 82 95 15q12 -16 17 -31t3 -31t-12.5 -40.5t-28.5 -63.5q-25 -49 -40 -77t-28.5 -40t-27 -11t-31.5 11zM-113 53q0 70 16.5 129.5t59.5 119.5t118 128t189 158q55 43 112.5 92t111 99 t99.5 97.5t79 84.5q18 23 29.5 34t21.5 14t21.5 -2.5t27.5 -15.5q12 -10 21.5 -20t9.5 -19q0 -16 -21.5 -60t-53.5 -96.5t-71 -106.5t-71 -91q-6 -6 -36 -39t-65 -74q-104 -117 -170.5 -196.5t-106.5 -140t-59.5 -109.5t-29.5 -105q-4 -29 -6 -50t2 -25q6 -6 27.5 -7.5t48 2 t55 11.5t51.5 20q55 29 103.5 72t85 94t60 108.5t29.5 112.5q6 68 18.5 76t41.5 -39q12 -23 12 -45t-10 -78q-23 -106 -72 -196t-133 -174q-66 -63 -116 -98t-96 -40.5t-91 17t-98 72.5q-74 68 -109 136t-35 150zM55 236l37 32q35 33 45 19q10 -16 -12 -25q-23 -8 -23 -33 q0 -27 -18 -41q-10 -8 -19.5 -29.5t-17.5 -47t-11 -49t1 -31.5t6 -2t2 22q2 16 6 26.5t8 10.5t17.5 17.5t25.5 41.5q31 59 94.5 140.5t145.5 167.5q37 39 72 74.5t45 50.5l28 34l-30 -26q-12 -10 -25.5 -15.5t-19.5 -1.5q-16 8 -13 -8q4 -18 -12 -18q-8 0 -17.5 -6.5 t-17.5 -14.5q-25 -25 2 -8q23 14 8 -6q-10 -14 -20 -8q-4 4 -13.5 -1t-17.5 -16q-12 -16 -12 -18t12 6q18 10 11 -4q-12 -18 -21 -10q-4 2 -23.5 -12.5t-42 -38t-44 -48t-29.5 -38.5q-12 -25 -23 -13q-4 6 12.5 33t43.5 57l65 74l-70 -72q-29 -31 -59.5 -65.5t-42.5 -52.5z M33 201q-6 -10 -9.5 -19.5t1.5 -9.5q4 0 10 9t12 20q14 29 8 28q-8 1 -22 -28z" />
<glyph unicode="&#xc0;" horiz-adv-x="1685" d="M1495 1856q-156 104 -225.5 176t-69.5 111q0 27 24.5 57.5t58.5 54t70 33.5t56 -2q6 -4 20.5 -25.5t30.5 -48.5q8 -14 30 -43.5t45.5 -61.5t45 -60.5t29.5 -41.5q45 -66 45 -98.5t-45 -54.5q-39 -20 -59.5 -19.5t-55.5 23.5zM1368 2194q-10 12 -19 16t-9 0q0 -8 38.5 -53 t88 -95t92.5 -91t51 -41q16 0 -29 51q-10 10 -31.5 34.5t-45 49t-42 46t-20.5 26.5q-18 18 -10 30q6 14 -13 6q-10 -4 -24.5 2.5t-26.5 18.5zM1340 2147q12 -18 30.5 -40t34.5 -38t28.5 -26.5t16.5 -8.5q4 4 -14.5 24.5t-46.5 49.5q-29 29 -43 39t-6 0zM100 440 q-25 -12 -35 -12t-24 14q-29 31 -16.5 62t61.5 60.5t130 54t190 40.5l114 19l123 153q55 68 130 151t153 163t151.5 148.5t126.5 111.5q109 86 198 133t181 68q-59 12 -112.5 20t-94.5 12q-51 2 -119.5 -8t-141.5 -30.5t-142.5 -46t-120.5 -50.5q-53 -27 -114.5 -76 t-120 -107t-106.5 -117.5t-73 -108.5q-51 -106 -59 -185.5t22 -154.5q10 -29 -13 -25t-60 35q-39 33 -63.5 81t-34 106.5t-4.5 121t28 121.5q16 43 45 92t68 99.5t84 97.5t92 88q45 41 80.5 68.5t40.5 27.5q4 0 22.5 11.5t40.5 21.5q147 57 285.5 80.5t262.5 20.5 t231.5 -27.5t194.5 -58.5t149.5 -75t95.5 -75q2 -4 4 -5t4 -6q27 -29 37 -52t-5.5 -61t-60.5 -104.5t-129 -181.5q-74 -102 -130 -184t-100 -160t-82 -157t-77 -171q-18 -41 -29.5 -70.5t-18.5 -57t-12.5 -58.5t-11.5 -72q-6 -45 -3 -86t15.5 -71.5t32 -48t43.5 -17.5 q23 -2 22 -5t-28 -26q-25 -20 -58.5 -24t-68.5 6t-69.5 34.5t-61.5 61.5q-10 12 -15 24.5t-8 30t-3 42v63.5q0 43 3 76.5t12 73.5t25.5 95.5t45.5 139.5q2 10 0 15t-21.5 7t-61.5 1t-118 -3l-207 -8l-229 -239q-139 -145 -251 -242.5t-207 -155t-177 -75t-162 -3.5 q-106 18 -164 82q-16 16 -22.5 41t-6.5 70q0 72 18.5 99.5t67.5 27.5q29 0 38.5 -5t9.5 -26q0 -14 8 -38.5t20.5 -49t26.5 -47t26 -35.5q18 -16 30.5 -16t49.5 20q37 18 89.5 59.5t110.5 97.5t119.5 123.5t119.5 139.5q29 37 48 64.5t17 31.5q-4 2 -42 -7t-87 -24.5 t-96.5 -32t-65.5 -26.5zM803 1620q16 8 14 16.5t-18 12.5q-59 -10 -112.5 -36t-99.5 -60.5t-85 -75.5t-70 -82q-74 -98 -127 -215q0 -33 40 30.5t138 198.5q49 68 101.5 107.5t98.5 61t79 30t41 12.5zM987 1724q10 -2 16.5 0t2.5 7q-6 10 -27 2q-21 -9 8 -9zM1219 1696 q16 2 16 3t-16 5q-8 4 -17.5 11t-13.5 14q-8 16 -21 4q-4 -6 -1 -12.5t11.5 -11.5t20 -9t21.5 -4zM195 170q10 10 15 18.5t3 8.5q-4 0 -13.5 -8.5t-19.5 -18.5q-25 -29 -18 -29q8 0 33 29zM838 838q16 20 24 33.5t0 9.5q-6 -2 -46 -51.5t-91 -114.5q-51 -66 -95 -122 t-57 -69q-12 -12 -37.5 -40.5t-50.5 -57.5q-23 -29 -57.5 -65.5t-56.5 -61.5q-25 -25 -41.5 -45.5t-16.5 -24.5t20.5 14.5t54.5 52.5t77 82t90 101q18 23 38.5 46.5t39 45t33 40t22.5 30.5q35 51 71 98.5t79 98.5zM891 909q10 8 25.5 25.5t27.5 34.5q33 47 21.5 38.5 t-52.5 -59.5q-20 -25 -26 -36t4 -3zM1339 584q6 18 -6 12q-14 -8 -14 -23q0 -14 6 -10.5t14 21.5zM1491 868q14 27 15 32t-11 -11t-37.5 -60.5t-50.5 -91.5t-41 -84t-12 -37t19.5 31t37.5 72q23 41 45.5 85t34.5 64zM1599 1044q14 27 14.5 31t-9 -7t-24.5 -35.5t-34 -57.5 q-20 -35 -21 -40t17 17q10 16 27.5 42.5t29.5 49.5zM1655 1128q8 8 9 14.5t-5 6.5q-14 0 -23 -21q-8 -23 -4 -22q9 -1 23 22zM1415 1214q-16 -14 -46 -43.5t-69.5 -67.5t-85 -82t-88.5 -87l-217 -213l144 -8q59 -4 103 -8.5t48 -8.5q23 -23 48.5 -1t60.5 93q10 20 33.5 60.5 t55.5 92.5t69.5 110.5t74.5 115.5t70 107.5t57.5 89.5t37.5 61.5t11 22.5q-2 2 -37.5 -22.5t-85 -61.5t-100.5 -79t-84 -71zM1006 1051q-25 -29 -19 -29q8 0 33 29q10 10 15 19t3 9q-4 0 -13 -9zM872 961q-16 -20 -17 -23.5t15.5 13t54.5 56.5t101 105q55 57 88 94t25 31 q-8 -4 -43 -38t-77 -78t-83 -88.5t-64 -71.5zM737 793q-39 -55 -16.5 -34t88.5 105q23 29 25 35t-15 -8q-14 -12 -38 -40.5t-44 -57.5zM604 621q-53 -63 -117.5 -138t-124.5 -141q-86 -90 -108.5 -116.5t-5.5 -12.5q12 8 61 59.5t109 116.5q51 55 101 112.5t89 105.5 t61.5 78t16.5 30q-4 0 -27.5 -27.5t-54.5 -66.5z" />
<glyph unicode="&#xc1;" horiz-adv-x="1685" d="M1304 1988q90 166 153.5 242t102.5 80q27 2 59.5 -19.5t59.5 -53t41 -66.5t4 -56q-4 -6 -24.5 -23t-45.5 -34q-12 -10 -39.5 -33.5t-57.5 -51.5t-56.5 -52.5t-36.5 -32.5q-59 -51 -92 -53t-62 39q-23 37 -24.5 58t18.5 56zM1628 2148q10 10 14 20.5t0 8.5 q-6 0 -26.5 -20.5t-49 -51t-60.5 -67.5t-58.5 -70t-43 -56.5t-16.5 -29.5q0 -10 12.5 0t34.5 33q10 10 31.5 34.5t45.5 50t42 45t22 23.5q18 20 31 13q14 -4 4 14q-4 8 1.5 23.5t15.5 29.5zM1579 2171q-18 -14 -38 -33.5t-35.5 -38t-23.5 -33t-6 -16.5q4 -2 23.5 17.5 t44.5 52.5q25 29 35 45t0 6zM100 440q-25 -12 -35 -12t-24 14q-29 31 -16.5 62t61.5 60.5t130 54t190 40.5l114 19l123 153q55 68 130 151t153 163t151.5 148.5t126.5 111.5q109 86 198 133t181 68q-59 12 -112.5 20t-94.5 12q-51 2 -119.5 -8t-141.5 -30.5t-142.5 -46 t-120.5 -50.5q-53 -27 -114.5 -76t-120 -107t-106.5 -117.5t-73 -108.5q-51 -106 -59 -185.5t22 -154.5q10 -29 -13 -25t-60 35q-39 33 -63.5 81t-34 106.5t-4.5 121t28 121.5q16 43 45 92t68 99.5t84 97.5t92 88q45 41 80.5 68.5t40.5 27.5q4 0 22.5 11.5t40.5 21.5 q147 57 285.5 80.5t262.5 20.5t231.5 -27.5t194.5 -58.5t149.5 -75t95.5 -75q2 -4 4 -5t4 -6q27 -29 37 -52t-5.5 -61t-60.5 -104.5t-129 -181.5q-74 -102 -130 -184t-100 -160t-82 -157t-77 -171q-18 -41 -29.5 -70.5t-18.5 -57t-12.5 -58.5t-11.5 -72q-6 -45 -3 -86 t15.5 -71.5t32 -48t43.5 -17.5q23 -2 22 -5t-28 -26q-25 -20 -58.5 -24t-68.5 6t-69.5 34.5t-61.5 61.5q-10 12 -15 24.5t-8 30t-3 42v63.5q0 43 3 76.5t12 73.5t25.5 95.5t45.5 139.5q2 10 0 15t-21.5 7t-61.5 1t-118 -3l-207 -8l-229 -239q-139 -145 -251 -242.5 t-207 -155t-177 -75t-162 -3.5q-106 18 -164 82q-16 16 -22.5 41t-6.5 70q0 72 18.5 99.5t67.5 27.5q29 0 38.5 -5t9.5 -26q0 -14 8 -38.5t20.5 -49t26.5 -47t26 -35.5q18 -16 30.5 -16t49.5 20q37 18 89.5 59.5t110.5 97.5t119.5 123.5t119.5 139.5q29 37 48 64.5t17 31.5 q-4 2 -42 -7t-87 -24.5t-96.5 -32t-65.5 -26.5zM803 1620q16 8 14 16.5t-18 12.5q-59 -10 -112.5 -36t-99.5 -60.5t-85 -75.5t-70 -82q-74 -98 -127 -215q0 -33 40 30.5t138 198.5q49 68 101.5 107.5t98.5 61t79 30t41 12.5zM987 1724q10 -2 16.5 0t2.5 7q-6 10 -27 2 q-21 -9 8 -9zM1219 1696q16 2 16 3t-16 5q-8 4 -17.5 11t-13.5 14q-8 16 -21 4q-4 -6 -1 -12.5t11.5 -11.5t20 -9t21.5 -4zM195 170q10 10 15 18.5t3 8.5q-4 0 -13.5 -8.5t-19.5 -18.5q-25 -29 -18 -29q8 0 33 29zM838 838q16 20 24 33.5t0 9.5q-6 -2 -46 -51.5t-91 -114.5 q-51 -66 -95 -122t-57 -69q-12 -12 -37.5 -40.5t-50.5 -57.5q-23 -29 -57.5 -65.5t-56.5 -61.5q-25 -25 -41.5 -45.5t-16.5 -24.5t20.5 14.5t54.5 52.5t77 82t90 101q18 23 38.5 46.5t39 45t33 40t22.5 30.5q35 51 71 98.5t79 98.5zM891 909q10 8 25.5 25.5t27.5 34.5 q33 47 21.5 38.5t-52.5 -59.5q-20 -25 -26 -36t4 -3zM1339 584q6 18 -6 12q-14 -8 -14 -23q0 -14 6 -10.5t14 21.5zM1491 868q14 27 15 32t-11 -11t-37.5 -60.5t-50.5 -91.5t-41 -84t-12 -37t19.5 31t37.5 72q23 41 45.5 85t34.5 64zM1599 1044q14 27 14.5 31t-9 -7 t-24.5 -35.5t-34 -57.5q-20 -35 -21 -40t17 17q10 16 27.5 42.5t29.5 49.5zM1655 1128q8 8 9 14.5t-5 6.5q-14 0 -23 -21q-8 -23 -4 -22q9 -1 23 22zM1415 1214q-16 -14 -46 -43.5t-69.5 -67.5t-85 -82t-88.5 -87l-217 -213l144 -8q59 -4 103 -8.5t48 -8.5q23 -23 48.5 -1 t60.5 93q10 20 33.5 60.5t55.5 92.5t69.5 110.5t74.5 115.5t70 107.5t57.5 89.5t37.5 61.5t11 22.5q-2 2 -37.5 -22.5t-85 -61.5t-100.5 -79t-84 -71zM1006 1051q-25 -29 -19 -29q8 0 33 29q10 10 15 19t3 9q-4 0 -13 -9zM872 961q-16 -20 -17 -23.5t15.5 13t54.5 56.5 t101 105q55 57 88 94t25 31q-8 -4 -43 -38t-77 -78t-83 -88.5t-64 -71.5zM737 793q-39 -55 -16.5 -34t88.5 105q23 29 25 35t-15 -8q-14 -12 -38 -40.5t-44 -57.5zM604 621q-53 -63 -117.5 -138t-124.5 -141q-86 -90 -108.5 -116.5t-5.5 -12.5q12 8 61 59.5t109 116.5 q51 55 101 112.5t89 105.5t61.5 78t16.5 30q-4 0 -27.5 -27.5t-54.5 -66.5z" />
<glyph unicode="&#xc2;" horiz-adv-x="1685" d="M1102 1845q-27 0 -51.5 8t-40.5 21l-35 28l29 55q23 43 80 98.5t124.5 104.5t131 83t98.5 34q61 0 114.5 -30.5t93.5 -82t61.5 -118t17.5 -138.5q-4 -47 -10.5 -59t-30.5 -14q-16 -2 -41 3t-45 13q-16 8 -44 33.5t-55.5 56.5t-48 59.5t-20.5 38.5q0 33 -68 -28 q-94 -86 -155.5 -126t-104.5 -40zM100 440q-25 -12 -35 -12t-24 14q-29 31 -16.5 62t61.5 60.5t130 54t190 40.5l114 19l123 153q55 68 130 151t153 163t151.5 148.5t126.5 111.5q109 86 198 133t181 68q-59 12 -112.5 20t-94.5 12q-51 2 -119.5 -8t-141.5 -30.5t-142.5 -46 t-120.5 -50.5q-53 -27 -114.5 -76t-120 -107t-106.5 -117.5t-73 -108.5q-51 -106 -59 -185.5t22 -154.5q10 -29 -13 -25t-60 35q-39 33 -63.5 81t-34 106.5t-4.5 121t28 121.5q16 43 45 92t68 99.5t84 97.5t92 88q45 41 80.5 68.5t40.5 27.5q4 0 22.5 11.5t40.5 21.5 q147 57 285.5 80.5t262.5 20.5t231.5 -27.5t194.5 -58.5t149.5 -75t95.5 -75q2 -4 4 -5t4 -6q27 -29 37 -52t-5.5 -61t-60.5 -104.5t-129 -181.5q-74 -102 -130 -184t-100 -160t-82 -157t-77 -171q-18 -41 -29.5 -70.5t-18.5 -57t-12.5 -58.5t-11.5 -72q-6 -45 -3 -86 t15.5 -71.5t32 -48t43.5 -17.5q23 -2 22 -5t-28 -26q-25 -20 -58.5 -24t-68.5 6t-69.5 34.5t-61.5 61.5q-10 12 -15 24.5t-8 30t-3 42v63.5q0 43 3 76.5t12 73.5t25.5 95.5t45.5 139.5q2 10 0 15t-21.5 7t-61.5 1t-118 -3l-207 -8l-229 -239q-139 -145 -251 -242.5 t-207 -155t-177 -75t-162 -3.5q-106 18 -164 82q-16 16 -22.5 41t-6.5 70q0 72 18.5 99.5t67.5 27.5q29 0 38.5 -5t9.5 -26q0 -14 8 -38.5t20.5 -49t26.5 -47t26 -35.5q18 -16 30.5 -16t49.5 20q37 18 89.5 59.5t110.5 97.5t119.5 123.5t119.5 139.5q29 37 48 64.5t17 31.5 q-4 2 -42 -7t-87 -24.5t-96.5 -32t-65.5 -26.5zM803 1620q16 8 14 16.5t-18 12.5q-59 -10 -112.5 -36t-99.5 -60.5t-85 -75.5t-70 -82q-74 -98 -127 -215q0 -33 40 30.5t138 198.5q49 68 101.5 107.5t98.5 61t79 30t41 12.5zM987 1724q10 -2 16.5 0t2.5 7q-6 10 -27 2 q-21 -9 8 -9zM1219 1696q16 2 16 3t-16 5q-8 4 -17.5 11t-13.5 14q-8 16 -21 4q-4 -6 -1 -12.5t11.5 -11.5t20 -9t21.5 -4zM195 170q10 10 15 18.5t3 8.5q-4 0 -13.5 -8.5t-19.5 -18.5q-25 -29 -18 -29q8 0 33 29zM838 838q16 20 24 33.5t0 9.5q-6 -2 -46 -51.5t-91 -114.5 q-51 -66 -95 -122t-57 -69q-12 -12 -37.5 -40.5t-50.5 -57.5q-23 -29 -57.5 -65.5t-56.5 -61.5q-25 -25 -41.5 -45.5t-16.5 -24.5t20.5 14.5t54.5 52.5t77 82t90 101q18 23 38.5 46.5t39 45t33 40t22.5 30.5q35 51 71 98.5t79 98.5zM891 909q10 8 25.5 25.5t27.5 34.5 q33 47 21.5 38.5t-52.5 -59.5q-20 -25 -26 -36t4 -3zM1339 584q6 18 -6 12q-14 -8 -14 -23q0 -14 6 -10.5t14 21.5zM1491 868q14 27 15 32t-11 -11t-37.5 -60.5t-50.5 -91.5t-41 -84t-12 -37t19.5 31t37.5 72q23 41 45.5 85t34.5 64zM1599 1044q14 27 14.5 31t-9 -7 t-24.5 -35.5t-34 -57.5q-20 -35 -21 -40t17 17q10 16 27.5 42.5t29.5 49.5zM1655 1128q8 8 9 14.5t-5 6.5q-14 0 -23 -21q-8 -23 -4 -22q9 -1 23 22zM1415 1214q-16 -14 -46 -43.5t-69.5 -67.5t-85 -82t-88.5 -87l-217 -213l144 -8q59 -4 103 -8.5t48 -8.5q23 -23 48.5 -1 t60.5 93q10 20 33.5 60.5t55.5 92.5t69.5 110.5t74.5 115.5t70 107.5t57.5 89.5t37.5 61.5t11 22.5q-2 2 -37.5 -22.5t-85 -61.5t-100.5 -79t-84 -71zM1006 1051q-25 -29 -19 -29q8 0 33 29q10 10 15 19t3 9q-4 0 -13 -9zM872 961q-16 -20 -17 -23.5t15.5 13t54.5 56.5 t101 105q55 57 88 94t25 31q-8 -4 -43 -38t-77 -78t-83 -88.5t-64 -71.5zM737 793q-39 -55 -16.5 -34t88.5 105q23 29 25 35t-15 -8q-14 -12 -38 -40.5t-44 -57.5zM604 621q-53 -63 -117.5 -138t-124.5 -141q-86 -90 -108.5 -116.5t-5.5 -12.5q12 8 61 59.5t109 116.5 q51 55 101 112.5t89 105.5t61.5 78t16.5 30q-4 0 -27.5 -27.5t-54.5 -66.5z" />
<glyph unicode="&#xc3;" horiz-adv-x="1685" d="M967 2009q2 12 19.5 44t48 61.5t73.5 47t99 1.5q55 -16 96 -40t82 -42.5t87 -21.5t112 24q66 25 101.5 49t51.5 43q20 23 23 41q29 0 41 -14q10 -12 7 -41t-38 -82q-37 -53 -96.5 -95.5t-130 -60.5t-147.5 -11t-144 52q-70 45 -114 54t-69 3q-31 -8 -45 -32 q-18 -4 -30 -5q-10 0 -20.5 5.5t-6.5 19.5zM100 440q-25 -12 -35 -12t-24 14q-29 31 -16.5 62t61.5 60.5t130 54t190 40.5l114 19l123 153q55 68 130 151t153 163t151.5 148.5t126.5 111.5q109 86 198 133t181 68q-59 12 -112.5 20t-94.5 12q-51 2 -119.5 -8t-141.5 -30.5 t-142.5 -46t-120.5 -50.5q-53 -27 -114.5 -76t-120 -107t-106.5 -117.5t-73 -108.5q-51 -106 -59 -185.5t22 -154.5q10 -29 -13 -25t-60 35q-39 33 -63.5 81t-34 106.5t-4.5 121t28 121.5q16 43 45 92t68 99.5t84 97.5t92 88q45 41 80.5 68.5t40.5 27.5q4 0 22.5 11.5 t40.5 21.5q147 57 285.5 80.5t262.5 20.5t231.5 -27.5t194.5 -58.5t149.5 -75t95.5 -75q2 -4 4 -5t4 -6q27 -29 37 -52t-5.5 -61t-60.5 -104.5t-129 -181.5q-74 -102 -130 -184t-100 -160t-82 -157t-77 -171q-18 -41 -29.5 -70.5t-18.5 -57t-12.5 -58.5t-11.5 -72 q-6 -45 -3 -86t15.5 -71.5t32 -48t43.5 -17.5q23 -2 22 -5t-28 -26q-25 -20 -58.5 -24t-68.5 6t-69.5 34.5t-61.5 61.5q-10 12 -15 24.5t-8 30t-3 42v63.5q0 43 3 76.5t12 73.5t25.5 95.5t45.5 139.5q2 10 0 15t-21.5 7t-61.5 1t-118 -3l-207 -8l-229 -239 q-139 -145 -251 -242.5t-207 -155t-177 -75t-162 -3.5q-106 18 -164 82q-16 16 -22.5 41t-6.5 70q0 72 18.5 99.5t67.5 27.5q29 0 38.5 -5t9.5 -26q0 -14 8 -38.5t20.5 -49t26.5 -47t26 -35.5q18 -16 30.5 -16t49.5 20q37 18 89.5 59.5t110.5 97.5t119.5 123.5t119.5 139.5 q29 37 48 64.5t17 31.5q-4 2 -42 -7t-87 -24.5t-96.5 -32t-65.5 -26.5zM803 1620q16 8 14 16.5t-18 12.5q-59 -10 -112.5 -36t-99.5 -60.5t-85 -75.5t-70 -82q-74 -98 -127 -215q0 -33 40 30.5t138 198.5q49 68 101.5 107.5t98.5 61t79 30t41 12.5zM987 1724q10 -2 16.5 0 t2.5 7q-6 10 -27 2q-21 -9 8 -9zM1219 1696q16 2 16 3t-16 5q-8 4 -17.5 11t-13.5 14q-8 16 -21 4q-4 -6 -1 -12.5t11.5 -11.5t20 -9t21.5 -4zM195 170q10 10 15 18.5t3 8.5q-4 0 -13.5 -8.5t-19.5 -18.5q-25 -29 -18 -29q8 0 33 29zM838 838q16 20 24 33.5t0 9.5 q-6 -2 -46 -51.5t-91 -114.5q-51 -66 -95 -122t-57 -69q-12 -12 -37.5 -40.5t-50.5 -57.5q-23 -29 -57.5 -65.5t-56.5 -61.5q-25 -25 -41.5 -45.5t-16.5 -24.5t20.5 14.5t54.5 52.5t77 82t90 101q18 23 38.5 46.5t39 45t33 40t22.5 30.5q35 51 71 98.5t79 98.5zM891 909 q10 8 25.5 25.5t27.5 34.5q33 47 21.5 38.5t-52.5 -59.5q-20 -25 -26 -36t4 -3zM1339 584q6 18 -6 12q-14 -8 -14 -23q0 -14 6 -10.5t14 21.5zM1491 868q14 27 15 32t-11 -11t-37.5 -60.5t-50.5 -91.5t-41 -84t-12 -37t19.5 31t37.5 72q23 41 45.5 85t34.5 64zM1599 1044 q14 27 14.5 31t-9 -7t-24.5 -35.5t-34 -57.5q-20 -35 -21 -40t17 17q10 16 27.5 42.5t29.5 49.5zM1655 1128q8 8 9 14.5t-5 6.5q-14 0 -23 -21q-8 -23 -4 -22q9 -1 23 22zM1415 1214q-16 -14 -46 -43.5t-69.5 -67.5t-85 -82t-88.5 -87l-217 -213l144 -8q59 -4 103 -8.5 t48 -8.5q23 -23 48.5 -1t60.5 93q10 20 33.5 60.5t55.5 92.5t69.5 110.5t74.5 115.5t70 107.5t57.5 89.5t37.5 61.5t11 22.5q-2 2 -37.5 -22.5t-85 -61.5t-100.5 -79t-84 -71zM1006 1051q-25 -29 -19 -29q8 0 33 29q10 10 15 19t3 9q-4 0 -13 -9zM872 961q-16 -20 -17 -23.5 t15.5 13t54.5 56.5t101 105q55 57 88 94t25 31q-8 -4 -43 -38t-77 -78t-83 -88.5t-64 -71.5zM737 793q-39 -55 -16.5 -34t88.5 105q23 29 25 35t-15 -8q-14 -12 -38 -40.5t-44 -57.5zM604 621q-53 -63 -117.5 -138t-124.5 -141q-86 -90 -108.5 -116.5t-5.5 -12.5 q12 8 61 59.5t109 116.5q51 55 101 112.5t89 105.5t61.5 78t16.5 30q-4 0 -27.5 -27.5t-54.5 -66.5z" />
<glyph unicode="&#xc4;" horiz-adv-x="1685" d="M1720 2073q66 -84 -12 -158q-35 -35 -86.5 -42t-108.5 15q-45 18 -73.5 46t-39 60t-1 63.5t39.5 58.5q29 25 67 33t77 1.5t75.5 -25.5t61.5 -52zM1169 2155q76 -55 81 -122t-62 -114q-43 -29 -84 -31t-89 21q-84 39 -106.5 82t2.5 116q29 90 96.5 103t161.5 -55zM100 440 q-25 -12 -35 -12t-24 14q-29 31 -16.5 62t61.5 60.5t130 54t190 40.5l114 19l123 153q55 68 130 151t153 163t151.5 148.5t126.5 111.5q109 86 198 133t181 68q-59 12 -112.5 20t-94.5 12q-51 2 -119.5 -8t-141.5 -30.5t-142.5 -46t-120.5 -50.5q-53 -27 -114.5 -76 t-120 -107t-106.5 -117.5t-73 -108.5q-51 -106 -59 -185.5t22 -154.5q10 -29 -13 -25t-60 35q-39 33 -63.5 81t-34 106.5t-4.5 121t28 121.5q16 43 45 92t68 99.5t84 97.5t92 88q45 41 80.5 68.5t40.5 27.5q4 0 22.5 11.5t40.5 21.5q147 57 285.5 80.5t262.5 20.5 t231.5 -27.5t194.5 -58.5t149.5 -75t95.5 -75q2 -4 4 -5t4 -6q27 -29 37 -52t-5.5 -61t-60.5 -104.5t-129 -181.5q-74 -102 -130 -184t-100 -160t-82 -157t-77 -171q-18 -41 -29.5 -70.5t-18.5 -57t-12.5 -58.5t-11.5 -72q-6 -45 -3 -86t15.5 -71.5t32 -48t43.5 -17.5 q23 -2 22 -5t-28 -26q-25 -20 -58.5 -24t-68.5 6t-69.5 34.5t-61.5 61.5q-10 12 -15 24.5t-8 30t-3 42v63.5q0 43 3 76.5t12 73.5t25.5 95.5t45.5 139.5q2 10 0 15t-21.5 7t-61.5 1t-118 -3l-207 -8l-229 -239q-139 -145 -251 -242.5t-207 -155t-177 -75t-162 -3.5 q-106 18 -164 82q-16 16 -22.5 41t-6.5 70q0 72 18.5 99.5t67.5 27.5q29 0 38.5 -5t9.5 -26q0 -14 8 -38.5t20.5 -49t26.5 -47t26 -35.5q18 -16 30.5 -16t49.5 20q37 18 89.5 59.5t110.5 97.5t119.5 123.5t119.5 139.5q29 37 48 64.5t17 31.5q-4 2 -42 -7t-87 -24.5 t-96.5 -32t-65.5 -26.5zM803 1620q16 8 14 16.5t-18 12.5q-59 -10 -112.5 -36t-99.5 -60.5t-85 -75.5t-70 -82q-74 -98 -127 -215q0 -33 40 30.5t138 198.5q49 68 101.5 107.5t98.5 61t79 30t41 12.5zM987 1724q10 -2 16.5 0t2.5 7q-6 10 -27 2q-21 -9 8 -9zM1219 1696 q16 2 16 3t-16 5q-8 4 -17.5 11t-13.5 14q-8 16 -21 4q-4 -6 -1 -12.5t11.5 -11.5t20 -9t21.5 -4zM195 170q10 10 15 18.5t3 8.5q-4 0 -13.5 -8.5t-19.5 -18.5q-25 -29 -18 -29q8 0 33 29zM838 838q16 20 24 33.5t0 9.5q-6 -2 -46 -51.5t-91 -114.5q-51 -66 -95 -122 t-57 -69q-12 -12 -37.5 -40.5t-50.5 -57.5q-23 -29 -57.5 -65.5t-56.5 -61.5q-25 -25 -41.5 -45.5t-16.5 -24.5t20.5 14.5t54.5 52.5t77 82t90 101q18 23 38.5 46.5t39 45t33 40t22.5 30.5q35 51 71 98.5t79 98.5zM891 909q10 8 25.5 25.5t27.5 34.5q33 47 21.5 38.5 t-52.5 -59.5q-20 -25 -26 -36t4 -3zM1339 584q6 18 -6 12q-14 -8 -14 -23q0 -14 6 -10.5t14 21.5zM1491 868q14 27 15 32t-11 -11t-37.5 -60.5t-50.5 -91.5t-41 -84t-12 -37t19.5 31t37.5 72q23 41 45.5 85t34.5 64zM1599 1044q14 27 14.5 31t-9 -7t-24.5 -35.5t-34 -57.5 q-20 -35 -21 -40t17 17q10 16 27.5 42.5t29.5 49.5zM1655 1128q8 8 9 14.5t-5 6.5q-14 0 -23 -21q-8 -23 -4 -22q9 -1 23 22zM1415 1214q-16 -14 -46 -43.5t-69.5 -67.5t-85 -82t-88.5 -87l-217 -213l144 -8q59 -4 103 -8.5t48 -8.5q23 -23 48.5 -1t60.5 93q10 20 33.5 60.5 t55.5 92.5t69.5 110.5t74.5 115.5t70 107.5t57.5 89.5t37.5 61.5t11 22.5q-2 2 -37.5 -22.5t-85 -61.5t-100.5 -79t-84 -71zM1006 1051q-25 -29 -19 -29q8 0 33 29q10 10 15 19t3 9q-4 0 -13 -9zM872 961q-16 -20 -17 -23.5t15.5 13t54.5 56.5t101 105q55 57 88 94t25 31 q-8 -4 -43 -38t-77 -78t-83 -88.5t-64 -71.5zM737 793q-39 -55 -16.5 -34t88.5 105q23 29 25 35t-15 -8q-14 -12 -38 -40.5t-44 -57.5zM604 621q-53 -63 -117.5 -138t-124.5 -141q-86 -90 -108.5 -116.5t-5.5 -12.5q12 8 61 59.5t109 116.5q51 55 101 112.5t89 105.5 t61.5 78t16.5 30q-4 0 -27.5 -27.5t-54.5 -66.5z" />
<glyph unicode="&#xc5;" horiz-adv-x="1685" d="M1395 1911q-98 33 -163 103.5t-65 148.5q0 53 35 91t84 38q20 0 47 7t45 18q59 29 134 31.5t129 -23.5q51 -27 94 -73t53 -87q16 -63 -14.5 -120.5t-90 -95.5t-136 -50.5t-152.5 12.5zM1374 2126q-6 -125 51 -145q23 -10 63 -2t69 24q10 6 20 24.5t18.5 42t13.5 50.5 t5 51q0 66 -29.5 86.5t-101.5 3.5q-33 -6 -53.5 -15t-32.5 -23.5t-16.5 -38t-6.5 -58.5zM100 440q-25 -12 -35 -12t-24 14q-29 31 -16.5 62t61.5 60.5t130 54t190 40.5l114 19l123 153q55 68 130 151t153 163t151.5 148.5t126.5 111.5q109 86 198 133t181 68 q-59 12 -112.5 20t-94.5 12q-51 2 -119.5 -8t-141.5 -30.5t-142.5 -46t-120.5 -50.5q-53 -27 -114.5 -76t-120 -107t-106.5 -117.5t-73 -108.5q-51 -106 -59 -185.5t22 -154.5q10 -29 -13 -25t-60 35q-39 33 -63.5 81t-34 106.5t-4.5 121t28 121.5q16 43 45 92t68 99.5 t84 97.5t92 88q45 41 80.5 68.5t40.5 27.5q4 0 22.5 11.5t40.5 21.5q147 57 285.5 80.5t262.5 20.5t231.5 -27.5t194.5 -58.5t149.5 -75t95.5 -75q2 -4 4 -5t4 -6q27 -29 37 -52t-5.5 -61t-60.5 -104.5t-129 -181.5q-74 -102 -130 -184t-100 -160t-82 -157t-77 -171 q-18 -41 -29.5 -70.5t-18.5 -57t-12.5 -58.5t-11.5 -72q-6 -45 -3 -86t15.5 -71.5t32 -48t43.5 -17.5q23 -2 22 -5t-28 -26q-25 -20 -58.5 -24t-68.5 6t-69.5 34.5t-61.5 61.5q-10 12 -15 24.5t-8 30t-3 42v63.5q0 43 3 76.5t12 73.5t25.5 95.5t45.5 139.5q2 10 0 15 t-21.5 7t-61.5 1t-118 -3l-207 -8l-229 -239q-139 -145 -251 -242.5t-207 -155t-177 -75t-162 -3.5q-106 18 -164 82q-16 16 -22.5 41t-6.5 70q0 72 18.5 99.5t67.5 27.5q29 0 38.5 -5t9.5 -26q0 -14 8 -38.5t20.5 -49t26.5 -47t26 -35.5q18 -16 30.5 -16t49.5 20 q37 18 89.5 59.5t110.5 97.5t119.5 123.5t119.5 139.5q29 37 48 64.5t17 31.5q-4 2 -42 -7t-87 -24.5t-96.5 -32t-65.5 -26.5zM803 1620q16 8 14 16.5t-18 12.5q-59 -10 -112.5 -36t-99.5 -60.5t-85 -75.5t-70 -82q-74 -98 -127 -215q0 -33 40 30.5t138 198.5 q49 68 101.5 107.5t98.5 61t79 30t41 12.5zM987 1724q10 -2 16.5 0t2.5 7q-6 10 -27 2q-21 -9 8 -9zM1219 1696q16 2 16 3t-16 5q-8 4 -17.5 11t-13.5 14q-8 16 -21 4q-4 -6 -1 -12.5t11.5 -11.5t20 -9t21.5 -4zM195 170q10 10 15 18.5t3 8.5q-4 0 -13.5 -8.5t-19.5 -18.5 q-25 -29 -18 -29q8 0 33 29zM838 838q16 20 24 33.5t0 9.5q-6 -2 -46 -51.5t-91 -114.5q-51 -66 -95 -122t-57 -69q-12 -12 -37.5 -40.5t-50.5 -57.5q-23 -29 -57.5 -65.5t-56.5 -61.5q-25 -25 -41.5 -45.5t-16.5 -24.5t20.5 14.5t54.5 52.5t77 82t90 101q18 23 38.5 46.5 t39 45t33 40t22.5 30.5q35 51 71 98.5t79 98.5zM891 909q10 8 25.5 25.5t27.5 34.5q33 47 21.5 38.5t-52.5 -59.5q-20 -25 -26 -36t4 -3zM1339 584q6 18 -6 12q-14 -8 -14 -23q0 -14 6 -10.5t14 21.5zM1491 868q14 27 15 32t-11 -11t-37.5 -60.5t-50.5 -91.5t-41 -84 t-12 -37t19.5 31t37.5 72q23 41 45.5 85t34.5 64zM1599 1044q14 27 14.5 31t-9 -7t-24.5 -35.5t-34 -57.5q-20 -35 -21 -40t17 17q10 16 27.5 42.5t29.5 49.5zM1655 1128q8 8 9 14.5t-5 6.5q-14 0 -23 -21q-8 -23 -4 -22q9 -1 23 22zM1415 1214q-16 -14 -46 -43.5 t-69.5 -67.5t-85 -82t-88.5 -87l-217 -213l144 -8q59 -4 103 -8.5t48 -8.5q23 -23 48.5 -1t60.5 93q10 20 33.5 60.5t55.5 92.5t69.5 110.5t74.5 115.5t70 107.5t57.5 89.5t37.5 61.5t11 22.5q-2 2 -37.5 -22.5t-85 -61.5t-100.5 -79t-84 -71zM1006 1051q-25 -29 -19 -29 q8 0 33 29q10 10 15 19t3 9q-4 0 -13 -9zM872 961q-16 -20 -17 -23.5t15.5 13t54.5 56.5t101 105q55 57 88 94t25 31q-8 -4 -43 -38t-77 -78t-83 -88.5t-64 -71.5zM737 793q-39 -55 -16.5 -34t88.5 105q23 29 25 35t-15 -8q-14 -12 -38 -40.5t-44 -57.5zM604 621 q-53 -63 -117.5 -138t-124.5 -141q-86 -90 -108.5 -116.5t-5.5 -12.5q12 8 61 59.5t109 116.5q51 55 101 112.5t89 105.5t61.5 78t16.5 30q-4 0 -27.5 -27.5t-54.5 -66.5z" />
<glyph unicode="&#xc7;" horiz-adv-x="958" d="M150 61l-123 -176q143 -2 233 -43q39 -18 70 -47t45 -72t6 -102.5t-47 -138.5q-53 -106 -135 -158.5t-175 -67t-188.5 0t-176.5 40t-136 55t-70 44.5q-20 23 -44.5 61.5t-30.5 67t16.5 31.5t93.5 -48q47 -35 120 -50t153 -15t160.5 15t145 44t105.5 71t41 95 q0 39 -21.5 62.5t-56 36t-79.5 14.5t-93 -2q-111 -8 -249 -48l268 369zM-96 113q-12 29 -19.5 50t-11.5 45.5t-4 56.5v81q2 96 20.5 190.5t58.5 191.5t100.5 201.5t146.5 221.5q178 248 335.5 395.5t315.5 218.5q29 12 51.5 20.5t44 11.5t47 4t60.5 -1q37 -2 60.5 -5 t41.5 -8t33.5 -15.5t34.5 -24.5q125 -94 124 -221q0 -70 -32.5 -149t-86 -154.5t-121 -142t-137 -112.5t-135 -64.5t-114.5 1.5q-16 6 -34.5 19.5t-33 28t-24 28.5t-9.5 25q0 8 12.5 13t28.5 5q35 2 84.5 29.5t101.5 74t102 104.5t89 122q49 80 81 150.5t32 101.5 q0 29 -38 19.5t-151 -69.5q-90 -47 -185 -121.5t-184 -166.5t-167 -198.5t-133 -213.5q-43 -84 -77 -184.5t-54.5 -202.5t-25.5 -196.5t7 -161.5q8 -49 15.5 -77t19.5 -41t31.5 -15.5t50.5 2.5q41 6 105.5 37.5t134 78.5t136 102.5t109.5 106.5q25 31 47.5 40t22.5 -13 q0 -10 -28.5 -42t-71.5 -73t-94.5 -85t-96.5 -77q-141 -104 -242.5 -130.5t-197.5 12.5q-66 27 -106.5 66.5t-69.5 109.5zM451 1241q12 18 11 19.5t-18 -13.5q-25 -20 -24 -28q0 -10 8.5 -4t22.5 26zM-29 563q-31 -117 -25.5 -122t40.5 106q16 55 36.5 114.5t32.5 88.5 q16 39 30.5 68.5t27 55t27 49t30.5 50.5t42 66.5t44 70.5q18 29 36.5 49.5t24.5 16.5q18 -8 11 12q-2 8 3 19.5t13 21.5t17.5 16t15.5 4q8 -4 8 15q0 20 21 20q18 0 22 25q2 12 18.5 33.5t43 49t61.5 57.5t72 58q147 111 147 133q0 4 -9 -1t-24 -17q-12 -12 -50 -42t-79 -60 q-20 -14 -45.5 -37t-53.5 -48.5t-55.5 -53t-47.5 -52.5q-49 -55 -76 -86t-41.5 -49t-23.5 -32.5t-21 -35.5q-10 -20 -40 -68t-61 -100q-66 -109 -105.5 -201t-66.5 -194z" />
<glyph unicode="&#xc8;" horiz-adv-x="1323" d="M1157 1866q-156 104 -225.5 176t-69.5 111q0 27 24.5 57.5t58.5 54t70 33.5t56 -2q6 -4 20.5 -25.5t30.5 -48.5q8 -14 30 -43.5t45.5 -61.5t45 -60.5t29.5 -41.5q45 -66 45 -98.5t-45 -54.5q-39 -20 -59.5 -19.5t-55.5 23.5zM1030 2204q-10 12 -19 16t-9 0q0 -8 38.5 -53 t88 -95t92.5 -91t51 -41q16 0 -29 51q-10 10 -31.5 34.5t-45 49t-42 46t-20.5 26.5q-18 18 -10 30q6 14 -13 6q-10 -4 -24.5 2.5t-26.5 18.5zM1002 2157q12 -18 30.5 -40t34.5 -38t28.5 -26.5t16.5 -8.5q4 4 -14.5 24.5t-46.5 49.5q-29 29 -43 39t-6 0zM23 -113 q-47 -6 -64.5 -1t-46.5 38q-18 18 -30.5 41t-12.5 39q0 25 21.5 52.5t56.5 54t77 46t85 27.5q18 4 27 8.5t15.5 13.5t10.5 25.5t10 47.5q14 74 49 157.5t88 165.5l49 78h-41q-33 0 -45 18.5t-12 63.5q0 33 49 70.5t125 64.5q29 10 55.5 21.5t34.5 19.5q10 8 35 42t54.5 82 t63.5 102.5t61.5 104.5t48 89t24.5 55q2 10 2 16.5t-11 9.5t-36 3h-68q-57 0 -99 6t-72.5 19.5t-53 36t-41.5 57.5q-37 70 -29.5 87t66.5 11q29 -4 69 1t74 15q80 25 195 44.5t229.5 31.5t214 14t150.5 -10q70 -14 136.5 -50t118.5 -83t84 -99.5t32 -101.5 q0 -31 -11.5 -29.5t-46.5 35.5q-20 20 -48 33t-71 19q-20 2 -66 4t-103.5 3t-120 1t-115.5 -2t-88 -4t-37 -6q-4 -2 3 -21.5t19 -46.5q29 -63 19 -122.5t-70 -147.5q-25 -39 -42 -67t-15 -30q10 0 25 2q12 2 27.5 4.5t33.5 6.5q35 6 99.5 9t123.5 -1q45 -2 74 -4t46 -7.5 t26.5 -11.5t17.5 -18q10 -12 17.5 -30.5t7.5 -28.5q0 -18 -15.5 -23.5t-79.5 -5.5q-41 0 -96 -6t-118.5 -16.5t-130 -24t-128.5 -29.5l-114 -31l-129 -147q-53 -61 -105.5 -122.5t-96.5 -116t-79 -98.5t-51 -69l-29 -43h297q111 0 172.5 -1t96 -4t55 -12t49.5 -24 q66 -35 95.5 -72.5t39.5 -97.5l8 -55l-33 27q-27 20 -48 31.5t-51 16.5t-72 5t-109 -4q-78 -4 -148.5 -11.5t-138 -18.5t-136.5 -28.5t-144 -39.5q-61 -16 -123.5 -33t-91.5 -21zM831 98q-10 -4 -7 -6t16 -2q25 0 18 8q-4 4 -11.5 4t-15.5 -4zM903 1184q12 25 19.5 41 t3.5 16t-14.5 -16.5t-20.5 -40.5q-12 -25 -19.5 -42.5t-3.5 -17.5t14.5 17.5t20.5 42.5zM1417 1700q-23 -2 -21.5 -4t25.5 -10q14 -4 25.5 -8.5t13.5 -4.5q4 -4 -4 13q-4 6 -15.5 10t-23.5 4zM1333 1696q-6 -4 -1 -6t20 -2q14 0 19 2t-3 6q-17 8 -35 0zM1266 1696 q-10 -4 -7 -6t15 -2q10 -2 16 0t2 6q-8 8 -26 2zM1165 1681q-6 -4 -1 -6t20 -2q14 0 19 2t-3 6q-17 8 -35 0zM1034 1681q-16 -4 -5 -5t42 -1q70 0 39 6q-16 4 -38 4t-38 -4zM758 1579q29 4 70.5 7t70.5 3t49.5 3t16.5 7q-6 12 28.5 18.5t141.5 10.5q334 8 385 -24 q14 -8 14 0q0 4 -15.5 13t-37.5 19q-16 6 -36 11.5t-49.5 7.5t-73.5 2h-110q-90 -2 -156.5 -5t-72.5 -7q-10 -6 -4 10q12 18 -29 6q-37 -6 -45 -23q-4 -12 -16 -12q-14 0 -6 14q8 16 -15 17q-10 0 -13 -5t1 -12q8 -16 -41 -10q-23 4 -35 2t-8 -8q6 -10 -20 -14 q-12 0 -25.5 -2t-17.5 -4q-6 -2 -19.5 -3.5t-25.5 -3.5q-23 -2 -24 -4t19 -12q10 -4 40 -5t59 3zM621 862q-14 -18 -7 -18q4 0 35 43t72 102q20 31 40.5 62.5t39 61.5t33 54.5t20.5 38.5q16 29 29.5 54.5t17.5 31.5q6 6 11.5 31t9.5 51q6 41 5 47t-12 -16q-18 -47 -55 -122 t-80 -154.5t-85.5 -152.5t-73.5 -114zM555 762q-18 -29 -29.5 -48.5t-7.5 -19.5t18.5 19.5t30.5 48.5q18 29 29.5 47t7.5 18t-18.5 -18t-30.5 -47zM106 49q-31 -18 -6 -10q10 4 53.5 15.5t92.5 23.5q35 8 68.5 14t72.5 10t86 6.5t113 2.5q174 0 179 10t-169 14 q-72 2 -145.5 -4t-139 -17.5t-119 -28t-86.5 -36.5z" />
</font>
</defs>
</svg>
